<?xml version="1.0" encoding="UTF-8"?>
<svg version="1.1" xmlns="http://www.w3.org/2000/svg" width="3963" height="1132">
<path d="M0 0 C0.69227188 0.53591263 1.38454376 1.07182526 2.09779358 1.62397766 C2.03529358 3.81147766 2.03529358 3.81147766 1.09779358 6.62397766 C-0.56029264 7.85096147 -2.22840186 9.06787372 -3.95542908 10.195755 C-6.03260401 11.71964181 -7.51932902 13.31865044 -9.17564392 15.28804016 C-12.80663093 19.53095329 -16.57598644 23.61963973 -20.40220642 27.68647766 C-21.33999939 28.68904602 -21.33999939 28.68904602 -22.29673767 29.71186829 C-25.90242229 33.55270625 -29.56466755 37.32021998 -33.323349 41.01167297 C-34.99328605 42.71698676 -36.54550662 44.49206647 -38.08970642 46.31147766 C-41.1983599 49.92537504 -44.51335622 53.2768428 -47.90220642 56.62397766 C-51.18689916 59.86848452 -54.40954735 63.10320229 -57.40220642 66.62397766 C-60.39486682 70.1447546 -63.61753292 73.37945296 -66.90220642 76.62397766 C-70.16603257 79.84795853 -73.37050783 83.05915613 -76.33970642 86.56147766 C-79.50230666 90.28355509 -82.93191902 93.69263303 -86.40220642 97.12397766 C-91.49802784 102.16247654 -91.49802784 102.16247654 -96.27720642 107.49897766 C-100.32581707 112.28000029 -104.84024182 116.61184907 -109.30992126 120.99458313 C-112.45690223 124.09891541 -115.48541498 127.24262059 -118.37095642 130.59272766 C-122.63360555 135.53624988 -127.2842081 140.05613256 -131.94126892 144.62397766 C-135.20885944 147.85371964 -138.37372975 151.10909391 -141.37095642 154.59272766 C-145.82781247 159.76712743 -150.71667032 164.48648335 -155.58580017 169.26850891 C-158.96065464 172.60674651 -162.24695269 175.95865305 -165.33970642 179.56147766 C-170.1967633 185.20676549 -175.57085971 190.33735997 -180.87486267 195.55757141 C-184.48479318 199.13273533 -188.03379648 202.70133016 -191.33970642 206.56147766 C-196.58305331 212.66958095 -202.43563676 218.19936797 -208.16392517 223.84663391 C-212.00872466 227.65814509 -215.82163409 231.44368592 -219.33970642 235.56147766 C-224.50501096 241.59274825 -230.28326426 247.06025272 -235.93199158 252.633255 C-242.83669262 259.4071245 -242.83669262 259.4071245 -249.33970642 266.56147766 C-254.84453971 273.00470991 -261.05230944 278.8273292 -267.07749939 284.77876282 C-274.42396844 291.96668884 -274.42396844 291.96668884 -281.33970642 299.56147766 C-287.18486356 306.42008085 -293.82010023 312.59348007 -300.2230072 318.92427063 C-308.01173483 326.52559369 -308.01173483 326.52559369 -315.33970642 334.56147766 C-321.52176605 341.83403724 -328.5894942 348.36146011 -335.36851501 355.06977844 C-337.28811984 356.97113333 -339.20458541 358.8756143 -341.12095642 360.78022766 C-341.69720764 361.34818054 -342.27345886 361.91613342 -342.86717224 362.501297 C-345.82389497 365.44050031 -348.64880424 368.44139788 -351.37486267 371.59663391 C-354.79036532 375.54605313 -358.40538161 379.23938376 -362.12095642 382.90522766 C-362.78252747 383.56301208 -363.44409851 384.22079651 -364.12571716 384.89851379 C-366.91798786 387.67464324 -369.71626058 390.44469303 -372.51402283 393.21528625 C-374.5726154 395.25564846 -376.62808545 397.29912097 -378.68345642 399.34272766 C-379.3034552 399.9544281 -379.92345398 400.56612854 -380.5622406 401.19636536 C-383.62049759 404.23771564 -386.55607747 407.33113973 -389.37486267 410.59663391 C-392.9230901 414.70316532 -396.69827955 418.53081179 -400.55845642 422.34272766 C-401.61740112 423.39599243 -401.61740112 423.39599243 -402.69773865 424.47053528 C-405.68118017 427.43781533 -408.67061352 430.39903129 -411.65953064 433.36079407 C-413.85711221 435.54016231 -416.0515858 437.72262713 -418.24595642 439.90522766 C-418.90970276 440.56067566 -419.5734491 441.21612366 -420.25730896 441.89143372 C-423.4260349 445.04374242 -426.48101024 448.239973 -429.40220642 451.62397766 C-432.94016112 455.7224546 -436.70739917 459.53981739 -440.55845642 463.34272766 C-441.61740112 464.39599243 -441.61740112 464.39599243 -442.69773865 465.47053528 C-445.68118017 468.43781533 -448.67061352 471.39903129 -451.65953064 474.36079407 C-453.85711221 476.54016231 -456.0515858 478.72262713 -458.24595642 480.90522766 C-458.90970276 481.56067566 -459.5734491 482.21612366 -460.25730896 482.89143372 C-463.4260349 486.04374242 -466.48101024 489.239973 -469.40220642 492.62397766 C-472.94016112 496.7224546 -476.70739917 500.53981739 -480.55845642 504.34272766 C-481.61740112 505.39599243 -481.61740112 505.39599243 -482.69773865 506.47053528 C-485.68118017 509.43781533 -488.67061352 512.39903129 -491.65953064 515.36079407 C-493.85711221 517.54016231 -496.0515858 519.72262713 -498.24595642 521.90522766 C-498.90970276 522.56067566 -499.5734491 523.21612366 -500.25730896 523.89143372 C-504.06357786 527.67798226 -507.64471836 531.58584324 -511.15232849 535.64924622 C-514.07507978 538.94756136 -517.20441977 542.02922503 -520.33970642 545.12397766 C-521.02347351 545.80395813 -521.7072406 546.4839386 -522.41172791 547.18452454 C-525.29958416 550.0562291 -528.19343717 552.92186204 -531.08677673 555.78804016 C-533.21486367 557.89790553 -535.33983559 560.01087411 -537.46470642 562.12397766 C-538.10657898 562.75755188 -538.74845154 563.3911261 -539.40977478 564.04389954 C-543.17123084 567.7852356 -546.70456052 571.65386318 -550.17149353 575.66841125 C-552.9500239 578.80792717 -555.91812257 581.74379476 -558.90220642 584.68647766 C-559.54158142 585.32206604 -560.18095642 585.95765442 -560.83970642 586.61250305 C-563.53639125 589.29305781 -566.23908372 591.9675243 -568.94126892 594.64253235 C-578.24677832 603.80781531 -578.24677832 603.80781531 -586.99595642 613.49507141 C-592.619292 619.77523102 -598.80467471 625.57082355 -604.79576111 631.49702454 C-613.67225961 640.26290006 -613.67225961 640.26290006 -622.02330017 649.52241516 C-627.27472418 655.39614929 -633.04822362 660.81520918 -638.6502533 666.35151672 C-644.30174414 671.94261481 -649.89478565 677.4922604 -655.05064392 683.54975891 C-659.9290581 689.01481784 -665.29280189 694.06076295 -670.50474548 699.20600891 C-675.87860822 704.51726993 -681.16988354 709.82523245 -686.07798767 715.57710266 C-690.58645258 720.6358513 -695.53492074 725.30408675 -700.35923767 730.0605011 C-705.45903559 735.09500511 -710.4449433 740.15623078 -715.10533142 745.60444641 C-719.6493341 750.71151029 -724.65160739 755.40696966 -729.51939392 760.20210266 C-733.90522211 764.54793849 -738.11449824 768.94548545 -742.13267517 773.63179016 C-746.26212535 778.28084004 -750.79841698 782.55548671 -755.23033142 786.91304016 C-759.38888198 791.02915653 -763.3470346 795.22236644 -767.16001892 799.65913391 C-770.87570175 803.84969101 -774.94486356 807.70413179 -778.94126892 811.62397766 C-782.21921276 814.86395304 -785.39356203 818.13094835 -788.40220642 821.62397766 C-792.65253454 826.55859897 -797.2947898 831.06651155 -801.94126892 835.62397766 C-807.67630422 841.29258398 -813.11410129 847.12480793 -817.90220642 853.62397766 C-817.26009216 853.21260559 -816.61797791 852.80123352 -815.95640564 852.37739563 C-801.85296383 843.34327831 -787.73831103 834.32731089 -773.60386658 825.3417511 C-769.03574585 822.43724202 -764.46905565 819.53048537 -759.90220642 816.62397766 C-758.06887979 815.45730047 -756.23554646 814.29063379 -754.40220642 813.12397766 C-753.04095642 812.25772766 -753.04095642 812.25772766 -751.65220642 811.37397766 C-682.90220642 767.62397766 -614.15220642 723.87397766 -545.40220642 680.12397766 C-544.49446472 679.54631653 -543.58672302 678.9686554 -542.651474 678.37348938 C-540.82060889 677.20840818 -538.98971702 676.04336902 -537.15879822 674.87837219 C-532.5374793 671.93779445 -527.91664722 668.99645674 -523.29673767 666.05366516 C-513.90197413 660.07040793 -504.49904732 654.1006989 -495.07847595 648.15815735 C-486.27004252 642.5989919 -477.48564681 637.0021406 -468.70054626 631.40620422 C-464.1019688 628.47742953 -459.50202615 625.55080075 -454.90220642 622.62397766 C-453.06886638 621.45732153 -451.23553305 620.29065486 -449.40220642 619.12397766 C-416.40220642 598.12397766 -383.40220642 577.12397766 -350.40220642 556.12397766 C-349.49317566 555.5454303 -348.5841449 554.96688293 -347.64756775 554.37080383 C-345.82996512 553.21429456 -344.01209769 552.05820134 -342.19395447 550.90254211 C-337.36759113 547.83397924 -332.54718959 544.75650961 -327.73423767 541.66694641 C-326.72683533 541.02177063 -325.71943298 540.37659485 -324.6815033 539.71186829 C-322.74231179 538.46971336 -320.80473915 537.22502655 -318.8690033 535.97749329 C-317.99953064 535.42126282 -317.13005798 534.86503235 -316.23423767 534.29194641 C-315.46829285 533.79976624 -314.70234802 533.30758606 -313.91319275 532.80049133 C-311.90220642 531.62397766 -311.90220642 531.62397766 -308.90220642 530.62397766 C-308.33058777 531.54170959 -308.33058777 531.54170959 -307.74742126 532.47798157 C-299.64118252 545.48623024 -291.48363863 558.45885826 -283.24205017 571.38179016 C-280.07399275 576.35010878 -276.9219979 581.32840653 -273.77720642 586.31147766 C-273.2882489 587.08620422 -272.79929138 587.86093079 -272.29551697 588.65913391 C-270.34426979 591.7516033 -268.39375795 594.84453618 -266.44322205 597.93745422 C-260.61476031 607.17817294 -254.77136631 616.40904327 -248.90220642 625.62397766 C-243.03588116 634.83446152 -237.19547625 644.06096769 -231.36997986 653.2973175 C-228.88237286 657.24058009 -226.39217258 661.1822045 -223.90220642 665.12397766 C-220.92439771 669.8380363 -217.94704807 674.55238003 -214.97251892 679.26850891 C-209.63337387 687.73162181 -204.27780443 696.18396514 -198.90220642 704.62397766 C-192.05348779 715.37687827 -185.24374309 726.15403097 -178.44322205 736.93745422 C-172.61476031 746.17817294 -166.77136631 755.40904327 -160.90220642 764.62397766 C-154.05348779 775.37687827 -147.24374309 786.15403097 -140.44322205 796.93745422 C-134.61476031 806.17817294 -128.77136631 815.40904327 -122.90220642 824.62397766 C-116.05348779 835.37687827 -109.24374309 846.15403097 -102.44322205 856.93745422 C-96.61476031 866.17817294 -90.77136631 875.40904327 -84.90220642 884.62397766 C-78.05348779 895.37687827 -71.24374309 906.15403097 -64.44322205 916.93745422 C-57.39647786 928.1096955 -50.3223654 939.26416284 -43.22642517 950.40522766 C-42.68936951 951.25085266 -42.15231384 952.09647766 -41.59898376 952.96772766 C-40.38428575 954.86929807 -39.15948117 956.76442742 -37.92808533 958.65522766 C-36.96588074 960.14022766 -36.96588074 960.14022766 -35.98423767 961.65522766 C-35.10022278 963.00971008 -35.10022278 963.00971008 -34.198349 964.39155579 C-32.90220642 966.62397766 -32.90220642 966.62397766 -32.90220642 968.62397766 C-39.99827288 966.75264064 -46.98926876 964.6912053 -53.94654846 962.35827637 C-55.36895704 961.88534738 -55.36895704 961.88534738 -56.82010114 961.40286428 C-59.96642428 960.35595353 -63.11131137 959.3047968 -66.25621033 958.25361633 C-68.52617101 957.49732085 -70.79621833 956.74128535 -73.06634521 955.98548889 C-78.58120447 954.14864744 -84.09513281 952.30903296 -89.60863091 950.46811023 C-96.07159829 948.31029893 -102.5356267 946.15567449 -108.99968974 944.00114814 C-120.5796729 940.14132048 -132.15868984 936.27860245 -143.73716736 932.41426086 C-154.87610114 928.69662056 -166.01571267 924.98102079 -177.15611267 921.26777649 C-178.17888237 920.92687324 -178.17888237 920.92687324 -179.22231407 920.57908305 C-179.90316863 920.35214498 -180.58402319 920.12520691 -181.28550971 919.89139193 C-194.06796389 915.63080692 -206.84975079 911.36822311 -219.63124598 907.1047621 C-224.0913717 905.61706632 -228.55168329 904.12992893 -233.01205826 902.64298058 C-256.65825961 894.75931003 -280.29865506 886.86258057 -303.87874019 878.78301275 C-341.3482399 865.94554058 -378.92687647 853.42663822 -416.48815441 840.86070251 C-419.20586179 839.95144682 -421.92354979 839.04213323 -424.64122009 838.13276672 C-425.65378674 837.7939534 -425.65378674 837.7939534 -426.68680928 837.44829535 C-437.72857692 833.75319313 -448.76573896 830.04451218 -459.80131098 826.33095312 C-471.21356872 822.49094177 -482.63031484 818.66452133 -494.05144769 814.85098648 C-500.43251888 812.71992198 -506.8114128 810.58277985 -513.18515587 808.42988586 C-519.14352776 806.41799712 -525.10727231 804.4229655 -531.07565117 802.44096756 C-533.26352371 801.7111074 -535.44934131 800.97505426 -537.6329155 800.23243332 C-540.60769469 799.22174979 -543.58900063 798.23341972 -546.57302856 797.2504425 C-547.87058548 796.80078754 -547.87058548 796.80078754 -549.19435567 796.34204865 C-555.37261467 794.34558282 -558.55648504 795.01158572 -564.42149353 797.83808899 C-565.24915222 798.28950256 -566.07681091 798.74091614 -566.92955017 799.20600891 C-567.87411072 799.71889465 -568.81867126 800.2317804 -569.79185486 800.76020813 C-570.79764587 801.31337708 -571.80343689 801.86654602 -572.83970642 802.43647766 C-573.90092712 803.01542786 -574.96214783 803.59437805 -576.05552673 804.19087219 C-584.07098973 808.57859601 -592.02146013 813.07642324 -599.96128845 817.59907532 C-607.64802719 821.9588546 -615.41686454 826.15526355 -623.21470642 830.31147766 C-632.96899663 835.51090682 -642.67123765 840.78859334 -652.31871033 846.18354797 C-657.87932735 849.2838731 -663.45349708 852.35977209 -669.02720642 855.43647766 C-669.64913879 855.77986176 -670.27107117 856.12324585 -670.91184998 856.47703552 C-680.44482034 861.73845315 -690.00703481 866.94361663 -699.58750916 872.11811829 C-705.98551844 875.57679199 -712.35832238 879.07672354 -718.71031189 882.61909485 C-726.94402973 887.21052225 -735.20069817 891.7602503 -743.45640564 896.31196594 C-744.71958924 897.00841775 -745.98277283 897.70486957 -747.24595642 898.40132141 C-747.87752655 898.74950928 -748.50909668 899.09769714 -749.1598053 899.45643616 C-753.56520126 901.88555418 -757.96851459 904.31841684 -762.37095642 906.75288391 C-764.81871714 908.10603081 -767.26664357 909.45887744 -769.71470642 910.81147766 C-770.31789703 911.14477081 -770.92108765 911.47806396 -771.54255676 911.82145691 C-779.76386036 916.36220105 -788.0096248 920.85543714 -796.27720642 925.31147766 C-803.95575199 929.45007499 -811.57371539 933.6800315 -819.15220642 937.99897766 C-827.76793765 942.90730646 -836.46498261 947.64791482 -845.21470642 952.31147766 C-854.96899663 957.51090682 -864.67123765 962.78859334 -874.31871033 968.18354797 C-879.87932735 971.2838731 -885.45349708 974.35977209 -891.02720642 977.43647766 C-891.64913879 977.77986176 -892.27107117 978.12324585 -892.91184998 978.47703552 C-902.44482034 983.73845315 -912.00703481 988.94361663 -921.58750916 994.11811829 C-928.72276085 997.97533485 -935.82161142 1001.89330828 -942.90611267 1005.84272766 C-949.27103986 1009.38982786 -955.64830359 1012.91459378 -962.02720642 1016.43647766 C-962.64877625 1016.77968048 -963.27034607 1017.1228833 -963.91075134 1017.47648621 C-973.44409289 1022.73807663 -983.00667561 1027.94342262 -992.58750916 1033.11811829 C-998.98551844 1036.57679199 -1005.35832238 1040.07672354 -1011.71031189 1043.61909485 C-1019.94402973 1048.21052225 -1028.20069817 1052.7602503 -1036.45640564 1057.31196594 C-1037.71958924 1058.00841775 -1038.98277283 1058.70486957 -1040.24595642 1059.40132141 C-1040.87752655 1059.74950928 -1041.50909668 1060.09769714 -1042.1598053 1060.45643616 C-1046.56520126 1062.88555418 -1050.96851459 1065.31841684 -1055.37095642 1067.75288391 C-1057.81871714 1069.10603081 -1060.26664357 1070.45887744 -1062.71470642 1071.81147766 C-1063.31789703 1072.14477081 -1063.92108765 1072.47806396 -1064.54255676 1072.82145691 C-1072.76386036 1077.36220105 -1081.0096248 1081.85543714 -1089.27720642 1086.31147766 C-1096.95575199 1090.45007499 -1104.57371539 1094.6800315 -1112.15220642 1098.99897766 C-1121.94227204 1104.5763175 -1131.84426426 1109.92720455 -1141.7933197 1115.21333313 C-1147.09573712 1118.03452435 -1152.38283923 1120.87090018 -1157.60923767 1123.83100891 C-1158.45123718 1124.30772034 -1159.29323669 1124.78443176 -1160.16075134 1125.27558899 C-1161.69496593 1126.14977316 -1163.225352 1127.03072468 -1164.75108337 1127.91963196 C-1166.43577904 1128.88017342 -1168.16507559 1129.76187799 -1169.90220642 1130.62397766 C-1170.56220642 1130.29397766 -1171.22220642 1129.96397766 -1171.90220642 1129.62397766 C-1171.40333923 1129.01554016 -1170.90447205 1128.40710266 -1170.39048767 1127.78022766 C-1167.89204343 1124.73006234 -1165.39656255 1121.67748599 -1162.90220642 1118.62397766 C-1162.39898865 1118.00828918 -1161.89577087 1117.39260071 -1161.37730408 1116.758255 C-1155.61247012 1109.70047404 -1149.87737858 1102.62588787 -1144.27720642 1095.43647766 C-1140.31350508 1090.35041998 -1136.2123075 1085.40764108 -1132.02012634 1080.50898743 C-1128.30411777 1076.14723113 -1124.76189022 1071.6671797 -1121.24473572 1067.14448547 C-1116.89222393 1061.56674816 -1112.39430985 1056.11403738 -1107.88560486 1050.66230774 C-1104.21892611 1046.22744464 -1100.59143667 1041.76611253 -1097.01158142 1037.26069641 C-1094.22695024 1033.77990743 -1091.40652015 1030.3287372 -1088.58970642 1026.87397766 C-1084.42965284 1021.77022763 -1080.32248016 1016.6315991 -1076.27720642 1011.43647766 C-1072.31360502 1006.35034537 -1068.21230357 1001.4076365 -1064.02012634 996.50898743 C-1060.30174467 992.14444564 -1056.75715386 987.6615907 -1053.23814392 983.13569641 C-1048.96171982 977.6546458 -1044.53627133 972.30284916 -1040.10093689 966.95014954 C-1036.40287967 962.47638248 -1032.77742005 957.95608045 -1029.21470642 953.37397766 C-1025.27344535 948.30664199 -1021.19357213 943.38566532 -1017.0198822 938.50874329 C-1013.30400513 934.14702705 -1009.76181989 929.66708926 -1006.24473572 925.14448547 C-1001.89222393 919.56674816 -997.39430985 914.11403738 -992.88560486 908.66230774 C-989.21892611 904.22744464 -985.59143667 899.76611253 -982.01158142 895.26069641 C-979.22695024 891.77990743 -976.40652015 888.3287372 -973.58970642 884.87397766 C-969.42965284 879.77022763 -965.32248016 874.6315991 -961.27720642 869.43647766 C-957.31360502 864.35034537 -953.21230357 859.4076365 -949.02012634 854.50898743 C-945.30174467 850.14444564 -941.75715386 845.6615907 -938.23814392 841.13569641 C-933.96171982 835.6546458 -929.53627133 830.30284916 -925.10093689 824.95014954 C-921.40287967 820.47638248 -917.77742005 815.95608045 -914.21470642 811.37397766 C-910.27344535 806.30664199 -906.19357213 801.38566532 -902.0198822 796.50874329 C-898.30400513 792.14702705 -894.76181989 787.66708926 -891.24473572 783.14448547 C-886.89222393 777.56674816 -882.39430985 772.11403738 -877.88560486 766.66230774 C-874.21892611 762.22744464 -870.59143667 757.76611253 -867.01158142 753.26069641 C-864.22695024 749.77990743 -861.40652015 746.3287372 -858.58970642 742.87397766 C-854.42965284 737.77022763 -850.32248016 732.6315991 -846.27720642 727.43647766 C-842.31360502 722.35034537 -838.21230357 717.4076365 -834.02012634 712.50898743 C-830.30174467 708.14444564 -826.75715386 703.6615907 -823.23814392 699.13569641 C-818.96171982 693.6546458 -814.53627133 688.30284916 -810.10093689 682.95014954 C-806.40287967 678.47638248 -802.77742005 673.95608045 -799.21470642 669.37397766 C-795.27344535 664.30664199 -791.19357213 659.38566532 -787.0198822 654.50874329 C-783.30400513 650.14702705 -779.76181989 645.66708926 -776.24473572 641.14448547 C-771.89222393 635.56674816 -767.39430985 630.11403738 -762.88560486 624.66230774 C-759.21892611 620.22744464 -755.59143667 615.76611253 -752.01158142 611.26069641 C-749.22695024 607.77990743 -746.40652015 604.3287372 -743.58970642 600.87397766 C-739.42965284 595.77022763 -735.32248016 590.6315991 -731.27720642 585.43647766 C-727.31360502 580.35034537 -723.21230357 575.4076365 -719.02012634 570.50898743 C-715.30174467 566.14444564 -711.75715386 561.6615907 -708.23814392 557.13569641 C-703.96171982 551.6546458 -699.53627133 546.30284916 -695.10093689 540.95014954 C-691.40287967 536.47638248 -687.77742005 531.95608045 -684.21470642 527.37397766 C-680.27344535 522.30664199 -676.19357213 517.38566532 -672.0198822 512.50874329 C-668.30400513 508.14702705 -664.76181989 503.66708926 -661.24473572 499.14448547 C-656.89222393 493.56674816 -652.39430985 488.11403738 -647.88560486 482.66230774 C-644.21892611 478.22744464 -640.59143667 473.76611253 -637.01158142 469.26069641 C-634.22695024 465.77990743 -631.40652015 462.3287372 -628.58970642 458.87397766 C-624.42965284 453.77022763 -620.32248016 448.6315991 -616.27720642 443.43647766 C-612.31360502 438.35034537 -608.21230357 433.4076365 -604.02012634 428.50898743 C-600.30174467 424.14444564 -596.75715386 419.6615907 -593.23814392 415.13569641 C-588.96171982 409.6546458 -584.53627133 404.30284916 -580.10093689 398.95014954 C-576.40287967 394.47638248 -572.77742005 389.95608045 -569.21470642 385.37397766 C-565.27344535 380.30664199 -561.19357213 375.38566532 -557.0198822 370.50874329 C-553.30400513 366.14702705 -549.76181989 361.66708926 -546.24473572 357.14448547 C-541.89222393 351.56674816 -537.39430985 346.11403738 -532.88560486 340.66230774 C-529.21892611 336.22744464 -525.59143667 331.76611253 -522.01158142 327.26069641 C-519.22695024 323.77990743 -516.40652015 320.3287372 -513.58970642 316.87397766 C-509.42965284 311.77022763 -505.32248016 306.6315991 -501.27720642 301.43647766 C-497.3235694 296.36313177 -493.23471905 291.43087859 -489.05088806 286.54634094 C-483.80597112 280.39374073 -478.85430329 274.01285312 -473.90220642 267.62397766 C-476.6729589 268.93746576 -479.12200234 270.3995073 -481.59751892 272.20600891 C-482.30400574 272.71913635 -483.01049255 273.23226379 -483.73838806 273.76094055 C-484.49369812 274.3138678 -485.24900818 274.86679504 -486.02720642 275.43647766 C-487.65347612 276.61881388 -489.27977912 277.80110427 -490.90611267 278.98335266 C-492.15158875 279.89117493 -492.15158875 279.89117493 -493.42222595 280.81733704 C-497.26349629 283.61566353 -501.11304644 286.40247523 -504.96470642 289.18647766 C-505.70865662 289.72441956 -506.45260681 290.26236145 -507.21910095 290.81660461 C-512.95457486 294.95667809 -518.72801765 299.04074947 -524.51451111 303.10908508 C-529.61148336 306.69799742 -534.66911274 310.33827595 -539.71470642 313.99897766 C-546.89934902 319.20940543 -554.15308129 324.31378707 -561.4339447 329.3886261 C-567.77817795 333.81815278 -574.06134055 338.32629963 -580.32408142 342.87007141 C-585.32318907 346.4937632 -590.35125542 350.07295651 -595.40220642 353.62397766 C-601.26711785 357.74783911 -607.09654374 361.91712054 -612.90220642 366.12397766 C-619.40279126 370.83438423 -625.94084522 375.48695374 -632.50767517 380.10444641 C-637.66787362 383.73852333 -642.79149582 387.42069167 -647.90220642 391.12397766 C-654.40279126 395.83438423 -660.94084522 400.48695374 -667.50767517 405.10444641 C-672.66787362 408.73852333 -677.79149582 412.42069167 -682.90220642 416.12397766 C-689.40279126 420.83438423 -695.94084522 425.48695374 -702.50767517 430.10444641 C-707.66787362 433.73852333 -712.79149582 437.42069167 -717.90220642 441.12397766 C-724.40279126 445.83438423 -730.94084522 450.48695374 -737.50767517 455.10444641 C-742.66787362 458.73852333 -747.79149582 462.42069167 -752.90220642 466.12397766 C-759.40492728 470.83593202 -765.94492433 475.49032957 -772.51426697 480.10884094 C-777.61124971 483.69793447 -782.66902076 487.33820922 -787.71470642 490.99897766 C-794.89934902 496.20940543 -802.15308129 501.31378707 -809.4339447 506.3886261 C-815.77817795 510.81815278 -822.06134055 515.32629963 -828.32408142 519.87007141 C-833.32318907 523.4937632 -838.35125542 527.07295651 -843.40220642 530.62397766 C-849.26711785 534.74783911 -855.09654374 538.91712054 -860.90220642 543.12397766 C-867.40279126 547.83438423 -873.94084522 552.48695374 -880.50767517 557.10444641 C-885.66787362 560.73852333 -890.79149582 564.42069167 -895.90220642 568.12397766 C-902.40279126 572.83438423 -908.94084522 577.48695374 -915.50767517 582.10444641 C-920.66787362 585.73852333 -925.79149582 589.42069167 -930.90220642 593.12397766 C-937.39685331 597.83008152 -943.92803714 602.4797123 -950.49009705 607.09126282 C-956.560761 611.36472789 -962.57855241 615.7093936 -968.57603455 620.08491516 C-969.96872813 621.09684452 -971.36646091 622.10187856 -972.76939392 623.0995636 C-974.26850192 624.17104143 -975.75166729 625.26500601 -977.22251892 626.37495422 C-977.9933783 626.93408508 -978.76423767 627.49321594 -979.55845642 628.06929016 C-980.24746033 628.58249817 -980.93646423 629.09570618 -981.64634705 629.62446594 C-986.28079675 631.67786822 -991.32526015 629.24343234 -995.82237244 627.53633118 C-996.98327393 627.09879517 -998.14417542 626.66125916 -999.34025574 626.21046448 C-1000.61224185 625.72469278 -1001.88419301 625.23882956 -1003.15611267 624.75288391 C-1004.50510752 624.24219606 -1005.8542948 623.73201628 -1007.20365906 623.2223053 C-1010.10396123 622.12555741 -1013.00292764 621.02537459 -1015.90089417 619.92247009 C-1020.5160552 618.16607811 -1025.13405848 616.41724895 -1029.75254822 614.66963196 C-1035.39400086 612.53439199 -1041.03478564 610.39740561 -1046.6747179 608.25815296 C-1061.37798456 602.68144651 -1076.09343176 597.13716143 -1090.80989075 591.59538269 C-1095.22382279 589.93317606 -1099.63737835 588.26997129 -1104.05088806 586.60664368 C-1118.66333747 581.09997276 -1133.27844923 575.60056417 -1147.90220642 570.12397766 C-1172.95069949 560.7433351 -1197.97480948 551.29781534 -1223.00288391 541.86286926 C-1233.19483947 538.02085735 -1243.38749815 534.18071547 -1253.5805912 530.34172249 C-1258.26157114 528.5787045 -1262.94247258 526.81547809 -1267.62338161 525.05227184 C-1271.33949134 523.65251035 -1275.05565018 522.25287955 -1278.77192688 520.8535614 C-1294.82721398 514.8080318 -1310.87702784 508.7490074 -1326.90220642 502.62397766 C-1325.61355481 498.65063518 -1324.53904392 496.71892679 -1320.90220642 494.62397766 C-1317.90629375 493.3200681 -1314.85210852 492.202304 -1311.78111267 491.08882141 C-1310.84425125 490.74274841 -1309.90738983 490.39667542 -1308.94213867 490.04011536 C-1306.88171494 489.27966211 -1304.82019211 488.52218202 -1302.75773621 487.76725769 C-1296.97643371 485.65036852 -1291.20376614 483.51010338 -1285.42955017 481.37397766 C-1284.17362155 480.91003184 -1282.91768064 480.44611929 -1281.66172791 479.98223877 C-1267.31684884 474.68107613 -1253.00896326 469.28206149 -1238.70113754 463.88187027 C-1235.03669985 462.49899407 -1231.37190126 461.11707494 -1227.70713806 459.73506165 C-1222.49073651 457.76781037 -1217.27445795 455.80023353 -1212.05832195 453.83227825 C-1202.56704438 450.25143323 -1193.07474778 446.67329791 -1183.58189392 443.09663391 C-1182.87242741 442.82932402 -1182.16296089 442.56201412 -1181.43199539 442.28660393 C-1177.85353698 440.93834222 -1174.27506177 439.5901251 -1170.69657898 438.2419281 C-1164.23415358 435.80717836 -1157.77187769 433.37203185 -1151.30958939 430.93691826 C-1147.71546775 429.58258876 -1144.12133661 428.22828448 -1140.52720642 426.87397766 C-1139.08970638 426.33231112 -1137.65220638 425.79064445 -1136.21470642 425.24897766 C-1087.33970642 406.83231099 -1038.46470642 388.41564433 -989.58970642 369.99897766 C-988.52234898 369.59678497 -988.52234898 369.59678497 -987.43342876 369.18646717 C-985.99602101 368.64483531 -984.5586132 368.10320361 -983.12120533 367.56157207 C-979.52604342 366.20687419 -975.93088256 364.85217349 -972.33572388 363.49746704 C-965.8838349 361.06630745 -959.4319388 358.63516677 -952.9800024 356.20413303 C-949.40849219 354.85841823 -945.83698828 353.5126867 -942.26548767 352.16694641 C-941.55744806 351.90015768 -940.84940845 351.63336895 -940.1199131 351.35849571 C-929.72104204 347.44017083 -919.3225397 343.52086859 -908.92422104 339.60107803 C-855.90926087 319.6166051 -855.90926087 319.6166051 -833.66239929 311.28517151 C-816.83787549 304.98351377 -800.02624371 298.64767596 -783.21470642 292.31147766 C-782.4783194 292.03393646 -781.74193237 291.75639526 -780.98323059 291.47044373 C-774.18341587 288.90758294 -767.38367449 286.3445276 -760.58399963 283.78129578 C-750.23592397 279.88045028 -739.88756162 275.98036645 -729.53892517 272.08100891 C-728.83073954 271.81416479 -728.1225539 271.54732067 -727.3929081 271.27239037 C-723.82377702 269.927548 -720.25464033 268.58272052 -716.6855011 267.23789978 C-710.22706271 264.80440795 -703.76867435 262.37078337 -697.31028175 259.93717003 C-693.71592531 258.58276725 -690.12156571 257.22837288 -686.52720642 255.87397766 C-685.08970641 255.33231103 -683.65220641 254.79064437 -682.21470642 254.24897766 C-611.05845642 227.43647766 -539.90220642 200.62397766 -466.58970642 172.99897766 C-465.87813479 172.7308492 -465.16656317 172.46272074 -464.43342876 172.18646717 C-462.99602101 171.64483531 -461.5586132 171.10320361 -460.12120533 170.56157207 C-456.52604342 169.20687419 -452.93088256 167.85217349 -449.33572388 166.49746704 C-442.8838349 164.06630745 -436.4319388 161.63516677 -429.9800024 159.20413303 C-426.40849219 157.85841823 -422.83698828 156.5126867 -419.26548767 155.16694641 C-418.55744806 154.90015768 -417.84940845 154.63336895 -417.1199131 154.35849571 C-406.72104204 150.44017083 -396.3225397 146.52086859 -385.92422104 142.60107803 C-332.90926087 122.6166051 -332.90926087 122.6166051 -310.66239929 114.28517151 C-293.83787549 107.98351377 -277.02624371 101.64767596 -260.21470642 95.31147766 C-259.4783194 95.03393646 -258.74193237 94.75639526 -257.98323059 94.47044373 C-251.18341587 91.90758294 -244.38367449 89.3445276 -237.58399963 86.78129578 C-227.23592397 82.88045028 -216.88756162 78.98036645 -206.53892517 75.08100891 C-205.47664672 74.68074273 -205.47664672 74.68074273 -204.3929081 74.27239037 C-200.82377702 72.927548 -197.25464033 71.58272052 -193.6855011 70.23789978 C-187.22706271 67.80440795 -180.76867435 65.37078337 -174.31028175 62.93717003 C-170.71592531 61.58276725 -167.12156571 60.22837288 -163.52720642 58.87397766 C-162.08970641 58.33231103 -160.65220641 57.79064437 -159.21470642 57.24897766 C-156.33970642 56.16564433 -153.46470642 55.08231099 -150.58970642 53.99897766 C-149.52233671 53.59678025 -149.52233671 53.59678025 -148.43340397 53.18645763 C-146.99607904 52.64485711 -145.55875388 52.1032572 -144.12142849 51.56165791 C-140.524998 50.20648427 -136.92857154 48.85129993 -133.33215332 47.49609375 C-126.89541566 45.07060706 -120.4586519 42.64518979 -114.02173328 40.22018337 C-110.47015195 38.88217908 -106.9185948 37.54411061 -103.36705017 36.20600891 C-102.30972844 35.807648 -102.30972844 35.807648 -101.23104668 35.4012394 C-91.33795237 31.67373422 -81.44600434 27.94320015 -71.55482483 24.21061707 C-65.99173412 22.11131754 -60.42834263 20.01281562 -54.86488533 17.91448784 C-50.34625716 16.21014602 -45.82802719 14.50475424 -41.31010532 12.79854107 C-38.51021242 11.74144754 -35.70992915 10.68539114 -32.90954399 9.62960243 C-31.02173614 8.91752205 -29.13439222 8.20421209 -27.24707031 7.49084473 C-24.94712427 6.62415717 -22.64443926 5.76469483 -20.33876038 4.91337585 C-17.9057952 4.00052509 -15.50080274 3.06014233 -13.09529114 2.08091736 C-11.84279533 1.58956795 -10.59020414 1.0984616 -9.33750916 0.60762024 C-8.22278732 0.15623184 -7.10806549 -0.29515656 -5.95956421 -0.76022339 C-2.90220642 -1.37602234 -2.90220642 -1.37602234 0 0 Z " fill="#4A88C7" transform="translate(1326.9022064208984,1.3760223388671875)"/>
<path d="M0 0 C79.86 0 159.72 0 242 0 C242 44.00545596 242 44.00545596 223.0625 69.4375 C216.84527938 77.83347127 210.71240305 86.28725462 204.60888672 94.76611328 C201.90987872 98.51359784 199.20461116 102.25655845 196.5 106 C195.41663696 107.49997854 194.33330362 108.99997854 193.25 110.5 C191.08333333 113.5 188.91666667 116.5 186.75 119.5 C185.94574585 120.61362915 185.94574585 120.61362915 185.12524414 121.74975586 C184.04121584 123.2506555 182.95706858 124.75146922 181.87280273 126.25219727 C179.17412345 129.98773967 176.47748688 133.72472254 173.78515625 137.46484375 C167.65243321 145.97920681 161.46767211 154.45216202 155.23291016 162.89208984 C151.27098772 168.26074202 147.34094938 173.65119446 143.4375 179.0625 C142.90656738 179.79823242 142.37563477 180.53396484 141.82861328 181.29199219 C139.10610668 185.06823881 136.39125194 188.84981201 133.68359375 192.63671875 C127.0138844 201.94780968 120.1798531 211.07626834 113 220 C112.23042969 220.96421875 111.46085937 221.9284375 110.66796875 222.921875 C106.06063258 228.6346491 101.25069117 234.10956025 96.26171875 239.4921875 C94.07921712 241.9121634 92.0357389 244.45532638 90 247 C140.16 247 190.32 247 242 247 C242 266.8 242 286.6 242 307 C162.14 307 82.28 307 0 307 C0 259.46114185 0 259.46114185 10.0703125 248.84375 C10.7293457 248.21726562 11.38837891 247.59078125 12.06738281 246.9453125 C15.36816442 243.62284815 17.90595881 239.77880876 20.5625 235.9375 C21.6336398 234.44440095 22.70785012 232.95349977 23.78515625 231.46484375 C24.31512207 230.72862793 24.84508789 229.99241211 25.39111328 229.23388672 C28.63146195 224.73476831 31.88027702 220.24175881 35.12744141 215.74755859 C37.82598022 212.012055 40.52257953 208.2751852 43.21484375 204.53515625 C49.34756679 196.02079319 55.53232789 187.54783798 61.76708984 179.10791016 C67.36432174 171.5233116 72.88408627 163.8841167 78.39111328 156.23388672 C81.63146195 151.73476831 84.88027702 147.24175881 88.12744141 142.74755859 C90.82598022 139.012055 93.52257953 135.2751852 96.21484375 131.53515625 C103.5175642 121.39575037 110.88412616 111.30568813 118.32421875 101.26660156 C119.92082672 99.10708694 121.50808274 96.94099165 123.09375 94.7734375 C129.05665899 86.66680188 135.32561704 78.94170233 141.9921875 71.40234375 C145.03018122 67.96585994 148.01494356 64.48256585 151 61 C76.255 60.505 76.255 60.505 0 60 C0 40.2 0 20.4 0 0 Z " fill="#568AC8" transform="translate(1274,403)"/>
<path d="M0 0 C18.43636778 14.43277375 27.53981861 35.63638887 30.39453125 58.421875 C30.47890907 60.72601248 30.51659699 63.03219415 30.51478577 65.33787537 C30.5160674 66.32689939 30.5160674 66.32689939 30.51737493 67.3359037 C30.51901019 69.52531516 30.51354068 71.71464844 30.50805664 73.90405273 C30.50777432 75.48141986 30.50793338 77.05878712 30.50849915 78.63615417 C30.50878537 82.90421017 30.50291691 87.17223791 30.49592519 91.44028735 C30.48966253 95.90591459 30.48908555 100.37154251 30.48789978 104.83717346 C30.48479505 113.28719637 30.47659323 121.7372063 30.46655029 130.18722349 C30.45326946 141.61017651 30.44788232 153.03313309 30.44204807 164.45609188 C30.43265276 182.44469597 30.41272811 200.43327267 30.39453125 218.421875 C6.30453125 218.421875 -17.78546875 218.421875 -42.60546875 218.421875 C-42.64285156 208.21507812 -42.68023438 198.00828125 -42.71875 187.4921875 C-42.74903067 181.02081982 -42.78005803 174.54946995 -42.81445312 168.078125 C-42.86889162 157.80958687 -42.9203067 147.54109816 -42.9519043 137.27246094 C-42.97493321 129.79305357 -43.00838561 122.31377648 -43.05417031 114.83447254 C-43.07803678 110.87702645 -43.0968085 106.91970886 -43.10308266 102.96219254 C-43.10916347 99.23076426 -43.12927019 95.4996645 -43.15974426 91.76835823 C-43.17261392 89.75929216 -43.17096278 87.75014916 -43.16874695 85.74104309 C-43.29459329 73.52621484 -45.73231737 63.65843438 -54.3046875 54.6328125 C-62.52688914 47.13120831 -71.84474439 45.9270221 -82.6796875 46.1484375 C-92.41109787 46.82624718 -100.79648337 50.36971157 -107.60546875 57.421875 C-115.79878048 67.95099929 -117.05250827 79.54747914 -117.0378418 92.5222168 C-117.0468795 93.90314092 -117.05721158 95.28405707 -117.06872559 96.66496277 C-117.09608637 100.37909074 -117.1055513 104.09306565 -117.11157966 107.80728126 C-117.12101838 111.70172569 -117.1472258 115.59605821 -117.17158508 119.49043274 C-117.21510354 126.849482 -117.24374017 134.20850935 -117.26690847 141.56764776 C-117.29912139 151.52299483 -117.35457013 161.4782115 -117.40865421 171.43345928 C-117.4931384 187.09622552 -117.54679092 202.75894157 -117.60546875 218.421875 C-141.69546875 218.421875 -165.78546875 218.421875 -190.60546875 218.421875 C-190.60546875 142.521875 -190.60546875 66.621875 -190.60546875 -11.578125 C-167.83546875 -11.578125 -145.06546875 -11.578125 -121.60546875 -11.578125 C-121.16796875 7.671875 -121.16796875 7.671875 -121.03735352 13.73144531 C-120.99921814 15.32097216 -120.96074795 16.91049102 -120.921875 18.5 C-120.89716125 19.73242432 -120.89716125 19.73242432 -120.87194824 20.98974609 C-120.85176636 21.78106934 -120.83158447 22.57239258 -120.81079102 23.38769531 C-120.78747459 24.41361786 -120.78747459 24.41361786 -120.76368713 25.46026611 C-120.59625059 27.53616273 -120.16381847 29.41862245 -119.60546875 31.421875 C-119.18136719 30.58785156 -118.75726562 29.75382813 -118.3203125 28.89453125 C-114.64989385 21.85216756 -110.74442655 15.50258751 -105.60546875 9.421875 C-104.84363281 8.42607422 -104.84363281 8.42607422 -104.06640625 7.41015625 C-80.22298133 -22.48221637 -28.97868865 -21.40209323 0 0 Z " fill="#568AC8" transform="translate(3073.60546875,491.578125)"/>
<path d="M0 0 C1.51649437 1.29340677 3.01809747 2.60460047 4.5 3.9375 C5.44939453 4.76507813 5.44939453 4.76507813 6.41796875 5.609375 C17.39604332 15.78772229 24.91033004 31.49126592 25.68040848 46.43945503 C25.74592879 50.7546697 25.7477215 55.06563618 25.72705078 59.38110352 C25.7264859 61.03758233 25.72680473 62.69406164 25.72793579 64.35054016 C25.7285073 68.82511552 25.71678582 73.29958265 25.70278788 77.77413297 C25.69024672 82.45862348 25.68910735 87.14311675 25.68673706 91.82762146 C25.68053222 100.68842056 25.66413491 109.54917004 25.64403808 118.40994734 C25.62164804 128.50185549 25.61067785 138.59376608 25.60064721 148.68569291 C25.57976777 169.43632908 25.54310401 190.18689727 25.5 210.9375 C3.06 210.9375 -19.38 210.9375 -42.5 210.9375 C-42.83 200.7075 -43.16 190.4775 -43.5 179.9375 C-46.965 185.3825 -46.965 185.3825 -50.5 190.9375 C-62.8695849 205.95215337 -80.28757921 213.33136824 -99.3125 215.5625 C-120.9928503 217.39136391 -145.55220098 214.79873285 -163.1484375 200.8359375 C-165.69042816 198.61455827 -168.10916523 196.32014698 -170.5 193.9375 C-171.1496875 193.31101562 -171.799375 192.68453125 -172.46875 192.0390625 C-185.00397918 179.00902164 -187.01698156 161.12311494 -186.91967773 143.90966797 C-186.52394741 127.70635604 -182.05056785 111.9005994 -170.6171875 99.83203125 C-150.53141557 81.85860065 -125.90748853 77.21150516 -99.94873047 74.32324219 C-94.05705906 73.66425586 -88.17006711 72.97273165 -82.2862854 72.24710083 C-80.3114367 72.00745527 -78.33480336 71.78266164 -76.3581543 71.55834961 C-62.24884796 70.11466218 -62.24884796 70.11466218 -50.3125 63.25 C-47.607862 58.30704089 -46.86989197 54.08804015 -47.98046875 48.53515625 C-49.65705085 42.96816264 -51.6477868 38.6391594 -56.8046875 35.5625 C-67.9311504 29.75164697 -80.44421604 29.1682898 -92.5 32.5625 C-102.0270018 35.94228927 -107.6372374 41.10376171 -112.5 49.9375 C-112.995 51.4225 -112.995 51.4225 -113.5 52.9375 C-120.80894537 53.11711401 -127.80806717 52.42430088 -135.05078125 51.4765625 C-136.81532906 51.25061905 -136.81532906 51.25061905 -138.61552429 51.02011108 C-141.08756008 50.70182533 -143.55922129 50.3806181 -146.03051758 50.05664062 C-149.81669402 49.56195202 -153.6044737 49.08123702 -157.39257812 48.6015625 C-159.79958816 48.2899031 -162.20649319 47.97743144 -164.61328125 47.6640625 C-165.7455867 47.52126862 -166.87789215 47.37847473 -168.04450989 47.23135376 C-169.62216377 47.02136246 -169.62216377 47.02136246 -171.23168945 46.80712891 C-172.61660332 46.62725937 -172.61660332 46.62725937 -174.02949524 46.4437561 C-176.48475827 45.94062334 -178.32803299 45.16685241 -180.5 43.9375 C-176.30693443 30.18943987 -171.06334178 18.89943326 -161.5 7.9375 C-160.99210937 7.33421875 -160.48421875 6.7309375 -159.9609375 6.109375 C-150.85689524 -3.88172779 -138.00354566 -10.47497225 -125.5 -15.0625 C-124.489375 -15.44019531 -123.47875 -15.81789063 -122.4375 -16.20703125 C-84.25922573 -29.20907108 -32.47353323 -25.32249877 0 0 Z M-55.671875 110.75 C-60.92887297 112.28520558 -66.12564395 113.5390939 -71.515625 114.5 C-72.19032837 114.62036621 -72.86503174 114.74073242 -73.56018066 114.86474609 C-76.31943899 115.35008475 -79.08050651 115.82409536 -81.84277344 116.29199219 C-94.76332803 118.49882533 -105.45507214 120.88121945 -114.5 130.9375 C-118.24637353 136.84087648 -118.28736897 143.14078625 -117.5 149.9375 C-115.94994845 155.77700239 -112.62997877 159.35966233 -107.67578125 162.68359375 C-98.22894917 168.12781834 -87.45946201 168.2167009 -76.9296875 166.28125 C-65.77012396 163.22094416 -56.19126303 156.96242583 -50.28515625 146.859375 C-47.34999818 141.21885771 -46.37320397 136.83262564 -46.40234375 130.421875 C-46.40556641 129.17148437 -46.40878906 127.92109375 -46.41210938 126.6328125 C-46.42048828 125.33085938 -46.42886719 124.02890625 -46.4375 122.6875 C-46.44201172 121.37007812 -46.44652344 120.05265625 -46.45117188 118.6953125 C-46.46295684 115.44266259 -46.47940989 112.19010416 -46.5 108.9375 C-49.91902125 108.9375 -52.40248127 109.74345272 -55.671875 110.75 Z " fill="#568AC8" transform="translate(2810.5,499.0625)"/>
<path d="M0 0 C1.73274534 1.51417716 3.44095928 3.05683364 5.125 4.625 C6.07117187 5.50285156 7.01734375 6.38070313 7.9921875 7.28515625 C26.71398884 25.09800971 36.24646718 48.44074298 40.125 73.625 C40.310625 74.81738281 40.49625 76.00976562 40.6875 77.23828125 C44.25775383 107.1048277 39.82549257 137.36322039 25.125 163.625 C24.56941406 164.62273437 24.01382813 165.62046875 23.44140625 166.6484375 C9.72958161 189.60012479 -13.40999904 204.93686079 -38.9375 211.74609375 C-72.40123219 219.56642247 -109.73587957 217.40671952 -139.71142578 199.52978516 C-164.36325338 184.07711474 -180.23261745 160.09009811 -187.1015625 132.0859375 C-195.30220078 95.39015208 -191.13264579 57.18927244 -171.875 24.625 C-169.72456226 21.44005323 -167.39205456 18.52555429 -164.875 15.625 C-164.23304687 14.83996094 -163.59109375 14.05492187 -162.9296875 13.24609375 C-145.074336 -7.80477268 -118.70153731 -19.34889645 -91.50610352 -22.17871094 C-59.36750179 -24.57635739 -26.0192606 -20.63087472 0 0 Z M-101.875 44.625 C-116.54575641 63.56625382 -118.60677372 88.65120276 -115.98071289 111.74291992 C-114.08948031 125.69021342 -109.59862383 141.2223347 -99.00390625 151.05859375 C-89.47949604 158.06646255 -80.47899056 160.39955561 -68.875 159.625 C-58.47829451 157.84443215 -50.55420528 152.53292513 -44.43359375 144.0234375 C-31.27527864 123.77480221 -29.9265775 96.30510692 -34.375 73.0625 C-37.02821925 60.67173084 -42.26914215 47.26121765 -52.875 39.625 C-68.79504483 30.10183119 -88.47368809 30.94502187 -101.875 44.625 Z " fill="#568AC8" transform="translate(2159.875,499.375)"/>
<path d="M0 0 C1.73274534 1.51417716 3.44095928 3.05683364 5.125 4.625 C6.07117187 5.50285156 7.01734375 6.38070313 7.9921875 7.28515625 C26.71398884 25.09800971 36.24646718 48.44074298 40.125 73.625 C40.310625 74.81738281 40.49625 76.00976562 40.6875 77.23828125 C44.25775383 107.1048277 39.82549257 137.36322039 25.125 163.625 C24.56941406 164.62273437 24.01382812 165.62046875 23.44140625 166.6484375 C9.72958161 189.60012479 -13.40999904 204.93686079 -38.9375 211.74609375 C-72.40123219 219.56642247 -109.73587957 217.40671952 -139.71142578 199.52978516 C-164.36325338 184.07711474 -180.23261745 160.09009811 -187.1015625 132.0859375 C-195.30220078 95.39015208 -191.13264579 57.18927244 -171.875 24.625 C-169.72456226 21.44005323 -167.39205456 18.52555429 -164.875 15.625 C-164.23304687 14.83996094 -163.59109375 14.05492187 -162.9296875 13.24609375 C-145.074336 -7.80477268 -118.70153731 -19.34889645 -91.50610352 -22.17871094 C-59.36750179 -24.57635739 -26.0192606 -20.63087472 0 0 Z M-101.875 44.625 C-116.54575641 63.56625382 -118.60677372 88.65120276 -115.98071289 111.74291992 C-114.08948031 125.69021342 -109.59862383 141.2223347 -99.00390625 151.05859375 C-89.47949604 158.06646255 -80.47899056 160.39955561 -68.875 159.625 C-58.47829451 157.84443215 -50.55420528 152.53292513 -44.43359375 144.0234375 C-31.27527864 123.77480221 -29.9265775 96.30510692 -34.375 73.0625 C-37.02821925 60.67173084 -42.26914215 47.26121765 -52.875 39.625 C-68.79504483 30.10183119 -88.47368809 30.94502187 -101.875 44.625 Z " fill="#568AC8" transform="translate(1742.875,499.375)"/>
<path d="M0 0 C0.67160156 0.52851563 1.34320312 1.05703125 2.03515625 1.6015625 C23.99177943 19.32400586 32.64321768 48.14574144 36 75 C36 86.88 36 98.76 36 111 C-14.49 111 -64.98 111 -117 111 C-113.95732186 130.30045607 -113.95732186 130.30045607 -104 146 C-104 146.66 -104 147.32 -104 148 C-103.43152344 148.26941406 -102.86304687 148.53882813 -102.27734375 148.81640625 C-99.91459192 150.04438876 -97.78131565 151.46702015 -95.5625 152.9375 C-84.21625326 159.7519125 -71.11400082 160.38103295 -58.375 157.875 C-48.50326679 155.33621694 -40.83957141 150.42633116 -35 142 C-33.98697201 140.00656721 -32.98561809 138.00712655 -32 136 C-17.36145292 138.03305299 -2.76982767 140.28598343 11.8125 142.6875 C13.78837949 143.01126287 15.76429084 143.33483133 17.74023438 143.65820312 C22.49385756 144.43657581 27.24705 145.21752759 32 146 C33.31607886 149.94823657 32.06895039 152.26426261 30.5625 155.9375 C30.28954102 156.60555664 30.01658203 157.27361328 29.73535156 157.96191406 C20.4171489 179.86438595 2.44650746 194.79518725 -19 204 C-52.78836825 217.26238625 -94.08494829 217.0733447 -127.5 202.625 C-152.87054217 191.11802347 -170.44456685 171.50948436 -180.86767578 145.86523438 C-193.26541968 112.68794921 -192.71575829 71.11388332 -178.62109375 38.5546875 C-166.556643 12.10010875 -147.21476769 -7.39487056 -120 -18 C-80.97194454 -32.16270436 -31.99840418 -27.94869527 0 0 Z M-107.8125 43.3125 C-113.50364427 51.08512759 -115.10557029 58.52785147 -117 68 C-89.28 68 -61.56 68 -33 68 C-34.9722709 56.16637459 -37.74101776 44.67526847 -47.05078125 36.390625 C-66.46150363 22.5424944 -92.50132738 24.99088541 -107.8125 43.3125 Z " fill="#568AC8" transform="translate(3736,502)"/>
<path d="M0 0 C9.73821588 9.12493129 16.87313735 22.08154649 19.796875 35.10546875 C19.796875 36.42546875 19.796875 37.74546875 19.796875 39.10546875 C11.7662719 40.43508957 3.73444245 41.75692195 -4.29907703 43.0687952 C-8.02921185 43.6781778 -11.75886443 44.29024675 -15.48754883 44.90844727 C-19.0850862 45.50480287 -22.68371304 46.09411169 -26.28320885 46.67852592 C-27.65715489 46.90287455 -29.03068737 47.12977114 -30.40378761 47.35923958 C-32.32513049 47.67988436 -34.24810843 47.99068493 -36.17114258 48.30102539 C-37.26590408 48.48089493 -38.36066559 48.66076447 -39.48860168 48.84608459 C-42.203125 49.10546875 -42.203125 49.10546875 -45.203125 48.10546875 C-46.52734375 45.59375 -46.52734375 45.59375 -47.890625 42.41796875 C-52.14321729 33.60977392 -57.89230894 30.14658282 -66.90234375 26.8515625 C-77.75839087 23.3311805 -90.36254757 24.32383976 -100.6328125 29.27734375 C-104.91332579 31.81742856 -108.3869511 34.0808243 -109.734375 39.07421875 C-110.6283966 44.09449389 -110.27629659 47.89796545 -107.66796875 52.32421875 C-97.38427252 64.82919337 -70.1779936 65.43620037 -55.39575195 68.02734375 C-44.54454777 69.93869842 -33.82574241 71.98038811 -23.25390625 75.12109375 C-22.47018143 75.35259125 -21.6864566 75.58408875 -20.87898254 75.82260132 C-3.01374684 81.39025168 12.60007837 91.55123481 21.796875 108.10546875 C28.88964568 125.3867498 28.5167924 144.72985265 21.328125 161.94921875 C10.22102072 184.84345411 -9.53861918 196.87655467 -32.5078125 205.3203125 C-67.91314025 217.0190804 -112.42064522 215.72952845 -146.14892578 199.14892578 C-167.65562575 187.9311093 -181.48981869 170.46629597 -188.8203125 147.39453125 C-189.26903017 144.71138271 -188.78910158 142.74154419 -188.203125 140.10546875 C-179.91079507 138.79893671 -171.61808305 137.49486861 -163.32487011 136.19395447 C-159.47411897 135.58982719 -155.62350562 134.98484833 -151.77319336 134.37792969 C-148.05824309 133.79237993 -144.34294916 133.20905879 -140.62740517 132.62728882 C-139.20909438 132.40481089 -137.79090981 132.1815268 -136.37285423 131.95742798 C-134.38847127 131.64397139 -132.40359663 131.33363227 -130.41870117 131.0234375 C-129.28840988 130.84578857 -128.15811859 130.66813965 -126.99357605 130.48510742 C-124.203125 130.10546875 -124.203125 130.10546875 -121.203125 130.10546875 C-120.98398438 130.72292969 -120.76484375 131.34039063 -120.5390625 131.9765625 C-116.44203074 142.91863513 -111.34960945 151.21984987 -100.57421875 156.359375 C-93.40420526 159.04228748 -86.61427903 159.48305653 -79.015625 159.54296875 C-78.10151855 159.55312012 -77.18741211 159.56327148 -76.24560547 159.57373047 C-67.12007675 159.4570105 -57.95077672 157.66620491 -51.203125 151.10546875 C-48.62002824 147.5537107 -47.97244288 144.90192323 -48.203125 140.60546875 C-48.95224066 135.91363909 -50.65554341 133.3511285 -54.203125 130.10546875 C-67.81307012 121.53624404 -86.75884975 120.11121562 -102.29223633 117.18359375 C-112.69509404 115.21465406 -122.965418 113.07672537 -133.12109375 110.05859375 C-133.91887741 109.8229068 -134.71666107 109.58721985 -135.53862 109.34439087 C-153.38650239 103.82547793 -169.03859758 92.9020911 -178.015625 76.23046875 C-184.76456225 61.36456643 -186.20204066 41.39544281 -181.234375 25.6875 C-173.28748602 5.79017571 -159.54333002 -7.45777549 -140.11328125 -16.30078125 C-96.50508047 -33.98123843 -36.72415891 -31.58017211 0 0 Z " fill="#568AC8" transform="translate(3329.203125,502.89453125)"/>
<path d="M0 0 C85.47 0 170.94 0 259 0 C259 19.8 259 39.6 259 60 C228.31 60 197.62 60 166 60 C166 141.51 166 223.02 166 307 C141.91 307 117.82 307 93 307 C93 225.49 93 143.98 93 60 C62.31 60 31.62 60 0 60 C0 40.2 0 20.4 0 0 Z " fill="#568AC8" transform="translate(2196,403)"/>
<path d="M0 0 C1.09030518 0.2160791 1.09030518 0.2160791 2.20263672 0.43652344 C6.14925856 1.23179885 10.07953375 2.08479182 14 3 C11.3989793 16.34550555 8.68822363 29.66177842 5.75 42.9375 C5.49202637 44.10966064 5.23405273 45.28182129 4.96826172 46.48950195 C4.60498779 48.11698364 4.60498779 48.11698364 4.234375 49.77734375 C4.02006836 50.73890381 3.80576172 51.70046387 3.58496094 52.69116211 C3 55 3 55 2 57 C1.14019531 56.855625 0.28039063 56.71125 -0.60546875 56.5625 C-17.6546533 53.67982752 -17.6546533 53.67982752 -34 58 C-42.51931808 66.30087403 -40.40118444 76.02368876 -41 88 C-25.82 88 -10.64 88 5 88 C5 105.82 5 123.64 5 142 C-10.18 142 -25.36 142 -41 142 C-41 200.08 -41 258.16 -41 318 C-65.09 318 -89.18 318 -114 318 C-114 259.92 -114 201.84 -114 142 C-126.54 142 -139.08 142 -152 142 C-152 124.18 -152 106.36 -152 88 C-139.46 88 -126.92 88 -114 88 C-114.061875 84.926875 -114.12375 81.85375 -114.1875 78.6875 C-114.32853262 55.62143376 -109.55723465 34.55918959 -93.33984375 17.31640625 C-69.16821241 -6.61310524 -31.27815061 -6.23192927 0 0 Z " fill="#568AC8" transform="translate(3524,392)"/>
<path d="M0 0 C24.09 0 48.18 0 73 0 C73 18.15 73 36.3 73 55 C86.53 55 100.06 55 114 55 C114 72.82 114 90.64 114 109 C100.47 109 86.94 109 73 109 C73.06290228 123.49949663 73.13829909 137.99878029 73.23571491 152.49808693 C73.28064602 159.23064227 73.32006677 165.96314504 73.34643555 172.69580078 C73.37189681 179.19276737 73.41281972 185.68952987 73.46318626 192.18635178 C73.47987545 194.66543034 73.49137691 197.14454941 73.49761391 199.6236763 C73.50723234 203.09523329 73.53526606 206.56618852 73.56762695 210.03759766 C73.56619186 211.06330872 73.56475677 212.08901978 73.5632782 213.14581299 C73.63404352 218.51118843 73.96354707 222.37479296 77 227 C82.83022313 232.4540797 90.52341189 231.2099258 98 231 C102.34052647 230.73721238 106.66978248 230.39687755 111 230 C113.57363512 242.55838619 116.08825219 255.12442389 118.3125 267.75 C118.48362305 268.70656494 118.65474609 269.66312988 118.83105469 270.64868164 C118.98606445 271.54321045 119.14107422 272.43773926 119.30078125 273.359375 C119.43653564 274.13764648 119.57229004 274.91591797 119.7121582 275.71777344 C120.02107563 278.16710349 120.04876742 280.53383961 120 283 C91.18560887 291.18726148 56.36607585 293.74043182 29.01171875 279.4375 C12.96059632 269.84678784 5.49947381 256.58559284 1 239 C-0.1815978 232.63738263 -0.13416379 226.37213137 -0.11352539 219.91430664 C-0.11367142 218.71359528 -0.11381744 217.51288391 -0.1139679 216.27578735 C-0.11339275 213.00149561 -0.10839536 209.72724722 -0.10139394 206.45296407 C-0.09512066 203.02434431 -0.09455346 199.59572361 -0.09336853 196.167099 C-0.0902669 189.68266037 -0.08206932 183.1982387 -0.07201904 176.71380752 C-0.06082155 169.32805652 -0.0553383 161.94230467 -0.05032361 154.55654728 C-0.03988568 139.37102053 -0.02155479 124.1855158 0 109 C-9.9 109 -19.8 109 -30 109 C-30 91.18 -30 73.36 -30 55 C-20.1 55 -10.2 55 0 55 C0 36.85 0 18.7 0 0 Z " fill="#568AC8" transform="translate(1832,425)"/>
<path d="M0 0 C0 21.12 0 42.24 0 64 C-6.6 63.01 -13.2 62.02 -20 61 C-34.27083385 60.33105466 -45.13707076 61.7990101 -57 70 C-57.9075 70.598125 -58.815 71.19625 -59.75 71.8125 C-66.91289769 78.77642831 -72.59654249 89.47897109 -73.1386652 99.58491898 C-73.14511775 100.56939388 -73.1515703 101.55386879 -73.15821838 102.56817627 C-73.1680072 103.70117157 -73.17779602 104.83416687 -73.18788147 106.00149536 C-73.19363693 107.24011322 -73.1993924 108.47873108 -73.20532227 109.75488281 C-73.21522186 111.06244537 -73.22512146 112.37000793 -73.23532104 113.7171936 C-73.26233276 117.29946764 -73.2833625 120.8817548 -73.30332303 124.46407413 C-73.32520564 128.20904488 -73.35258319 131.95397534 -73.37937927 135.69891357 C-73.42927541 142.78903496 -73.47422565 149.87917875 -73.51740164 156.9693439 C-73.57603724 166.5513149 -73.64230757 176.13323289 -73.70815182 185.71515656 C-73.81167833 200.81006865 -73.9049995 215.90502627 -74 231 C-98.09 231 -122.18 231 -147 231 C-147 155.1 -147 79.2 -147 1 C-123.57 1 -100.14 1 -76 1 C-75.505 21.295 -75.505 21.295 -75 42 C-73.35 37.38 -71.7 32.76 -70 28 C-62.36463039 14.34443513 -52.61607524 4.6688905 -37.625 -0.375 C-25.11689207 -3.65940471 -12.55259675 -2.51051935 0 0 Z " fill="#568AC8" transform="translate(3956,479)"/>
<path d="M0 0 C0 21.12 0 42.24 0 64 C-6.6 63.01 -13.2 62.02 -20 61 C-34.27083385 60.33105466 -45.13707076 61.7990101 -57 70 C-57.9075 70.598125 -58.815 71.19625 -59.75 71.8125 C-66.91289769 78.77642831 -72.59654249 89.47897109 -73.1386652 99.58491898 C-73.14511775 100.56939388 -73.1515703 101.55386879 -73.15821838 102.56817627 C-73.1680072 103.70117157 -73.17779602 104.83416687 -73.18788147 106.00149536 C-73.19363693 107.24011322 -73.1993924 108.47873108 -73.20532227 109.75488281 C-73.21522186 111.06244537 -73.22512146 112.37000793 -73.23532104 113.7171936 C-73.26233276 117.29946764 -73.2833625 120.8817548 -73.30332303 124.46407413 C-73.32520564 128.20904488 -73.35258319 131.95397534 -73.37937927 135.69891357 C-73.42927541 142.78903496 -73.47422565 149.87917875 -73.51740164 156.9693439 C-73.57603724 166.5513149 -73.64230757 176.13323289 -73.70815182 185.71515656 C-73.81167833 200.81006865 -73.9049995 215.90502627 -74 231 C-98.09 231 -122.18 231 -147 231 C-147 155.1 -147 79.2 -147 1 C-123.57 1 -100.14 1 -76 1 C-75.505 21.295 -75.505 21.295 -75 42 C-73.35 37.38 -71.7 32.76 -70 28 C-62.36463039 14.34443513 -52.61607524 4.6688905 -37.625 -0.375 C-25.11689207 -3.65940471 -12.55259675 -2.51051935 0 0 Z " fill="#568AC8" transform="translate(2614,479)"/>
</svg>
