<?xml version="1.0" encoding="UTF-8"?>
<svg version="1.1" xmlns="http://www.w3.org/2000/svg" width="3971" height="1149">
<path d="M0 0 C2 2 2 2 2.125 4.25 C0.62029054 7.92817869 -1.62662992 9.11682723 -4.828125 11.34765625 C-7.68266491 13.51936557 -9.79440394 16.05540562 -12.0859375 18.796875 C-14.28040525 21.32275217 -16.61623721 23.65224571 -19 26 C-21.93118191 28.89591958 -24.76403174 31.80242571 -27.4375 34.9375 C-30.30172355 38.28925096 -33.36334093 41.40556417 -36.5 44.5 C-39.61579123 47.57390527 -42.65877238 50.66702145 -45.5 54 C-48.34122821 57.33297924 -51.38421996 60.42608465 -54.5 63.5 C-57.57404135 66.53284817 -60.57999199 69.57939354 -63.375 72.875 C-66.56129433 76.61543247 -70.00880254 80.04803498 -73.5 83.5 C-76.92845382 86.89005591 -80.32260763 90.25194033 -83.4375 93.9375 C-86.74572678 97.84270003 -90.3651399 101.40280684 -94 105 C-99.38538412 110.31201452 -99.38538412 110.31201452 -104.4375 115.9375 C-108.46046703 120.70126914 -112.95961905 125.00902889 -117.40795898 129.37084961 C-120.5548603 132.47509776 -123.58328423 135.61873079 -126.46875 138.96875 C-130.73139913 143.91227222 -135.38200168 148.4321549 -140.0390625 153 C-143.29629978 156.21950866 -146.45170806 159.46324901 -149.4375 162.9375 C-154.10086745 168.35165903 -159.23626574 173.28263712 -164.328125 178.2890625 C-167.82054373 181.7458443 -171.23804242 185.2060483 -174.4375 188.9375 C-179.48788651 194.81410182 -185.10103744 200.14430553 -190.6171875 205.578125 C-194.35499957 209.28185368 -198.0447487 212.97071306 -201.46875 216.96875 C-206.69884851 223.06849018 -212.54415017 228.58595852 -218.26171875 234.22265625 C-222.09607513 238.02381474 -225.90021255 241.79747972 -229.40625 245.90625 C-234.7550438 252.15177192 -240.75475931 257.80908598 -246.60253906 263.58203125 C-253.74256639 270.57954703 -253.74256639 270.57954703 -260.46875 277.96875 C-265.95978152 284.40376031 -272.16094652 290.2140623 -278.17529297 296.15478516 C-285.50734159 303.32607783 -285.50734159 303.32607783 -292.40625 310.90625 C-298.43441103 317.97958669 -305.29162852 324.34262172 -311.89355469 330.87304688 C-319.90355718 338.68088422 -319.90355718 338.68088422 -327.4375 346.9375 C-333.78739968 354.4173317 -341.07207501 361.12163748 -348.0390625 368.01855469 C-350.02816103 369.98941341 -352.01412897 371.96339005 -354 373.9375 C-354.8971875 374.82223999 -354.8971875 374.82223999 -355.8125 375.72485352 C-358.81999965 378.71515067 -361.70020696 381.7622882 -364.47265625 384.97265625 C-367.95455276 389.00062809 -371.64962067 392.76109162 -375.4375 396.5 C-376.46315063 397.5199707 -376.46315063 397.5199707 -377.50952148 398.56054688 C-380.39737773 401.43225143 -383.29123075 404.29788438 -386.18457031 407.1640625 C-388.31265725 409.27392787 -390.43762917 411.38689645 -392.5625 413.5 C-393.20437256 414.13357422 -393.84624512 414.76714844 -394.50756836 415.41992188 C-397.62106677 418.51676622 -400.61632893 421.66156772 -403.48632812 424.98632812 C-407.02942124 429.08883086 -410.80063283 432.91133682 -414.65625 436.71875 C-415.7151947 437.77201477 -415.7151947 437.77201477 -416.79553223 438.84655762 C-419.77897375 441.81383766 -422.7684071 444.77505363 -425.75732422 447.73681641 C-427.95490579 449.91618465 -430.14937938 452.09864947 -432.34375 454.28125 C-433.00749634 454.936698 -433.67124268 455.592146 -434.35510254 456.26745605 C-437.52382848 459.41976476 -440.57880382 462.61599534 -443.5 466 C-447.0379547 470.09847694 -450.80519275 473.91583973 -454.65625 477.71875 C-455.7151947 478.77201477 -455.7151947 478.77201477 -456.79553223 479.84655762 C-459.77897375 482.81383766 -462.7684071 485.77505363 -465.75732422 488.73681641 C-467.95490579 490.91618465 -470.14937938 493.09864947 -472.34375 495.28125 C-473.00749634 495.936698 -473.67124268 496.592146 -474.35510254 497.26745605 C-477.52382848 500.41976476 -480.57880382 503.61599534 -483.5 507 C-487.0379547 511.09847694 -490.80519275 514.91583973 -494.65625 518.71875 C-495.36221313 519.42092651 -496.06817627 520.12310303 -496.79553223 520.84655762 C-499.77897375 523.81383766 -502.7684071 526.77505363 -505.75732422 529.73681641 C-507.95490579 531.91618465 -510.14937938 534.09864947 -512.34375 536.28125 C-513.00749634 536.936698 -513.67124268 537.592146 -514.35510254 538.26745605 C-518.16573044 542.05834102 -521.75192689 545.97056645 -525.2635498 550.03869629 C-528.11255347 553.25661839 -531.16037899 556.26381359 -534.21875 559.28125 C-534.88032104 559.93903442 -535.54189209 560.59681885 -536.22351074 561.27453613 C-539.01578144 564.05066558 -541.81405416 566.82071537 -544.61181641 569.59130859 C-546.67040898 571.6316708 -548.72587903 573.67514331 -550.78125 575.71875 C-551.40124878 576.33045044 -552.02124756 576.94215088 -552.66003418 577.5723877 C-556.36793855 581.25979398 -559.84342903 585.08051071 -563.26159668 589.03674316 C-566.04334129 592.17829211 -569.01330552 595.11724269 -572 598.0625 C-572.639375 598.69808838 -573.27875 599.33367676 -573.9375 599.98852539 C-576.63418483 602.66908015 -579.3368773 605.34354664 -582.0390625 608.01855469 C-591.36061358 617.19898365 -591.36061358 617.19898365 -600.125 626.90234375 C-605.55355434 632.97553892 -611.53045209 638.5751614 -617.32080078 644.30029297 C-625.98299133 652.86625972 -625.98299133 652.86625972 -634.13476562 661.91210938 C-639.19864671 667.58047469 -644.76899594 672.81466838 -650.17529297 678.15478516 C-655.68573833 683.60380578 -661.13164877 689.03680032 -666.16210938 694.93945312 C-670.8552129 700.20111542 -676.01214679 705.05890384 -681.02978516 710.00927734 C-686.26702358 715.1826265 -691.4040272 720.36560807 -696.18945312 725.96679688 C-700.94101217 731.30269004 -706.17588724 736.20876012 -711.26171875 741.22265625 C-715.75090507 745.67297515 -720.07462624 750.16277196 -724.18554688 754.96289062 C-728.73797641 760.07396059 -733.74324674 764.77692963 -738.6171875 769.578125 C-743.01317858 773.93403106 -747.23412001 778.34176936 -751.26171875 783.0390625 C-755.17602419 787.45475088 -759.47560834 791.51182286 -763.68359375 795.64453125 C-767.7182249 799.63538702 -771.53971738 803.71652009 -775.24023438 808.01757812 C-778.96391909 812.21240607 -783.03655539 816.07416927 -787.0390625 820 C-790.95556207 823.87113471 -794.64778854 827.84618575 -798.24072266 832.01806641 C-801.23686882 835.39340842 -804.46503143 838.53006612 -807.6875 841.6875 C-808.98549829 842.95976988 -810.28113586 844.23445338 -811.57421875 845.51171875 C-812.41859497 846.33869263 -812.41859497 846.33869263 -813.2800293 847.18237305 C-815.3305821 849.34935184 -817.16209498 851.65155184 -819 854 C-810.89816166 849.35591372 -802.96859669 844.50416335 -795.125 839.4375 C-792.92334221 838.02187857 -790.72151612 836.60651886 -788.51953125 835.19140625 C-787.42592285 834.48773926 -786.33231445 833.78407227 -785.20556641 833.05908203 C-780.41708382 829.98322048 -775.6156877 826.92782944 -770.8125 823.875 C-769.91740723 823.30579834 -769.02231445 822.73659668 -768.10009766 822.15014648 C-766.30068973 821.0059101 -764.5012109 819.86178521 -762.70166016 818.71777344 C-758.13353943 815.81326436 -753.56684923 812.90650771 -749 810 C-747.16667337 808.8333228 -745.33334004 807.66665613 -743.5 806.5 C-742.13875 805.63375 -742.13875 805.63375 -740.75 804.75 C-648.625 746.125 -648.625 746.125 -556.5 687.5 C-555.5922583 686.92233887 -554.6845166 686.34467773 -553.74926758 685.74951172 C-551.91840247 684.58443052 -550.0875106 683.41939136 -548.2565918 682.25439453 C-543.63527287 679.31381679 -539.0144408 676.37247908 -534.39453125 673.4296875 C-524.99976771 667.44643027 -515.5968409 661.47672124 -506.17626953 655.53417969 C-497.3678361 649.97501424 -488.58344039 644.37816293 -479.79833984 638.78222656 C-475.19976238 635.85345187 -470.59981973 632.92682309 -466 630 C-464.16665996 628.83334387 -462.33332663 627.6666772 -460.5 626.5 C-427.5 605.5 -394.5 584.5 -361.5 563.5 C-360.5917749 562.9220166 -359.6835498 562.3440332 -358.74780273 561.74853516 C-356.9218741 560.58662482 -355.0958655 559.42484013 -353.26977539 558.26318359 C-348.57247299 555.27479176 -343.87675108 552.28396049 -339.18359375 549.2890625 C-329.50268964 543.11424202 -319.81366914 536.96226691 -310 531 C-306.38086957 535.28491386 -303.45686358 539.87631771 -300.5 544.625 C-299.42454431 546.3398846 -298.34902165 548.05472721 -297.2734375 549.76953125 C-296.45504395 551.07784912 -296.45504395 551.07784912 -295.62011719 552.41259766 C-293.13223409 556.38586244 -290.62905857 560.34941668 -288.125 564.3125 C-287.39120117 565.47483154 -287.39120117 565.47483154 -286.64257812 566.66064453 C-282.77555765 572.78259318 -278.88992398 578.89258515 -275 585 C-268.15128137 595.7529006 -261.34153666 606.53005331 -254.54101562 617.31347656 C-248.71255388 626.55419528 -242.86915989 635.7850656 -237 645 C-230.15128137 655.7529006 -223.34153666 666.53005331 -216.54101562 677.31347656 C-210.71255388 686.55419528 -204.86915989 695.7850656 -199 705 C-192.15128137 715.7529006 -185.34153666 726.53005331 -178.54101562 737.31347656 C-172.71255388 746.55419528 -166.86915989 755.7850656 -161 765 C-154.15128137 775.7529006 -147.34153666 786.53005331 -140.54101562 797.31347656 C-134.71255388 806.55419528 -128.86915989 815.7850656 -123 825 C-116.15128137 835.7529006 -109.34153666 846.53005331 -102.54101562 857.31347656 C-96.71255388 866.55419528 -90.86915989 875.7850656 -85 885 C-79.13367474 894.21048386 -73.29326982 903.43699003 -67.46777344 912.67333984 C-64.48270091 917.40516638 -61.49417502 922.13481301 -58.50610352 926.86474609 C-55.96720279 930.88401551 -53.42963523 934.90411582 -50.89453125 938.92578125 C-50.3830957 939.73668213 -49.87166016 940.54758301 -49.34472656 941.38305664 C-48.33450847 942.98482214 -47.32473255 944.58686662 -46.31542969 946.18920898 C-43.98259552 949.88674337 -41.63554789 953.57312851 -39.24609375 957.234375 C-38.82287842 957.8843042 -38.39966309 958.5342334 -37.96362305 959.20385742 C-37.17618283 960.40980841 -36.38489877 961.61326154 -35.58911133 962.8137207 C-33 966.77956727 -33 966.77956727 -33 969 C-42.60772375 966.5630148 -51.95958812 963.43844959 -61.3515625 960.29296875 C-63.0535865 959.72522801 -64.75568585 959.15771309 -66.45785522 958.59040833 C-70.03405035 957.39782326 -73.60956948 956.20324042 -77.18457031 955.00708008 C-81.62848555 953.52024317 -86.07362713 952.03711949 -90.51928139 950.55549145 C-94.05046514 949.37833641 -97.58111166 948.19957629 -101.11161423 947.02038002 C-102.74110555 946.47619788 -104.37069603 945.93231252 -106.0004158 945.38881493 C-115.05818327 942.36656998 -124.10429297 939.31149607 -133.13555908 936.21096802 C-163.78280722 925.69428052 -194.52100632 915.45391011 -225.26395344 905.22142344 C-233.14142267 902.59937652 -241.01819382 899.97523534 -248.89491767 897.3509503 C-262.9860663 892.65623557 -277.07758873 887.962644 -291.16943359 883.27001953 C-292.0057622 882.99151927 -292.84209081 882.713019 -293.70376271 882.42607933 C-299.63583153 880.4506887 -305.56791416 878.47533951 -311.5 876.5 C-318.276865 874.24335545 -325.05372374 871.98669208 -331.83056641 869.72998047 C-332.66582893 869.45183567 -333.50109145 869.17369087 -334.36166495 868.88711745 C-348.41523224 864.20719708 -362.46838817 859.5260426 -376.52126551 854.84405088 C-384.35593158 852.23383632 -392.19080743 849.62425497 -400.02622986 847.01631165 C-431.3579521 836.58766959 -462.68268125 826.14424664 -493.90989876 815.4055233 C-498.19173645 813.93330278 -502.47560097 812.46704198 -506.76005554 811.00245667 C-507.40779916 810.78094671 -508.05554278 810.55943675 -508.72291499 810.33121437 C-514.18318865 808.46526409 -519.64885998 806.6156167 -525.11645508 804.77124023 C-527.56153407 803.94362103 -530.0048149 803.11067562 -532.4465332 802.27319336 C-536.08908258 801.02485223 -539.73707551 799.79382721 -543.38671875 798.56640625 C-544.47393723 798.18956192 -545.5611557 797.81271759 -546.68132019 797.42445374 C-552.95077595 795.3399155 -557.12448327 794.23591056 -563.34814453 797.06884766 C-564.10208496 797.51276855 -564.85602539 797.95668945 -565.6328125 798.4140625 C-566.94378906 799.17299805 -566.94378906 799.17299805 -568.28125 799.94726562 C-569.2196875 800.50091797 -570.158125 801.05457031 -571.125 801.625 C-579.99712649 806.75455633 -588.94716108 811.69701692 -598 816.5 C-606.56632897 821.05300108 -615.07505917 825.68924098 -623.5 830.5 C-632.03074601 835.37030235 -640.64432331 840.06803154 -649.3125 844.6875 C-659.06686957 849.88677763 -668.76903398 855.16461722 -678.41650391 860.55957031 C-683.97712093 863.65989544 -689.55129066 866.73579443 -695.125 869.8125 C-695.74693237 870.15588409 -696.36886475 870.49926819 -697.00964355 870.85305786 C-706.54261392 876.11447549 -716.10482839 881.31963897 -725.68530273 886.49414062 C-732.08331202 889.95281433 -738.45611596 893.45274588 -744.80810547 896.99511719 C-753.04182331 901.58654459 -761.29849175 906.13627264 -769.55419922 910.68798828 C-770.81738282 911.38444009 -772.08056641 912.08089191 -773.34375 912.77734375 C-773.97532013 913.12553162 -774.60689026 913.47371948 -775.25759888 913.8324585 C-779.66299483 916.26157652 -784.06630817 918.69443918 -788.46875 921.12890625 C-790.91651072 922.48205315 -793.36443715 923.83489977 -795.8125 925.1875 C-796.41569061 925.52079315 -797.01888123 925.8540863 -797.64035034 926.19747925 C-805.86165394 930.73822338 -814.10741838 935.23145948 -822.375 939.6875 C-830.05354556 943.82609732 -837.67150897 948.05605384 -845.25 952.375 C-853.86573123 957.2833288 -862.56277619 962.02393716 -871.3125 966.6875 C-881.06679021 971.88692916 -890.76903123 977.16461568 -900.41650391 982.55957031 C-905.97712093 985.65989544 -911.55129066 988.73579443 -917.125 991.8125 C-917.74693237 992.15588409 -918.36886475 992.49926819 -919.00964355 992.85305786 C-928.54261392 998.11447549 -938.10482839 1003.31963897 -947.68530273 1008.49414062 C-954.08331202 1011.95281433 -960.45611596 1015.45274588 -966.80810547 1018.99511719 C-975.04182331 1023.58654459 -983.29849175 1028.13627264 -991.55419922 1032.68798828 C-992.81738282 1033.38444009 -994.08056641 1034.08089191 -995.34375 1034.77734375 C-995.97532013 1035.12553162 -996.60689026 1035.47371948 -997.25759888 1035.8324585 C-1001.66299483 1038.26157652 -1006.06630817 1040.69443918 -1010.46875 1043.12890625 C-1012.91651072 1044.48205315 -1015.36443715 1045.83489977 -1017.8125 1047.1875 C-1018.41569061 1047.52079315 -1019.01888123 1047.8540863 -1019.64035034 1048.19747925 C-1027.86165394 1052.73822338 -1036.10741838 1057.23145948 -1044.375 1061.6875 C-1052.05354556 1065.82609732 -1059.67150897 1070.05605384 -1067.25 1074.375 C-1075.86573123 1079.2833288 -1084.56277619 1084.02393716 -1093.3125 1088.6875 C-1102.29021926 1093.4729856 -1111.23476199 1098.30602136 -1120.11328125 1103.2734375 C-1124.06069662 1105.48127068 -1128.01905869 1107.66897011 -1131.98046875 1109.8515625 C-1132.60186737 1110.19399994 -1133.22326599 1110.53643738 -1133.86349487 1110.88925171 C-1137.04857877 1112.64410862 -1140.23439516 1114.39762423 -1143.42089844 1116.14990234 C-1148.75127488 1119.08383914 -1154.07544706 1122.02465941 -1159.34765625 1125.0625 C-1160.09901855 1125.49425537 -1160.85038086 1125.92601074 -1161.62451172 1126.37084961 C-1162.95709522 1127.140594 -1164.28586131 1127.91700286 -1165.60986328 1128.70141602 C-1167.04031267 1129.52745877 -1168.51611954 1130.27430664 -1170 1131 C-1170.66 1130.67 -1171.32 1130.34 -1172 1130 C-1171.50113281 1129.3915625 -1171.00226563 1128.783125 -1170.48828125 1128.15625 C-1167.98983701 1125.10608468 -1165.49435613 1122.05350833 -1163 1119 C-1162.49678223 1118.38431152 -1161.99356445 1117.76862305 -1161.47509766 1117.13427734 C-1155.7102637 1110.07649638 -1149.97517216 1103.00191021 -1144.375 1095.8125 C-1140.41129866 1090.72644232 -1136.31010108 1085.78366342 -1132.11791992 1080.88500977 C-1128.40191135 1076.52325347 -1124.8596838 1072.04320204 -1121.3425293 1067.52050781 C-1116.99001751 1061.94277049 -1112.49210343 1056.49005972 -1107.98339844 1051.03833008 C-1104.31671969 1046.60346698 -1100.68923025 1042.14213487 -1097.109375 1037.63671875 C-1094.32474382 1034.15592977 -1091.50431373 1030.70475954 -1088.6875 1027.25 C-1084.52744642 1022.14624997 -1080.42027374 1017.00762144 -1076.375 1011.8125 C-1072.4113986 1006.72636771 -1068.31009715 1001.78365884 -1064.11791992 996.88500977 C-1060.39953824 992.52046797 -1056.85494744 988.03761304 -1053.3359375 983.51171875 C-1049.0595134 978.03066814 -1044.63406491 972.6788715 -1040.19873047 967.32617188 C-1036.50067325 962.85240482 -1032.87521363 958.33210279 -1029.3125 953.75 C-1025.37123892 948.68266433 -1021.29136571 943.76168766 -1017.11767578 938.88476562 C-1013.40179871 934.52304939 -1009.85961347 930.0431116 -1006.3425293 925.52050781 C-1001.99001751 919.94277049 -997.49210343 914.49005972 -992.98339844 909.03833008 C-989.31671969 904.60346698 -985.68923025 900.14213487 -982.109375 895.63671875 C-979.32474382 892.15592977 -976.50431373 888.70475954 -973.6875 885.25 C-969.52744642 880.14624997 -965.42027374 875.00762144 -961.375 869.8125 C-957.4113986 864.72636771 -953.31009715 859.78365884 -949.11791992 854.88500977 C-945.39953824 850.52046797 -941.85494744 846.03761304 -938.3359375 841.51171875 C-934.0595134 836.03066814 -929.63406491 830.6788715 -925.19873047 825.32617188 C-921.50067325 820.85240482 -917.87521363 816.33210279 -914.3125 811.75 C-910.37123892 806.68266433 -906.29136571 801.76168766 -902.11767578 796.88476562 C-898.40179871 792.52304939 -894.85961347 788.0431116 -891.3425293 783.52050781 C-886.99001751 777.94277049 -882.49210343 772.49005972 -877.98339844 767.03833008 C-874.31671969 762.60346698 -870.68923025 758.14213487 -867.109375 753.63671875 C-864.32474382 750.15592977 -861.50431373 746.70475954 -858.6875 743.25 C-854.52744642 738.14624997 -850.42027374 733.00762144 -846.375 727.8125 C-842.4113986 722.72636771 -838.31009715 717.78365884 -834.11791992 712.88500977 C-830.39953824 708.52046797 -826.85494744 704.03761304 -823.3359375 699.51171875 C-819.0595134 694.03066814 -814.63406491 688.6788715 -810.19873047 683.32617188 C-806.50067325 678.85240482 -802.87521363 674.33210279 -799.3125 669.75 C-795.37123892 664.68266433 -791.29136571 659.76168766 -787.11767578 654.88476562 C-783.40179871 650.52304939 -779.85961347 646.0431116 -776.3425293 641.52050781 C-771.99001751 635.94277049 -767.49210343 630.49005972 -762.98339844 625.03833008 C-759.31671969 620.60346698 -755.68923025 616.14213487 -752.109375 611.63671875 C-749.32474382 608.15592977 -746.50431373 604.70475954 -743.6875 601.25 C-739.52744642 596.14624997 -735.42027374 591.00762144 -731.375 585.8125 C-727.4113986 580.72636771 -723.31009715 575.78365884 -719.11791992 570.88500977 C-715.40191135 566.52325347 -711.8596838 562.04320204 -708.3425293 557.52050781 C-703.99001751 551.94277049 -699.49210343 546.49005972 -694.98339844 541.03833008 C-691.31439263 536.60065239 -687.68559933 532.13564193 -684.1015625 527.62890625 C-681.3570997 524.19577714 -678.58541674 520.78516332 -675.8125 517.375 C-675.25828369 516.6931665 -674.70406738 516.01133301 -674.13305664 515.30883789 C-671.31165795 511.83893498 -668.48754343 508.37127492 -665.66015625 504.90625 C-660.50707333 498.58530797 -655.38717021 492.24595156 -650.375 485.8125 C-646.41125249 480.726478 -642.31010256 475.78366515 -638.11791992 470.88500977 C-634.40191135 466.52325347 -630.8596838 462.04320204 -627.3425293 457.52050781 C-622.99001751 451.94277049 -618.49210343 446.49005972 -613.98339844 441.03833008 C-610.31671969 436.60346698 -606.68923025 432.14213487 -603.109375 427.63671875 C-600.32474382 424.15592977 -597.50431373 420.70475954 -594.6875 417.25 C-590.52744642 412.14624997 -586.42027374 407.00762144 -582.375 401.8125 C-578.4113986 396.72636771 -574.31009715 391.78365884 -570.11791992 386.88500977 C-566.39953824 382.52046797 -562.85494744 378.03761304 -559.3359375 373.51171875 C-555.0595134 368.03066814 -550.63406491 362.6788715 -546.19873047 357.32617188 C-542.50067325 352.85240482 -538.87521363 348.33210279 -535.3125 343.75 C-531.37123892 338.68266433 -527.29136571 333.76168766 -523.11767578 328.88476562 C-519.40179871 324.52304939 -515.85961347 320.0431116 -512.3425293 315.52050781 C-507.99001751 309.94277049 -503.49210343 304.49005972 -498.98339844 299.03833008 C-495.33150323 294.62134773 -491.71835634 290.17818358 -488.15234375 285.69140625 C-483.14310183 279.42758105 -478.06329638 273.2201576 -473 267 C-475.77075248 268.3134881 -478.21979592 269.77552964 -480.6953125 271.58203125 C-481.40179932 272.09515869 -482.10828613 272.60828613 -482.83618164 273.13696289 C-483.5914917 273.68989014 -484.34680176 274.24281738 -485.125 274.8125 C-486.75126969 275.99483622 -488.3775727 277.17712661 -490.00390625 278.359375 C-491.24938232 279.26719727 -491.24938232 279.26719727 -492.52001953 280.19335938 C-496.36128954 282.99168562 -500.21078476 285.77857448 -504.0625 288.5625 C-505.17733765 289.3683252 -505.17733765 289.3683252 -506.31469727 290.19042969 C-514.86121915 296.35781227 -523.48261721 302.41817405 -532.10449219 308.47949219 C-540.86878716 314.6433473 -549.59275544 320.85741881 -558.26928711 327.14428711 C-564.01573517 331.30294164 -569.80302685 335.40045858 -575.60546875 339.48046875 C-580.7656672 343.11454566 -585.8892894 346.79671401 -591 350.5 C-597.50058483 355.21040657 -604.0386388 359.86297608 -610.60546875 364.48046875 C-615.7656672 368.11454566 -620.8892894 371.79671401 -626 375.5 C-632.50058483 380.21040657 -639.0386388 384.86297608 -645.60546875 389.48046875 C-650.7656672 393.11454566 -655.8892894 396.79671401 -661 400.5 C-667.50058483 405.21040657 -674.0386388 409.86297608 -680.60546875 414.48046875 C-685.7656672 418.11454566 -690.8892894 421.79671401 -696 425.5 C-702.50058483 430.21040657 -709.0386388 434.86297608 -715.60546875 439.48046875 C-720.7656672 443.11454566 -725.8892894 446.79671401 -731 450.5 C-737.50272086 455.21195436 -744.04271791 459.86635191 -750.61206055 464.48486328 C-755.70904329 468.07395681 -760.76681434 471.71423156 -765.8125 475.375 C-772.9971426 480.58542777 -780.25087487 485.68980941 -787.53173828 490.76464844 C-793.87597153 495.19417512 -800.15913413 499.70232196 -806.421875 504.24609375 C-811.42098265 507.86978554 -816.449049 511.44897885 -821.5 515 C-827.36491143 519.12386145 -833.19433732 523.29314288 -839 527.5 C-845.50058483 532.21040657 -852.0386388 536.86297608 -858.60546875 541.48046875 C-863.7656672 545.11454566 -868.8892894 548.79671401 -874 552.5 C-880.50058483 557.21040657 -887.0386388 561.86297608 -893.60546875 566.48046875 C-898.7656672 570.11454566 -903.8892894 573.79671401 -909 577.5 C-915.50058483 582.21040657 -922.0386388 586.86297608 -928.60546875 591.48046875 C-933.76566777 595.11454607 -938.88926253 598.79675039 -944 602.5 C-950.58519141 607.27106362 -957.19552351 612.00347623 -963.86035156 616.6628418 C-967.28266304 619.05902298 -970.66865102 621.48630329 -974 624.0078125 C-974.94987793 624.71707886 -974.94987793 624.71707886 -975.91894531 625.44067383 C-977.10479855 626.32911507 -978.28194263 627.22935153 -979.44824219 628.14331055 C-983.38948739 631.07396463 -983.38948739 631.07396463 -986.37902832 630.71177673 C-988.94496147 630.0149468 -991.39867869 629.21132207 -993.88867188 628.27954102 C-994.84963776 627.92201248 -995.81060364 627.56448395 -996.8006897 627.19612122 C-997.8461496 626.80269028 -998.8916095 626.40925934 -999.96875 626.00390625 C-1001.63881607 625.38046577 -1001.63881607 625.38046577 -1003.34262085 624.74443054 C-1006.41548295 623.59627544 -1009.48701019 622.44463326 -1012.55794525 621.29133606 C-1015.17926357 620.30757836 -1017.8016318 619.32663637 -1020.42400169 618.34568596 C-1029.61928394 614.90585876 -1038.81025859 611.45459859 -1048 608 C-1048.70112411 607.73644463 -1049.40224823 607.47288925 -1050.12461853 607.20134735 C-1070.22089476 599.64646617 -1090.30928614 592.07069464 -1110.39638233 584.4914465 C-1123.47914105 579.55520521 -1136.56321948 574.6224633 -1149.64774323 569.69090271 C-1151.09173441 569.14665851 -1152.53571939 568.60239783 -1153.97969818 568.05812073 C-1176.60879367 559.5286195 -1199.24786157 551.0260268 -1221.89370728 542.54110718 C-1251.01301189 531.63041624 -1280.11177431 520.66531789 -1309.20727539 509.69132996 C-1315.13613989 507.45539775 -1321.06592103 505.22205857 -1327 503 C-1325.69294823 498.9699237 -1324.58525823 497.23433208 -1321 495 C-1318.00891096 493.68570458 -1314.94952197 492.57818851 -1311.87890625 491.46484375 C-1310.94204483 491.11877075 -1310.00518341 490.77269775 -1309.03993225 490.4161377 C-1306.97950852 489.65568445 -1304.91798569 488.89820436 -1302.85552979 488.14328003 C-1297.07422729 486.02639086 -1291.30155972 483.88612572 -1285.52734375 481.75 C-1284.27141513 481.28605418 -1283.01547422 480.82214163 -1281.75952148 480.35826111 C-1267.41464242 475.05709847 -1253.10675684 469.65808383 -1238.79893112 464.25789261 C-1235.13449343 462.87501641 -1231.46969484 461.49309728 -1227.80493164 460.11108398 C-1222.58853008 458.14383271 -1217.37225153 456.17625587 -1212.15611553 454.20830059 C-1202.66483796 450.62745557 -1193.17254136 447.04932025 -1183.6796875 443.47265625 C-1182.97022099 443.20534636 -1182.26075447 442.93803646 -1181.52978897 442.66262627 C-1177.95133056 441.31436456 -1174.37285535 439.96614743 -1170.79437256 438.61795044 C-1164.33194716 436.1832007 -1157.86967127 433.74805419 -1151.40738297 431.3129406 C-1147.81326133 429.9586111 -1144.21913019 428.60430681 -1140.625 427.25 C-1139.18749995 426.70833345 -1137.74999995 426.16666679 -1136.3125 425.625 C-1087.4375 407.20833333 -1038.5625 388.79166667 -989.6875 370.375 C-988.62014256 369.97280731 -988.62014256 369.97280731 -987.53122234 369.56248951 C-986.09381459 369.02085765 -984.65640678 368.47922595 -983.21899891 367.93759441 C-979.623837 366.58289653 -976.02867614 365.22819583 -972.43351746 363.87348938 C-965.98162848 361.44232979 -959.52973238 359.01118911 -953.07779598 356.58015537 C-949.50628577 355.23444057 -945.93478186 353.88870904 -942.36328125 352.54296875 C-941.65524164 352.27618002 -940.94720203 352.00939129 -940.21770668 351.73451805 C-929.81883562 347.81619317 -919.42033328 343.89689093 -909.02201462 339.97710037 C-856.00705444 319.99262744 -856.00705444 319.99262744 -833.76019287 311.66119385 C-816.93566907 305.3595361 -800.12403728 299.0236983 -783.3125 292.6875 C-782.57611298 292.4099588 -781.83972595 292.1324176 -781.08102417 291.84646606 C-774.28120945 289.28360528 -767.48146807 286.72054994 -760.68179321 284.15731812 C-750.33371755 280.25647262 -739.98535519 276.35638879 -729.63671875 272.45703125 C-728.92853312 272.19018713 -728.22034748 271.92334301 -727.49070168 271.6484127 C-723.92157059 270.30357034 -720.35243391 268.95874286 -716.78329468 267.61392212 C-710.32485629 265.18043029 -703.86646793 262.74680571 -697.40807533 260.31319237 C-693.81371889 258.95878959 -690.21935929 257.60439522 -686.625 256.25 C-685.18749998 255.70833337 -683.74999998 255.16666671 -682.3125 254.625 C-611.15625 227.8125 -540 201 -466.6875 173.375 C-465.97592837 173.10687154 -465.26435675 172.83874308 -464.53122234 172.56248951 C-463.09381459 172.02085765 -461.65640678 171.47922595 -460.21899891 170.93759441 C-456.623837 169.58289653 -453.02867614 168.22819583 -449.43351746 166.87348938 C-442.98162848 164.44232979 -436.52973238 162.01118911 -430.07779598 159.58015537 C-426.50628577 158.23444057 -422.93478186 156.88870904 -419.36328125 155.54296875 C-418.65524164 155.27618002 -417.94720203 155.00939129 -417.21770668 154.73451805 C-406.81883562 150.81619317 -396.42033328 146.89689093 -386.02201462 142.97710037 C-333.00705444 122.99262744 -333.00705444 122.99262744 -310.76019287 114.66119385 C-293.93566907 108.3595361 -277.12403728 102.0236983 -260.3125 95.6875 C-259.57611298 95.4099588 -258.83972595 95.1324176 -258.08102417 94.84646606 C-251.28120945 92.28360528 -244.48146807 89.72054994 -237.68179321 87.15731812 C-227.33371755 83.25647262 -216.98535519 79.35638879 -206.63671875 75.45703125 C-205.5744403 75.05676507 -205.5744403 75.05676507 -204.49070168 74.6484127 C-200.92157059 73.30357034 -197.35243391 71.95874286 -193.78329468 70.61392212 C-187.32485629 68.18043029 -180.86646793 65.74680571 -174.40807533 63.31319237 C-170.81371889 61.95878959 -167.21935929 60.60439522 -163.625 59.25 C-162.18749998 58.70833337 -160.74999998 58.16666671 -159.3125 57.625 C-150.68750088 54.37500033 -150.68750088 54.37500033 -148.53119659 53.56247997 C-147.09387453 53.02088029 -145.65655255 52.47928038 -144.21923065 51.93768024 C-140.62275896 50.58248688 -137.02628578 49.22729746 -133.42980957 47.87211609 C-126.99355824 45.44688013 -120.55731654 43.02161863 -114.1211319 40.59620571 C-110.57034541 39.25812771 -107.01955001 37.92007336 -103.46875 36.58203125 C-102.76399033 36.31645731 -102.05923065 36.05088337 -101.33311462 35.77726173 C-91.43139513 32.04605826 -81.52925485 28.31597327 -71.62683105 24.5866394 C-66.05476091 22.48814661 -60.48280126 20.38936052 -54.91086578 18.29051018 C-50.38263463 16.58483605 -45.85425789 14.87954921 -41.32576752 13.17456341 C-38.52122367 12.11853747 -35.71682337 11.06213073 -32.91246033 10.00562477 C-31.01894562 9.29239678 -29.12526031 8.57962173 -27.23156738 7.86686707 C-26.07104858 7.42957779 -24.91052979 6.99228851 -23.71484375 6.54174805 C-22.04977783 5.91796768 -22.04977783 5.91796768 -20.35107422 5.28158569 C-18.01950646 4.38990032 -15.69877943 3.46956005 -13.38720703 2.5272522 C-12.22946777 2.05911102 -11.07172852 1.59096985 -9.87890625 1.10864258 C-8.32731812 0.46636467 -8.32731812 0.46636467 -6.74438477 -0.18888855 C-3.89487885 -1.03106888 -2.6957417 -1.16075758 0 0 Z " fill="#FFFFFF" transform="translate(1335,9)"/>
<path d="M0 0 C79.86 0 159.72 0 242 0 C242 44.00545596 242 44.00545596 223.0625 69.4375 C216.84527938 77.83347127 210.71240305 86.28725462 204.60888672 94.76611328 C201.90987872 98.51359784 199.20461116 102.25655845 196.5 106 C195.41663696 107.49997854 194.33330362 108.99997854 193.25 110.5 C191.08333333 113.5 188.91666667 116.5 186.75 119.5 C185.94574585 120.61362915 185.94574585 120.61362915 185.12524414 121.74975586 C184.04121584 123.2506555 182.95706858 124.75146922 181.87280273 126.25219727 C179.17412345 129.98773967 176.47748688 133.72472254 173.78515625 137.46484375 C167.65243321 145.97920681 161.46767211 154.45216202 155.23291016 162.89208984 C151.27098772 168.26074202 147.34094938 173.65119446 143.4375 179.0625 C142.90656738 179.79823242 142.37563477 180.53396484 141.82861328 181.29199219 C139.10610668 185.06823881 136.39125194 188.84981201 133.68359375 192.63671875 C127.0138844 201.94780968 120.1798531 211.07626834 113 220 C112.23042969 220.96421875 111.46085937 221.9284375 110.66796875 222.921875 C106.06063258 228.6346491 101.25069117 234.10956025 96.26171875 239.4921875 C94.07921712 241.9121634 92.0357389 244.45532638 90 247 C140.16 247 190.32 247 242 247 C242 266.8 242 286.6 242 307 C162.14 307 82.28 307 0 307 C0 259.46114185 0 259.46114185 10.0703125 248.84375 C10.7293457 248.21726562 11.38837891 247.59078125 12.06738281 246.9453125 C15.36816442 243.62284815 17.90595881 239.77880876 20.5625 235.9375 C21.6336398 234.44440095 22.70785012 232.95349977 23.78515625 231.46484375 C24.31512207 230.72862793 24.84508789 229.99241211 25.39111328 229.23388672 C28.63146195 224.73476831 31.88027702 220.24175881 35.12744141 215.74755859 C37.82598022 212.012055 40.52257953 208.2751852 43.21484375 204.53515625 C49.34756679 196.02079319 55.53232789 187.54783798 61.76708984 179.10791016 C67.36432174 171.5233116 72.88408627 163.8841167 78.39111328 156.23388672 C81.63146195 151.73476831 84.88027702 147.24175881 88.12744141 142.74755859 C90.82598022 139.012055 93.52257953 135.2751852 96.21484375 131.53515625 C103.5175642 121.39575037 110.88412616 111.30568813 118.32421875 101.26660156 C119.92082672 99.10708694 121.50808274 96.94099165 123.09375 94.7734375 C129.05665899 86.66680188 135.32561704 78.94170233 141.9921875 71.40234375 C145.03018122 67.96585994 148.01494356 64.48256585 151 61 C76.255 60.505 76.255 60.505 0 60 C0 40.2 0 20.4 0 0 Z " fill="#FFFFFF" transform="translate(1282,411)"/>
<path d="M0 0 C18.43636778 14.43277375 27.53981861 35.63638887 30.39453125 58.421875 C30.47890907 60.72601248 30.51659699 63.03219415 30.51478577 65.33787537 C30.5160674 66.32689939 30.5160674 66.32689939 30.51737493 67.3359037 C30.51901019 69.52531516 30.51354068 71.71464844 30.50805664 73.90405273 C30.50777432 75.48141986 30.50793338 77.05878712 30.50849915 78.63615417 C30.50878537 82.90421017 30.50291691 87.17223791 30.49592519 91.44028735 C30.48966253 95.90591459 30.48908555 100.37154251 30.48789978 104.83717346 C30.48479505 113.28719637 30.47659323 121.7372063 30.46655029 130.18722349 C30.45326946 141.61017651 30.44788232 153.03313309 30.44204807 164.45609188 C30.43265276 182.44469597 30.41272811 200.43327267 30.39453125 218.421875 C6.30453125 218.421875 -17.78546875 218.421875 -42.60546875 218.421875 C-42.64285156 208.21507812 -42.68023438 198.00828125 -42.71875 187.4921875 C-42.74903067 181.02081982 -42.78005803 174.54946995 -42.81445312 168.078125 C-42.86889162 157.80958687 -42.9203067 147.54109816 -42.9519043 137.27246094 C-42.97493321 129.79305357 -43.00838561 122.31377648 -43.05417031 114.83447254 C-43.07803678 110.87702645 -43.0968085 106.91970886 -43.10308266 102.96219254 C-43.10916347 99.23076426 -43.12927019 95.4996645 -43.15974426 91.76835823 C-43.17261392 89.75929216 -43.17096278 87.75014916 -43.16874695 85.74104309 C-43.29459329 73.52621484 -45.73231737 63.65843438 -54.3046875 54.6328125 C-62.52688914 47.13120831 -71.84474439 45.9270221 -82.6796875 46.1484375 C-92.41109787 46.82624718 -100.79648337 50.36971157 -107.60546875 57.421875 C-115.79878048 67.95099929 -117.05250827 79.54747914 -117.0378418 92.5222168 C-117.0468795 93.90314092 -117.05721158 95.28405707 -117.06872559 96.66496277 C-117.09608637 100.37909074 -117.1055513 104.09306565 -117.11157966 107.80728126 C-117.12101838 111.70172569 -117.1472258 115.59605821 -117.17158508 119.49043274 C-117.21510354 126.849482 -117.24374017 134.20850935 -117.26690847 141.56764776 C-117.29912139 151.52299483 -117.35457013 161.4782115 -117.40865421 171.43345928 C-117.4931384 187.09622552 -117.54679092 202.75894157 -117.60546875 218.421875 C-141.69546875 218.421875 -165.78546875 218.421875 -190.60546875 218.421875 C-190.60546875 142.521875 -190.60546875 66.621875 -190.60546875 -11.578125 C-167.83546875 -11.578125 -145.06546875 -11.578125 -121.60546875 -11.578125 C-121.16796875 7.671875 -121.16796875 7.671875 -121.03735352 13.73144531 C-120.99921814 15.32097216 -120.96074795 16.91049102 -120.921875 18.5 C-120.89716125 19.73242432 -120.89716125 19.73242432 -120.87194824 20.98974609 C-120.85176636 21.78106934 -120.83158447 22.57239258 -120.81079102 23.38769531 C-120.78747459 24.41361786 -120.78747459 24.41361786 -120.76368713 25.46026611 C-120.59625059 27.53616273 -120.16381847 29.41862245 -119.60546875 31.421875 C-119.18136719 30.58785156 -118.75726562 29.75382813 -118.3203125 28.89453125 C-114.64989385 21.85216756 -110.74442655 15.50258751 -105.60546875 9.421875 C-104.84363281 8.42607422 -104.84363281 8.42607422 -104.06640625 7.41015625 C-80.22298133 -22.48221637 -28.97868865 -21.40209323 0 0 Z " fill="#FFFFFF" transform="translate(3081.60546875,499.578125)"/>
<path d="M0 0 C1.51649437 1.29340677 3.01809747 2.60460047 4.5 3.9375 C5.44939453 4.76507813 5.44939453 4.76507813 6.41796875 5.609375 C17.39604332 15.78772229 24.91033004 31.49126592 25.68040848 46.43945503 C25.74592879 50.7546697 25.7477215 55.06563618 25.72705078 59.38110352 C25.7264859 61.03758233 25.72680473 62.69406164 25.72793579 64.35054016 C25.7285073 68.82511552 25.71678582 73.29958265 25.70278788 77.77413297 C25.69024672 82.45862348 25.68910735 87.14311675 25.68673706 91.82762146 C25.68053222 100.68842056 25.66413491 109.54917004 25.64403808 118.40994734 C25.62164804 128.50185549 25.61067785 138.59376608 25.60064721 148.68569291 C25.57976777 169.43632908 25.54310401 190.18689727 25.5 210.9375 C3.06 210.9375 -19.38 210.9375 -42.5 210.9375 C-42.83 200.7075 -43.16 190.4775 -43.5 179.9375 C-46.965 185.3825 -46.965 185.3825 -50.5 190.9375 C-62.8695849 205.95215337 -80.28757921 213.33136824 -99.3125 215.5625 C-120.9928503 217.39136391 -145.55220098 214.79873285 -163.1484375 200.8359375 C-165.69042816 198.61455827 -168.10916523 196.32014698 -170.5 193.9375 C-171.1496875 193.31101562 -171.799375 192.68453125 -172.46875 192.0390625 C-185.00397918 179.00902164 -187.01698156 161.12311494 -186.91967773 143.90966797 C-186.52394741 127.70635604 -182.05056785 111.9005994 -170.6171875 99.83203125 C-150.53141557 81.85860065 -125.90748853 77.21150516 -99.94873047 74.32324219 C-94.05705906 73.66425586 -88.17006711 72.97273165 -82.2862854 72.24710083 C-80.3114367 72.00745527 -78.33480336 71.78266164 -76.3581543 71.55834961 C-62.24884796 70.11466218 -62.24884796 70.11466218 -50.3125 63.25 C-47.607862 58.30704089 -46.86989197 54.08804015 -47.98046875 48.53515625 C-49.65705085 42.96816264 -51.6477868 38.6391594 -56.8046875 35.5625 C-67.9311504 29.75164697 -80.44421604 29.1682898 -92.5 32.5625 C-102.0270018 35.94228927 -107.6372374 41.10376171 -112.5 49.9375 C-112.995 51.4225 -112.995 51.4225 -113.5 52.9375 C-120.80894537 53.11711401 -127.80806717 52.42430088 -135.05078125 51.4765625 C-136.81532906 51.25061905 -136.81532906 51.25061905 -138.61552429 51.02011108 C-141.08756008 50.70182533 -143.55922129 50.3806181 -146.03051758 50.05664062 C-149.81669402 49.56195202 -153.6044737 49.08123702 -157.39257812 48.6015625 C-159.79958816 48.2899031 -162.20649319 47.97743144 -164.61328125 47.6640625 C-165.7455867 47.52126862 -166.87789215 47.37847473 -168.04450989 47.23135376 C-169.62216377 47.02136246 -169.62216377 47.02136246 -171.23168945 46.80712891 C-172.61660332 46.62725937 -172.61660332 46.62725937 -174.02949524 46.4437561 C-176.48475827 45.94062334 -178.32803299 45.16685241 -180.5 43.9375 C-176.30693443 30.18943987 -171.06334178 18.89943326 -161.5 7.9375 C-160.99210937 7.33421875 -160.48421875 6.7309375 -159.9609375 6.109375 C-150.85689524 -3.88172779 -138.00354566 -10.47497225 -125.5 -15.0625 C-124.489375 -15.44019531 -123.47875 -15.81789063 -122.4375 -16.20703125 C-84.25922573 -29.20907108 -32.47353323 -25.32249877 0 0 Z M-55.671875 110.75 C-60.92887297 112.28520558 -66.12564395 113.5390939 -71.515625 114.5 C-72.19032837 114.62036621 -72.86503174 114.74073242 -73.56018066 114.86474609 C-76.31943899 115.35008475 -79.08050651 115.82409536 -81.84277344 116.29199219 C-94.76332803 118.49882533 -105.45507214 120.88121945 -114.5 130.9375 C-118.24637353 136.84087648 -118.28736897 143.14078625 -117.5 149.9375 C-115.94994845 155.77700239 -112.62997877 159.35966233 -107.67578125 162.68359375 C-98.22894917 168.12781834 -87.45946201 168.2167009 -76.9296875 166.28125 C-65.77012396 163.22094416 -56.19126303 156.96242583 -50.28515625 146.859375 C-47.34999818 141.21885771 -46.37320397 136.83262564 -46.40234375 130.421875 C-46.40556641 129.17148437 -46.40878906 127.92109375 -46.41210938 126.6328125 C-46.42048828 125.33085938 -46.42886719 124.02890625 -46.4375 122.6875 C-46.44201172 121.37007812 -46.44652344 120.05265625 -46.45117188 118.6953125 C-46.46295684 115.44266259 -46.47940989 112.19010416 -46.5 108.9375 C-49.91902125 108.9375 -52.40248127 109.74345272 -55.671875 110.75 Z " fill="#FFFFFF" transform="translate(2818.5,507.0625)"/>
<path d="M0 0 C1.73274534 1.51417716 3.44095928 3.05683364 5.125 4.625 C6.07117187 5.50285156 7.01734375 6.38070312 7.9921875 7.28515625 C26.71398884 25.09800971 36.24646718 48.44074298 40.125 73.625 C40.310625 74.81738281 40.49625 76.00976562 40.6875 77.23828125 C44.25775383 107.1048277 39.82549257 137.36322039 25.125 163.625 C24.56941406 164.62273437 24.01382813 165.62046875 23.44140625 166.6484375 C9.72958161 189.60012479 -13.40999904 204.93686079 -38.9375 211.74609375 C-72.40123219 219.56642247 -109.73587957 217.40671952 -139.71142578 199.52978516 C-164.36325338 184.07711474 -180.23261745 160.09009811 -187.1015625 132.0859375 C-195.30220078 95.39015208 -191.13264579 57.18927244 -171.875 24.625 C-169.72456226 21.44005323 -167.39205456 18.52555429 -164.875 15.625 C-164.23304687 14.83996094 -163.59109375 14.05492187 -162.9296875 13.24609375 C-145.074336 -7.80477268 -118.70153731 -19.34889645 -91.50610352 -22.17871094 C-59.36750179 -24.57635739 -26.0192606 -20.63087472 0 0 Z M-101.875 44.625 C-116.54575641 63.56625382 -118.60677372 88.65120276 -115.98071289 111.74291992 C-114.08948031 125.69021342 -109.59862383 141.2223347 -99.00390625 151.05859375 C-89.47949604 158.06646255 -80.47899056 160.39955561 -68.875 159.625 C-58.47829451 157.84443215 -50.55420528 152.53292513 -44.43359375 144.0234375 C-31.27527864 123.77480221 -29.9265775 96.30510692 -34.375 73.0625 C-37.02821925 60.67173084 -42.26914215 47.26121765 -52.875 39.625 C-68.79504483 30.10183119 -88.47368809 30.94502187 -101.875 44.625 Z " fill="#FFFFFF" transform="translate(2167.875,507.375)"/>
<path d="M0 0 C1.73274534 1.51417716 3.44095928 3.05683364 5.125 4.625 C6.07117187 5.50285156 7.01734375 6.38070312 7.9921875 7.28515625 C26.71398884 25.09800971 36.24646718 48.44074298 40.125 73.625 C40.310625 74.81738281 40.49625 76.00976562 40.6875 77.23828125 C44.25775383 107.1048277 39.82549257 137.36322039 25.125 163.625 C24.56941406 164.62273437 24.01382812 165.62046875 23.44140625 166.6484375 C9.72958161 189.60012479 -13.40999904 204.93686079 -38.9375 211.74609375 C-72.40123219 219.56642247 -109.73587957 217.40671952 -139.71142578 199.52978516 C-164.36325338 184.07711474 -180.23261745 160.09009811 -187.1015625 132.0859375 C-195.30220078 95.39015208 -191.13264579 57.18927244 -171.875 24.625 C-169.72456226 21.44005323 -167.39205456 18.52555429 -164.875 15.625 C-164.23304687 14.83996094 -163.59109375 14.05492187 -162.9296875 13.24609375 C-145.074336 -7.80477268 -118.70153731 -19.34889645 -91.50610352 -22.17871094 C-59.36750179 -24.57635739 -26.0192606 -20.63087472 0 0 Z M-101.875 44.625 C-116.54575641 63.56625382 -118.60677372 88.65120276 -115.98071289 111.74291992 C-114.08948031 125.69021342 -109.59862383 141.2223347 -99.00390625 151.05859375 C-89.47949604 158.06646255 -80.47899056 160.39955561 -68.875 159.625 C-58.47829451 157.84443215 -50.55420528 152.53292513 -44.43359375 144.0234375 C-31.27527864 123.77480221 -29.9265775 96.30510692 -34.375 73.0625 C-37.02821925 60.67173084 -42.26914215 47.26121765 -52.875 39.625 C-68.79504483 30.10183119 -88.47368809 30.94502187 -101.875 44.625 Z " fill="#FFFFFF" transform="translate(1750.875,507.375)"/>
<path d="M0 0 C0.67160156 0.52851563 1.34320312 1.05703125 2.03515625 1.6015625 C23.99177943 19.32400586 32.64321768 48.14574144 36 75 C36 86.88 36 98.76 36 111 C-14.49 111 -64.98 111 -117 111 C-113.95732186 130.30045607 -113.95732186 130.30045607 -104 146 C-104 146.66 -104 147.32 -104 148 C-103.43152344 148.26941406 -102.86304687 148.53882813 -102.27734375 148.81640625 C-99.91459192 150.04438876 -97.78131565 151.46702015 -95.5625 152.9375 C-84.21625326 159.7519125 -71.11400082 160.38103295 -58.375 157.875 C-48.50326679 155.33621694 -40.83957141 150.42633116 -35 142 C-33.98697201 140.00656721 -32.98561809 138.00712655 -32 136 C-17.36145292 138.03305299 -2.76982767 140.28598343 11.8125 142.6875 C13.78837949 143.01126287 15.76429084 143.33483133 17.74023438 143.65820312 C22.49385756 144.43657581 27.24705 145.21752759 32 146 C33.31607886 149.94823657 32.06895039 152.26426261 30.5625 155.9375 C30.28954102 156.60555664 30.01658203 157.27361328 29.73535156 157.96191406 C20.4171489 179.86438595 2.44650746 194.79518725 -19 204 C-52.78836825 217.26238625 -94.08494829 217.0733447 -127.5 202.625 C-152.87054217 191.11802347 -170.44456685 171.50948436 -180.86767578 145.86523438 C-193.26541968 112.68794921 -192.71575829 71.11388332 -178.62109375 38.5546875 C-166.556643 12.10010875 -147.21476769 -7.39487056 -120 -18 C-80.97194454 -32.16270436 -31.99840418 -27.94869527 0 0 Z M-107.8125 43.3125 C-113.50364427 51.08512759 -115.10557029 58.52785147 -117 68 C-89.28 68 -61.56 68 -33 68 C-34.9722709 56.16637459 -37.74101776 44.67526847 -47.05078125 36.390625 C-66.46150363 22.5424944 -92.50132738 24.99088541 -107.8125 43.3125 Z " fill="#FFFFFF" transform="translate(3744,510)"/>
<path d="M0 0 C9.73821588 9.12493129 16.87313735 22.08154649 19.796875 35.10546875 C19.796875 36.42546875 19.796875 37.74546875 19.796875 39.10546875 C11.7662719 40.43508957 3.73444245 41.75692195 -4.29907703 43.0687952 C-8.02921185 43.6781778 -11.75886443 44.29024675 -15.48754883 44.90844727 C-19.0850862 45.50480287 -22.68371304 46.09411169 -26.28320885 46.67852592 C-27.65715489 46.90287455 -29.03068737 47.12977114 -30.40378761 47.35923958 C-32.32513049 47.67988436 -34.24810843 47.99068493 -36.17114258 48.30102539 C-37.26590408 48.48089493 -38.36066559 48.66076447 -39.48860168 48.84608459 C-42.203125 49.10546875 -42.203125 49.10546875 -45.203125 48.10546875 C-46.52734375 45.59375 -46.52734375 45.59375 -47.890625 42.41796875 C-52.14321729 33.60977392 -57.89230894 30.14658282 -66.90234375 26.8515625 C-77.75839087 23.3311805 -90.36254757 24.32383976 -100.6328125 29.27734375 C-104.91332579 31.81742856 -108.3869511 34.0808243 -109.734375 39.07421875 C-110.6283966 44.09449389 -110.27629659 47.89796545 -107.66796875 52.32421875 C-97.38427252 64.82919337 -70.1779936 65.43620037 -55.39575195 68.02734375 C-44.54454777 69.93869842 -33.82574241 71.98038811 -23.25390625 75.12109375 C-22.47018143 75.35259125 -21.6864566 75.58408875 -20.87898254 75.82260132 C-3.01374684 81.39025168 12.60007837 91.55123481 21.796875 108.10546875 C28.88964568 125.3867498 28.5167924 144.72985265 21.328125 161.94921875 C10.22102072 184.84345411 -9.53861918 196.87655467 -32.5078125 205.3203125 C-67.91314025 217.0190804 -112.42064522 215.72952845 -146.14892578 199.14892578 C-167.65562575 187.9311093 -181.48981869 170.46629597 -188.8203125 147.39453125 C-189.26903017 144.71138271 -188.78910158 142.74154419 -188.203125 140.10546875 C-179.91079507 138.79893671 -171.61808305 137.49486861 -163.32487011 136.19395447 C-159.47411897 135.58982719 -155.62350562 134.98484833 -151.77319336 134.37792969 C-148.05824309 133.79237993 -144.34294916 133.20905879 -140.62740517 132.62728882 C-139.20909438 132.40481089 -137.79090981 132.1815268 -136.37285423 131.95742798 C-134.38847127 131.64397139 -132.40359663 131.33363227 -130.41870117 131.0234375 C-129.28840988 130.84578857 -128.15811859 130.66813965 -126.99357605 130.48510742 C-124.203125 130.10546875 -124.203125 130.10546875 -121.203125 130.10546875 C-120.98398438 130.72292969 -120.76484375 131.34039063 -120.5390625 131.9765625 C-116.44203074 142.91863513 -111.34960945 151.21984987 -100.57421875 156.359375 C-93.40420526 159.04228748 -86.61427903 159.48305653 -79.015625 159.54296875 C-78.10151855 159.55312012 -77.18741211 159.56327148 -76.24560547 159.57373047 C-67.12007675 159.4570105 -57.95077672 157.66620491 -51.203125 151.10546875 C-48.62002824 147.5537107 -47.97244288 144.90192323 -48.203125 140.60546875 C-48.95224066 135.91363909 -50.65554341 133.3511285 -54.203125 130.10546875 C-67.81307012 121.53624404 -86.75884975 120.11121562 -102.29223633 117.18359375 C-112.69509404 115.21465406 -122.965418 113.07672537 -133.12109375 110.05859375 C-133.91887741 109.8229068 -134.71666107 109.58721985 -135.53862 109.34439087 C-153.38650239 103.82547793 -169.03859758 92.9020911 -178.015625 76.23046875 C-184.76456225 61.36456643 -186.20204066 41.39544281 -181.234375 25.6875 C-173.28748602 5.79017571 -159.54333002 -7.45777549 -140.11328125 -16.30078125 C-96.50508047 -33.98123843 -36.72415891 -31.58017211 0 0 Z " fill="#FFFFFF" transform="translate(3337.203125,510.89453125)"/>
<path d="M0 0 C85.47 0 170.94 0 259 0 C259 19.8 259 39.6 259 60 C228.31 60 197.62 60 166 60 C166 141.51 166 223.02 166 307 C141.91 307 117.82 307 93 307 C93 225.49 93 143.98 93 60 C62.31 60 31.62 60 0 60 C0 40.2 0 20.4 0 0 Z " fill="#FFFFFF" transform="translate(2204,411)"/>
<path d="M0 0 C1.09030518 0.2160791 1.09030518 0.2160791 2.20263672 0.43652344 C6.14925856 1.23179885 10.07953375 2.08479182 14 3 C11.3989793 16.34550555 8.68822363 29.66177842 5.75 42.9375 C5.49202637 44.10966064 5.23405273 45.28182129 4.96826172 46.48950195 C4.60498779 48.11698364 4.60498779 48.11698364 4.234375 49.77734375 C4.02006836 50.73890381 3.80576172 51.70046387 3.58496094 52.69116211 C3 55 3 55 2 57 C1.14019531 56.855625 0.28039063 56.71125 -0.60546875 56.5625 C-17.6546533 53.67982752 -17.6546533 53.67982752 -34 58 C-42.51931808 66.30087403 -40.40118444 76.02368876 -41 88 C-25.82 88 -10.64 88 5 88 C5 105.82 5 123.64 5 142 C-10.18 142 -25.36 142 -41 142 C-41 200.08 -41 258.16 -41 318 C-65.09 318 -89.18 318 -114 318 C-114 259.92 -114 201.84 -114 142 C-126.54 142 -139.08 142 -152 142 C-152 124.18 -152 106.36 -152 88 C-139.46 88 -126.92 88 -114 88 C-114.061875 84.926875 -114.12375 81.85375 -114.1875 78.6875 C-114.32853262 55.62143376 -109.55723465 34.55918959 -93.33984375 17.31640625 C-69.16821241 -6.61310524 -31.27815061 -6.23192927 0 0 Z " fill="#FFFFFF" transform="translate(3532,400)"/>
<path d="M0 0 C24.09 0 48.18 0 73 0 C73 18.15 73 36.3 73 55 C86.53 55 100.06 55 114 55 C114 72.82 114 90.64 114 109 C100.47 109 86.94 109 73 109 C73.06290228 123.49949663 73.13829909 137.99878029 73.23571491 152.49808693 C73.28064602 159.23064227 73.32006677 165.96314504 73.34643555 172.69580078 C73.37189681 179.19276737 73.41281972 185.68952987 73.46318626 192.18635178 C73.47987545 194.66543034 73.49137691 197.14454941 73.49761391 199.6236763 C73.50723234 203.09523329 73.53526606 206.56618852 73.56762695 210.03759766 C73.56619186 211.06330872 73.56475677 212.08901978 73.5632782 213.14581299 C73.63404352 218.51118843 73.96354707 222.37479296 77 227 C82.83022313 232.4540797 90.52341189 231.2099258 98 231 C102.34052647 230.73721238 106.66978248 230.39687755 111 230 C113.57363512 242.55838619 116.08825219 255.12442389 118.3125 267.75 C118.48362305 268.70656494 118.65474609 269.66312988 118.83105469 270.64868164 C118.98606445 271.54321045 119.14107422 272.43773926 119.30078125 273.359375 C119.43653564 274.13764648 119.57229004 274.91591797 119.7121582 275.71777344 C120.02107563 278.16710349 120.04876742 280.53383961 120 283 C91.18560887 291.18726148 56.36607585 293.74043182 29.01171875 279.4375 C12.96059632 269.84678784 5.49947381 256.58559284 1 239 C-0.1815978 232.63738263 -0.13416379 226.37213137 -0.11352539 219.91430664 C-0.11367142 218.71359528 -0.11381744 217.51288391 -0.1139679 216.27578735 C-0.11339275 213.00149561 -0.10839536 209.72724722 -0.10139394 206.45296407 C-0.09512066 203.02434431 -0.09455346 199.59572361 -0.09336853 196.167099 C-0.0902669 189.68266037 -0.08206932 183.1982387 -0.07201904 176.71380752 C-0.06082155 169.32805652 -0.0553383 161.94230467 -0.05032361 154.55654728 C-0.03988568 139.37102053 -0.02155479 124.1855158 0 109 C-9.9 109 -19.8 109 -30 109 C-30 91.18 -30 73.36 -30 55 C-20.1 55 -10.2 55 0 55 C0 36.85 0 18.7 0 0 Z " fill="#FFFFFF" transform="translate(1840,433)"/>
<path d="M0 0 C0 21.12 0 42.24 0 64 C-6.6 63.01 -13.2 62.02 -20 61 C-34.27083385 60.33105466 -45.13707076 61.7990101 -57 70 C-57.9075 70.598125 -58.815 71.19625 -59.75 71.8125 C-66.91289769 78.77642831 -72.59654249 89.47897109 -73.1386652 99.58491898 C-73.14511775 100.56939388 -73.1515703 101.55386879 -73.15821838 102.56817627 C-73.1680072 103.70117157 -73.17779602 104.83416687 -73.18788147 106.00149536 C-73.19363693 107.24011322 -73.1993924 108.47873108 -73.20532227 109.75488281 C-73.21522186 111.06244537 -73.22512146 112.37000793 -73.23532104 113.7171936 C-73.26233276 117.29946764 -73.2833625 120.8817548 -73.30332303 124.46407413 C-73.32520564 128.20904488 -73.35258319 131.95397534 -73.37937927 135.69891357 C-73.42927541 142.78903496 -73.47422565 149.87917875 -73.51740164 156.9693439 C-73.57603724 166.5513149 -73.64230757 176.13323289 -73.70815182 185.71515656 C-73.81167833 200.81006865 -73.9049995 215.90502627 -74 231 C-98.09 231 -122.18 231 -147 231 C-147 155.1 -147 79.2 -147 1 C-123.57 1 -100.14 1 -76 1 C-75.505 21.295 -75.505 21.295 -75 42 C-73.35 37.38 -71.7 32.76 -70 28 C-62.36463039 14.34443513 -52.61607524 4.6688905 -37.625 -0.375 C-25.11689207 -3.65940471 -12.55259675 -2.51051935 0 0 Z " fill="#FFFFFF" transform="translate(3964,487)"/>
<path d="M0 0 C0 21.12 0 42.24 0 64 C-6.6 63.01 -13.2 62.02 -20 61 C-34.27083385 60.33105466 -45.13707076 61.7990101 -57 70 C-57.9075 70.598125 -58.815 71.19625 -59.75 71.8125 C-66.91289769 78.77642831 -72.59654249 89.47897109 -73.1386652 99.58491898 C-73.14511775 100.56939388 -73.1515703 101.55386879 -73.15821838 102.56817627 C-73.1680072 103.70117157 -73.17779602 104.83416687 -73.18788147 106.00149536 C-73.19363693 107.24011322 -73.1993924 108.47873108 -73.20532227 109.75488281 C-73.21522186 111.06244537 -73.22512146 112.37000793 -73.23532104 113.7171936 C-73.26233276 117.29946764 -73.2833625 120.8817548 -73.30332303 124.46407413 C-73.32520564 128.20904488 -73.35258319 131.95397534 -73.37937927 135.69891357 C-73.42927541 142.78903496 -73.47422565 149.87917875 -73.51740164 156.9693439 C-73.57603724 166.5513149 -73.64230757 176.13323289 -73.70815182 185.71515656 C-73.81167833 200.81006865 -73.9049995 215.90502627 -74 231 C-98.09 231 -122.18 231 -147 231 C-147 155.1 -147 79.2 -147 1 C-123.57 1 -100.14 1 -76 1 C-75.505 21.295 -75.505 21.295 -75 42 C-73.35 37.38 -71.7 32.76 -70 28 C-62.36463039 14.34443513 -52.61607524 4.6688905 -37.625 -0.375 C-25.11689207 -3.65940471 -12.55259675 -2.51051935 0 0 Z " fill="#FFFFFF" transform="translate(2622,487)"/>
</svg>
