<?xml version="1.0" encoding="UTF-8"?>
<svg version="1.1" xmlns="http://www.w3.org/2000/svg" width="2750" height="2342">
<path d="M0 0 C4.17634991 2.5555373 6.68677028 5.63826262 8.05664062 10.33496094 C6.61782909 15.26802905 2.44778362 16.84353343 -1.81835938 19.33496094 C-6.64243964 22.38330614 -10.20498436 25.72439435 -13.86914062 30.09667969 C-16.0774298 32.63245062 -18.42279069 34.97563384 -20.81835938 37.33496094 C-23.77018962 40.25122697 -26.62224796 43.18101929 -29.31835938 46.33496094 C-32.01447079 49.48890259 -34.86652913 52.41869491 -37.81835938 55.33496094 C-40.74954129 58.23088051 -43.58239112 61.13738665 -46.25585938 64.27246094 C-49.56182056 68.14113892 -53.14980615 71.69560399 -56.76904297 75.26611328 C-60.0182011 78.48846502 -63.04272272 81.8282791 -66.00976562 85.30761719 C-68.1879443 87.74924728 -70.49083945 90.03544125 -72.81835938 92.33496094 C-75.72889739 95.21053753 -78.54259959 98.09370187 -81.19335938 101.20996094 C-84.2326666 104.76782295 -87.49199632 108.04938087 -90.81835938 111.33496094 C-94.71732032 115.18617707 -98.4266024 119.09917828 -101.97851562 123.27636719 C-104.77671729 126.40726375 -107.78609593 129.32325789 -110.77392578 132.27099609 C-113.37956676 134.85518411 -115.87889047 137.47705251 -118.25585938 140.27246094 C-121.27188786 143.8117522 -124.51284161 147.06990239 -127.81835938 150.33496094 C-131.0821887 153.55893887 -134.28666101 156.77013967 -137.25585938 160.27246094 C-140.41845919 163.99453787 -143.84806634 167.40362166 -147.31835938 170.83496094 C-150.76773821 174.24566418 -154.17955839 177.63117578 -157.31835938 181.33496094 C-160.45716078 185.0387466 -163.86898613 188.42425238 -167.31835938 191.83496094 C-170.74680765 195.22502211 -174.14096658 198.58690076 -177.25585938 202.27246094 C-180.56408595 206.17766073 -184.18349679 209.7377702 -187.81835938 213.33496094 C-193.23330805 218.67961288 -193.23330805 218.67961288 -198.31835938 224.33496094 C-201.60232891 228.22210855 -205.20449781 231.75850511 -208.81835938 235.33496094 C-214.20374217 240.64697653 -214.20374217 240.64697653 -219.25585938 246.27246094 C-223.2788264 251.03623008 -227.77797842 255.34398983 -232.22631836 259.70581055 C-235.37321967 262.81005869 -238.40164361 265.95369173 -241.28710938 269.30371094 C-245.54975851 274.24723316 -250.20036105 278.76711584 -254.85742188 283.33496094 C-258.13536571 286.57493631 -261.30971499 289.84193162 -264.31835938 293.33496094 C-268.56868749 298.26958225 -273.21094275 302.77749483 -277.85742188 307.33496094 C-281.12501239 310.56470291 -284.2898827 313.82007719 -287.28710938 317.30371094 C-291.74396543 322.47811071 -296.63282328 327.19746663 -301.50195312 331.97949219 C-304.88717647 335.32798617 -308.18281196 338.69156763 -311.28710938 342.30371094 C-315.93782136 347.70916704 -321.06525433 352.62804893 -326.14648438 357.62402344 C-329.65967338 361.10136357 -333.09561202 364.58498993 -336.31835938 368.33496094 C-340.9563795 373.73173551 -346.0758884 378.63850458 -351.14648438 383.62402344 C-354.64928865 387.09108481 -358.07599659 390.56300696 -361.28710938 394.30371094 C-366.13131967 399.94040725 -371.4976701 405.05883231 -376.79101562 410.26855469 C-380.40094613 413.84371861 -383.94994943 417.41231344 -387.25585938 421.27246094 C-392.49920627 427.38056423 -398.35178972 432.91035125 -404.08007812 438.55761719 C-407.94575701 442.38982699 -411.77629861 446.19907181 -415.31835938 450.33496094 C-420.53516224 456.42636358 -426.37323678 461.93149495 -432.08007812 467.55761719 C-435.93531841 471.37947877 -439.7570295 475.17687946 -443.28710938 479.30371094 C-448.26916426 485.12100997 -453.82546813 490.3982699 -459.27539062 495.77148438 C-465.97417337 502.35475665 -465.97417337 502.35475665 -472.28710938 509.30371094 C-477.43903682 515.32655945 -483.21018071 520.7818552 -488.84814453 526.34423828 C-495.76742502 533.13460876 -495.76742502 533.13460876 -502.28710938 540.30371094 C-507.60878506 546.53256303 -513.59471352 552.16536539 -519.42089844 557.91699219 C-526.56092577 564.91450797 -526.56092577 564.91450797 -533.28710938 572.30371094 C-538.7781409 578.73872125 -544.97930589 584.54902323 -550.99365234 590.48974609 C-558.35456163 597.69429023 -558.35456163 597.69429023 -565.28710938 605.30371094 C-570.94925916 611.94757656 -577.36249822 617.93137525 -583.56640625 624.0625 C-591.14837317 631.4738738 -591.14837317 631.4738738 -598.28710938 639.30371094 C-604.11807504 646.1543775 -610.74715764 652.31524498 -617.13916016 658.63525391 C-624.92788778 666.23657697 -624.92788778 666.23657697 -632.25585938 674.27246094 C-638.437919 681.54502052 -645.50564716 688.07244338 -652.28466797 694.78076172 C-660.54441723 702.8287495 -660.54441723 702.8287495 -668.31835938 711.33496094 C-674.47102218 718.59214728 -681.52764818 725.09421495 -688.28466797 731.78076172 C-696.53023792 739.8118776 -696.53023792 739.8118776 -704.28710938 748.30371094 C-710.62210181 755.77595865 -717.90147519 762.46752817 -724.85742188 769.35351562 C-726.8465204 771.32437435 -728.83248834 773.29835099 -730.81835938 775.27246094 C-731.41648437 775.8622876 -732.01460937 776.45211426 -732.63085938 777.05981445 C-735.64285787 780.05458472 -738.52734403 783.10675499 -741.3046875 786.32128906 C-744.71510735 790.26664881 -748.3260872 793.95485874 -752.03710938 797.61621094 C-752.69868042 798.27399536 -753.36025146 798.93177979 -754.04187012 799.60949707 C-756.83414081 802.38562652 -759.63241354 805.15567631 -762.43017578 807.92626953 C-764.48876836 809.96663174 -766.5442384 812.01010425 -768.59960938 814.05371094 C-769.21960815 814.66541138 -769.83960693 815.27711182 -770.47839355 815.90734863 C-773.54115163 818.95317513 -776.48098954 822.05163993 -779.3046875 825.32128906 C-782.78147557 829.34521672 -786.47253616 833.10054977 -790.25585938 836.83496094 C-790.93962646 837.51494141 -791.62339355 838.19492187 -792.32788086 838.89550781 C-795.21573711 841.76721237 -798.10959013 844.63284531 -801.00292969 847.49902344 C-803.13101662 849.60888881 -805.25598854 851.72185739 -807.38085938 853.83496094 C-808.02273193 854.46853516 -808.66460449 855.10210938 -809.32592773 855.75488281 C-812.43942615 858.85172716 -815.43468831 861.99652866 -818.3046875 865.32128906 C-821.84778061 869.4237918 -825.6189922 873.24629775 -829.47460938 877.05371094 C-830.18057251 877.75588745 -830.88653564 878.45806396 -831.6138916 879.18151855 C-834.59733313 882.1487986 -837.58676648 885.11001457 -840.57568359 888.07177734 C-842.77326516 890.25114559 -844.96773875 892.43361041 -847.16210938 894.61621094 C-847.82585571 895.27165894 -848.48960205 895.92710693 -849.17346191 896.60241699 C-852.34218785 899.7547257 -855.39716319 902.95095628 -858.31835938 906.33496094 C-861.85631407 910.43343787 -865.62355213 914.25080067 -869.47460938 918.05371094 C-870.18057251 918.75588745 -870.88653564 919.45806396 -871.6138916 920.18151855 C-874.59733313 923.1487986 -877.58676648 926.11001457 -880.57568359 929.07177734 C-882.77326516 931.25114559 -884.96773875 933.43361041 -887.16210938 935.61621094 C-887.82585571 936.27165894 -888.48960205 936.92710693 -889.17346191 937.60241699 C-892.34218785 940.7547257 -895.39716319 943.95095628 -898.31835938 947.33496094 C-901.85631407 951.43343787 -905.62355213 955.25080067 -909.47460938 959.05371094 C-910.18057251 959.75588745 -910.88653564 960.45806396 -911.6138916 961.18151855 C-914.59733313 964.1487986 -917.58676648 967.11001457 -920.57568359 970.07177734 C-922.77326516 972.25114559 -924.96773875 974.43361041 -927.16210938 976.61621094 C-927.82585571 977.27165894 -928.48960205 977.92710693 -929.17346191 978.60241699 C-932.34218785 981.7547257 -935.39716319 984.95095628 -938.31835938 988.33496094 C-941.85631407 992.43343787 -945.62355213 996.25080067 -949.47460938 1000.05371094 C-950.18057251 1000.75588745 -950.88653564 1001.45806396 -951.6138916 1002.18151855 C-954.59733313 1005.1487986 -957.58676648 1008.11001457 -960.57568359 1011.07177734 C-962.77326516 1013.25114559 -964.96773875 1015.43361041 -967.16210938 1017.61621094 C-967.82585571 1018.27165894 -968.48960205 1018.92710693 -969.17346191 1019.60241699 C-972.34218785 1022.7547257 -975.39716319 1025.95095628 -978.31835938 1029.33496094 C-981.85631407 1033.43343787 -985.62355213 1037.25080067 -989.47460938 1041.05371094 C-990.18057251 1041.75588745 -990.88653564 1042.45806396 -991.6138916 1043.18151855 C-994.59733313 1046.1487986 -997.58676648 1049.11001457 -1000.57568359 1052.07177734 C-1002.77326516 1054.25114559 -1004.96773875 1056.43361041 -1007.16210938 1058.61621094 C-1008.15772888 1059.59938293 -1008.15772888 1059.59938293 -1009.17346191 1060.60241699 C-1012.34218785 1063.7547257 -1015.39716319 1066.95095628 -1018.31835938 1070.33496094 C-1021.85631407 1074.43343787 -1025.62355213 1078.25080067 -1029.47460938 1082.05371094 C-1030.18057251 1082.75588745 -1030.88653564 1083.45806396 -1031.6138916 1084.18151855 C-1034.59733313 1087.1487986 -1037.58676648 1090.11001457 -1040.57568359 1093.07177734 C-1042.77326516 1095.25114559 -1044.96773875 1097.43361041 -1047.16210938 1099.61621094 C-1048.15772888 1100.59938293 -1048.15772888 1100.59938293 -1049.17346191 1101.60241699 C-1052.97973081 1105.38896554 -1056.56087132 1109.29682652 -1060.06848145 1113.36022949 C-1062.99123273 1116.65854463 -1066.12057272 1119.7402083 -1069.25585938 1122.83496094 C-1069.93962646 1123.51494141 -1070.62339355 1124.19492188 -1071.32788086 1124.89550781 C-1074.21573711 1127.76721237 -1077.10959013 1130.63284531 -1080.00292969 1133.49902344 C-1082.13101662 1135.60888881 -1084.25598854 1137.72185739 -1086.38085938 1139.83496094 C-1087.02273193 1140.46853516 -1087.66460449 1141.10210938 -1088.32592773 1141.75488281 C-1091.44392982 1144.85620674 -1094.44343137 1148.00605453 -1097.31835938 1151.33496094 C-1100.79003508 1155.35484717 -1104.47709246 1159.10504717 -1108.25585938 1162.83496094 C-1108.93962646 1163.51494141 -1109.62339355 1164.19492188 -1110.32788086 1164.89550781 C-1113.21573711 1167.76721237 -1116.10959013 1170.63284531 -1119.00292969 1173.49902344 C-1121.13101662 1175.60888881 -1123.25598854 1177.72185739 -1125.38085938 1179.83496094 C-1126.02273193 1180.46853516 -1126.66460449 1181.10210938 -1127.32592773 1181.75488281 C-1131.08738379 1185.49621888 -1134.62071348 1189.36484646 -1138.08764648 1193.37939453 C-1140.86617686 1196.51891044 -1143.83427553 1199.45477804 -1146.81835938 1202.39746094 C-1147.45773437 1203.03304932 -1148.09710937 1203.6686377 -1148.75585938 1204.32348633 C-1151.45254421 1207.00404109 -1154.15523668 1209.67850758 -1156.85742188 1212.35351562 C-1165.33856657 1220.6079007 -1165.33856657 1220.6079007 -1173.31835938 1229.33496094 C-1179.63836358 1236.79965978 -1186.91253259 1243.47847437 -1193.85742188 1250.35351562 C-1203.14689062 1259.50365379 -1203.14689062 1259.50365379 -1211.88085938 1269.17480469 C-1217.69919408 1275.66177866 -1224.09280234 1281.65347477 -1230.28466797 1287.78076172 C-1239.37560531 1296.74640929 -1239.37560531 1296.74640929 -1247.92578125 1306.21972656 C-1253.36309081 1312.2967196 -1259.34262062 1317.90400122 -1265.13916016 1323.63525391 C-1272.95652272 1331.27007378 -1272.95652272 1331.27007378 -1280.31835938 1339.33496094 C-1286.13506735 1346.17772175 -1292.75807468 1352.32603906 -1299.13916016 1358.63525391 C-1307.80135071 1367.20122065 -1307.80135071 1367.20122065 -1315.953125 1376.24707031 C-1321.01700609 1381.91543563 -1326.58735531 1387.14962932 -1331.99365234 1392.48974609 C-1339.36902118 1399.71089344 -1339.36902118 1399.71089344 -1346.31835938 1407.33496094 C-1351.79552979 1413.76177507 -1357.99016079 1419.55974526 -1363.99365234 1425.48974609 C-1369.5040977 1430.93876672 -1374.95000814 1436.37176126 -1379.98046875 1442.27441406 C-1384.67357227 1447.53607635 -1389.83050617 1452.39386478 -1394.84814453 1457.34423828 C-1401.78202137 1464.15109664 -1401.78202137 1464.15109664 -1408.31835938 1471.33496094 C-1413.45685868 1477.3494109 -1419.22095331 1482.7924834 -1424.84814453 1488.34423828 C-1430.08538296 1493.51758744 -1435.22238658 1498.70056901 -1440.0078125 1504.30175781 C-1444.75937154 1509.63765098 -1449.99424661 1514.54372106 -1455.08007812 1519.55761719 C-1458.94575701 1523.38982699 -1462.77629861 1527.19907181 -1466.31835938 1531.33496094 C-1471.53516224 1537.42636358 -1477.37323678 1542.93149495 -1483.08007812 1548.55761719 C-1487.57942554 1553.01800921 -1491.91481384 1557.51798156 -1496.03515625 1562.32910156 C-1500.37178756 1567.20721805 -1505.14120448 1571.69220027 -1509.79101562 1576.26855469 C-1513.4217511 1579.8643232 -1516.98893294 1583.45643049 -1520.31835938 1587.33496094 C-1525.14968324 1592.9630885 -1530.50833316 1598.06932692 -1535.79101562 1603.26855469 C-1540.05308318 1607.48957504 -1544.12494496 1611.77464484 -1548.03125 1616.32519531 C-1552.16892101 1620.97837943 -1556.7084417 1625.26044456 -1561.14648438 1629.62402344 C-1565.29487207 1633.73008065 -1569.24135914 1637.91306262 -1573.04492188 1642.33886719 C-1576.97550002 1646.76293202 -1581.28173038 1650.83476537 -1585.50195312 1654.97949219 C-1588.89754498 1658.33824218 -1592.20253706 1661.71348518 -1595.31835938 1665.33496094 C-1599.7627119 1670.50056838 -1604.64343026 1675.20788386 -1609.50195312 1679.97949219 C-1613.53658428 1683.97034796 -1617.35807675 1688.05148102 -1621.05859375 1692.35253906 C-1624.78227846 1696.54736701 -1628.85491476 1700.40913021 -1632.85742188 1704.33496094 C-1636.77822708 1708.21035141 -1640.47511033 1712.18992179 -1644.07226562 1716.36621094 C-1647.00464338 1719.67251606 -1650.16419696 1722.74214628 -1653.31835938 1725.83496094 C-1657.68583453 1730.15587791 -1661.92469857 1734.48196617 -1665.88476562 1739.18261719 C-1669.32654986 1743.01377499 -1673.04353772 1746.57853121 -1676.703125 1750.20019531 C-1680.26555976 1753.73981832 -1683.64730599 1757.34504152 -1686.88867188 1761.18261719 C-1691.61954795 1766.45936358 -1696.7746931 1771.35955481 -1701.81835938 1776.33496094 C-1694.69499886 1772.52936056 -1687.91068541 1768.28038947 -1681.13085938 1763.89746094 C-1679.46565252 1762.82627812 -1677.80044225 1761.75510052 -1676.13493347 1760.68438721 C-1675.00647291 1759.95877014 -1673.87822806 1759.23281748 -1672.75019836 1758.50653076 C-1667.38926162 1755.0551337 -1662.0120092 1751.62972523 -1656.63085938 1748.20996094 C-1655.7360083 1747.64092041 -1654.84115723 1747.07187988 -1653.91918945 1746.4855957 C-1652.11954077 1745.34119123 -1650.31981783 1744.19690352 -1648.52001953 1743.05273438 C-1643.9518988 1740.1482253 -1639.38520861 1737.24146865 -1634.81835938 1734.33496094 C-1632.98503274 1733.16828374 -1631.15169941 1732.00161707 -1629.31835938 1730.83496094 C-1628.41085937 1730.25746094 -1627.50335937 1729.67996094 -1626.56835938 1729.08496094 C-1572.48502604 1694.66829427 -1518.40169271 1660.2516276 -1464.31835938 1625.83496094 C-1463.41061768 1625.2572998 -1462.50287598 1624.67963867 -1461.56762695 1624.08447266 C-1459.73676184 1622.91939146 -1457.90586997 1621.7543523 -1456.07495117 1620.58935547 C-1451.45363225 1617.64877773 -1446.83280017 1614.70744001 -1442.21289062 1611.76464844 C-1432.81812709 1605.78139121 -1423.41520028 1599.81168218 -1413.99462891 1593.86914062 C-1405.18619547 1588.30997518 -1396.40179976 1582.71312387 -1387.61669922 1577.1171875 C-1383.01812175 1574.18841281 -1378.4181791 1571.26178403 -1373.81835938 1568.33496094 C-1371.98501934 1567.16830481 -1370.15168601 1566.00163813 -1368.31835938 1564.83496094 C-1291.31835938 1515.83496094 -1214.31835938 1466.83496094 -1137.31835938 1417.83496094 C-1136.41061768 1417.2572998 -1135.50287598 1416.67963867 -1134.56762695 1416.08447266 C-1132.73676184 1414.91939146 -1130.90586997 1413.7543523 -1129.07495117 1412.58935547 C-1124.45363225 1409.64877773 -1119.83280017 1406.70744001 -1115.21289062 1403.76464844 C-1105.81812709 1397.78139121 -1096.41520028 1391.81168218 -1086.99462891 1385.86914062 C-1078.18619547 1380.30997518 -1069.40179976 1374.71312387 -1060.61669922 1369.1171875 C-1056.01812175 1366.18841281 -1051.4181791 1363.26178403 -1046.81835938 1360.33496094 C-1044.98501934 1359.16830481 -1043.15168601 1358.00163813 -1041.31835938 1356.83496094 C-971.65169271 1312.5016276 -901.98502604 1268.16829427 -832.31835938 1223.83496094 C-831.41061768 1223.2572998 -830.50287598 1222.67963867 -829.56762695 1222.08447266 C-827.73676184 1220.91939146 -825.90586997 1219.7543523 -824.07495117 1218.58935547 C-819.45363225 1215.64877773 -814.83280017 1212.70744001 -810.21289062 1209.76464844 C-800.81812709 1203.78139121 -791.41520028 1197.81168218 -781.99462891 1191.86914062 C-773.18619547 1186.30997518 -764.40179976 1180.71312387 -755.61669922 1175.1171875 C-751.01812175 1172.18841281 -746.4181791 1169.26178403 -741.81835938 1166.33496094 C-739.98501934 1165.16830481 -738.15168601 1164.00163813 -736.31835938 1162.83496094 C-717.98502604 1151.16829427 -699.65169271 1139.5016276 -681.31835938 1127.83496094 C-680.40948975 1127.25649414 -679.50062012 1126.67802734 -678.56420898 1126.08203125 C-676.7450592 1124.92458163 -674.92556475 1123.76767356 -673.10571289 1122.61132812 C-668.302291 1119.5581706 -663.50658 1116.49368532 -658.72070312 1113.41308594 C-657.72232422 1112.77242187 -656.72394531 1112.13175781 -655.6953125 1111.47167969 C-653.7816321 1110.2433639 -651.87005772 1109.01175875 -649.9609375 1107.77636719 C-649.09791016 1107.22335937 -648.23488281 1106.67035156 -647.34570312 1106.10058594 C-646.59023193 1105.61364258 -645.83476074 1105.12669922 -645.05639648 1104.625 C-642.70991391 1103.2724513 -640.35310287 1102.28063994 -637.81835938 1101.33496094 C-631.1346001 1111.82417012 -624.45321028 1122.31472509 -617.81835938 1132.83496094 C-613.50185233 1139.67906764 -609.16557468 1146.5103195 -604.81835938 1153.33496094 C-597.96958136 1164.08782349 -591.15989584 1174.86501456 -584.359375 1185.6484375 C-578.53091326 1194.88915621 -572.68751926 1204.12002654 -566.81835938 1213.33496094 C-559.96964074 1224.08786154 -553.15989604 1234.86501424 -546.359375 1245.6484375 C-540.53091326 1254.88915621 -534.68751926 1264.12002654 -528.81835938 1273.33496094 C-521.96964074 1284.08786154 -515.15989604 1294.86501424 -508.359375 1305.6484375 C-502.53091326 1314.88915621 -496.68751926 1324.12002654 -490.81835938 1333.33496094 C-484.95203411 1342.5454448 -479.1116292 1351.77195096 -473.28613281 1361.00830078 C-470.79852582 1364.95156337 -468.30832553 1368.89318778 -465.81835938 1372.83496094 C-462.84055066 1377.54901957 -459.86320103 1382.2633633 -456.88867188 1386.97949219 C-451.54952683 1395.44260508 -446.19395738 1403.89494841 -440.81835938 1412.33496094 C-433.96964074 1423.08786154 -427.15989604 1433.86501424 -420.359375 1444.6484375 C-414.53091326 1453.88915621 -408.68751926 1463.12002654 -402.81835938 1472.33496094 C-395.96964074 1483.08786154 -389.15989604 1493.86501424 -382.359375 1504.6484375 C-376.53091326 1513.88915621 -370.68751926 1523.12002654 -364.81835938 1532.33496094 C-357.96964074 1543.08786154 -351.15989604 1553.86501424 -344.359375 1564.6484375 C-338.53091326 1573.88915621 -332.68751926 1583.12002654 -326.81835938 1592.33496094 C-319.96964074 1603.08786154 -313.15989604 1613.86501424 -306.359375 1624.6484375 C-300.53091326 1633.88915621 -294.68751926 1643.12002654 -288.81835938 1652.33496094 C-281.96964074 1663.08786154 -275.15989604 1673.86501424 -268.359375 1684.6484375 C-262.53091326 1693.88915621 -256.68751926 1703.12002654 -250.81835938 1712.33496094 C-244.95203411 1721.5454448 -239.1116292 1730.77195096 -233.28613281 1740.00830078 C-230.79852582 1743.95156337 -228.30832553 1747.89318778 -225.81835938 1751.83496094 C-222.84055066 1756.54901957 -219.86320103 1761.2633633 -216.88867188 1765.97949219 C-211.54952683 1774.44260508 -206.19395738 1782.89494841 -200.81835938 1791.33496094 C-193.96964074 1802.08786154 -187.15989604 1812.86501424 -180.359375 1823.6484375 C-174.53091326 1832.88915621 -168.68751926 1842.12002654 -162.81835938 1851.33496094 C-155.96964074 1862.08786154 -149.15989604 1872.86501424 -142.359375 1883.6484375 C-136.53091326 1892.88915621 -130.68751926 1902.12002654 -124.81835938 1911.33496094 C-117.96964074 1922.08786154 -111.15989604 1932.86501424 -104.359375 1943.6484375 C-98.53091247 1952.88915747 -92.68726438 1962.11986331 -86.81835938 1971.33496094 C-84.48450291 1975.0012949 -82.15126925 1978.6680246 -79.81835938 1982.33496094 C-79.23892578 1983.24536133 -78.65949219 1984.15576172 -78.0625 1985.09375 C-76.39569294 1987.71449805 -74.73162423 1990.33696379 -73.06835938 1992.95996094 C-72.31619141 1994.14138672 -72.31619141 1994.14138672 -71.54882812 1995.34667969 C-70.85466797 1996.44302734 -70.85466797 1996.44302734 -70.14648438 1997.56152344 C-69.74333008 1998.19654785 -69.34017578 1998.83157227 -68.92480469 1999.48583984 C-67.78406032 2001.39228245 -66.78652224 2003.33611955 -65.81835938 2005.33496094 C-71.00020271 2004.73823258 -75.7288423 2003.5532574 -80.67330933 2001.87922668 C-81.43440416 2001.62690283 -82.19549898 2001.37457898 -82.97965729 2001.11460894 C-85.51750427 2000.27162474 -88.05240864 1999.4201259 -90.58740234 1998.56860352 C-92.41334296 1997.96012637 -94.2394585 1997.3521739 -96.06573486 1996.7447052 C-101.0284182 1995.09228485 -105.9885811 1993.43241519 -110.94830847 1991.77114701 C-116.18079891 1990.01985158 -121.41549783 1988.27518156 -126.64993286 1986.52970886 C-135.4764492 1983.585385 -144.30147481 1980.63663039 -153.12548828 1977.68481445 C-164.3194478 1973.94021658 -175.51560294 1970.20223289 -186.71258354 1966.46667957 C-196.45635392 1963.21594282 -206.19924587 1959.96257618 -215.9419198 1956.70855498 C-218.00170128 1956.0206267 -220.06150856 1955.33277569 -222.12134314 1954.64500642 C-241.97179792 1948.01694443 -261.81800712 1941.37942106 -281.61377263 1934.5895046 C-309.37712636 1925.06788363 -337.23393866 1915.82544137 -365.08233611 1906.55637659 C-372.9597976 1903.93433236 -380.83656096 1901.31019369 -388.71327704 1898.68591124 C-402.80442567 1893.9911965 -416.89594811 1889.29760494 -430.98779297 1884.60498047 C-432.24228588 1884.18723007 -432.24228588 1884.18723007 -433.52212209 1883.76104027 C-439.45419091 1881.78564964 -445.38627353 1879.81030045 -451.31835938 1877.83496094 C-458.09522438 1875.57831638 -464.87208311 1873.32165302 -471.64892578 1871.06494141 C-472.4841883 1870.78679661 -473.31945082 1870.50865181 -474.18002433 1870.22207838 C-488.23359161 1865.54215802 -502.28674754 1860.86100354 -516.33962488 1856.17901182 C-524.17429096 1853.56879726 -532.00916671 1850.95921563 -539.84458923 1848.35127258 C-595.47354412 1829.83541042 -595.47354412 1829.83541042 -617.27734375 1822.34863281 C-644.01046372 1813.16938003 -670.84464767 1804.28918895 -697.66298565 1795.36282679 C-705.62440016 1792.7127971 -713.58511714 1790.06067479 -721.54578662 1787.40840805 C-735.78667822 1782.66377924 -750.02794363 1777.92027357 -764.26953125 1773.17773438 C-765.53748193 1772.75549805 -765.53748193 1772.75549805 -766.83104777 1772.32473171 C-772.82680804 1770.32811061 -778.8225821 1768.33153094 -784.81835938 1766.33496094 C-791.66797828 1764.05406507 -798.51759092 1761.7731504 -805.3671875 1759.4921875 C-806.21141101 1759.21105571 -807.05563451 1758.92992391 -807.92544055 1758.64027297 C-822.12816932 1753.91063161 -836.33048698 1749.17975684 -850.53252602 1744.44804478 C-858.45102919 1741.80988475 -866.36974231 1739.17235842 -874.28900146 1736.53646851 C-903.23923898 1726.90033803 -932.18748712 1717.26319425 -961.0493052 1707.36450052 C-961.82617047 1707.09806789 -962.60303574 1706.83163526 -963.40344238 1706.55712891 C-964.17279043 1706.29326055 -964.94213848 1706.02939219 -965.7348001 1705.75752783 C-992.16286127 1696.70196129 -1018.66939484 1687.87255673 -1045.16048813 1679.00356293 C-1055.46712021 1675.55265458 -1065.77147127 1672.09520778 -1076.07080078 1668.62255859 C-1085.17527118 1665.55278854 -1094.28350039 1662.4945027 -1103.39656758 1659.45034361 C-1108.18830643 1657.84928261 -1112.97800303 1656.24264678 -1117.76320648 1654.62214661 C-1122.22738219 1653.11058289 -1126.6964356 1651.61448261 -1131.16979408 1650.13032341 C-1132.80803013 1649.58376746 -1134.44438585 1649.03153838 -1136.07867241 1648.47328377 C-1138.30547331 1647.71356946 -1140.53809325 1646.97442278 -1142.77337646 1646.2401123 C-1144.64447397 1645.61199268 -1144.64447397 1645.61199268 -1146.55337143 1644.97118378 C-1150.18488937 1644.26353808 -1151.61443177 1644.60512432 -1154.81835938 1646.33496094 C-1155.4607959 1646.64473877 -1156.10323242 1646.9545166 -1156.76513672 1647.27368164 C-1158.91001563 1648.39435177 -1161.05395821 1649.51635223 -1163.19335938 1650.64746094 C-1164.4396814 1651.30452026 -1164.4396814 1651.30452026 -1165.71118164 1651.97485352 C-1173.09931127 1655.89862063 -1180.36839859 1660.01985926 -1187.63427734 1664.16430664 C-1195.2949063 1668.51627648 -1203.03984023 1672.69887673 -1210.81835938 1676.83496094 C-1219.38358503 1681.39010962 -1227.89335034 1686.02416297 -1236.31835938 1690.83496094 C-1244.84910539 1695.70526329 -1253.46268268 1700.40299248 -1262.13085938 1705.02246094 C-1271.88522894 1710.22173857 -1281.58739336 1715.49957816 -1291.23486328 1720.89453125 C-1296.79548031 1723.99485637 -1302.36965003 1727.07075537 -1307.94335938 1730.14746094 C-1308.56529175 1730.49084503 -1309.18722412 1730.83422913 -1309.82800293 1731.1880188 C-1319.36097329 1736.44943643 -1328.92318777 1741.65459991 -1338.50366211 1746.82910156 C-1344.90167139 1750.28777526 -1351.27447533 1753.78770682 -1357.62646484 1757.33007812 C-1365.86018269 1761.92150553 -1374.11685113 1766.47123358 -1382.37255859 1771.02294922 C-1383.6357422 1771.71940103 -1384.89892579 1772.41585285 -1386.16210938 1773.11230469 C-1386.7936795 1773.46049255 -1387.42524963 1773.80868042 -1388.07595825 1774.16741943 C-1392.48135421 1776.59653745 -1396.88466755 1779.02940012 -1401.28710938 1781.46386719 C-1403.7348701 1782.81701409 -1406.18279653 1784.16986071 -1408.63085938 1785.52246094 C-1409.23404999 1785.85575409 -1409.8372406 1786.18904724 -1410.45870972 1786.53244019 C-1418.68001331 1791.07318432 -1426.92577775 1795.56642042 -1435.19335938 1800.02246094 C-1442.87190494 1804.16105826 -1450.48986834 1808.39101478 -1458.06835938 1812.70996094 C-1466.68409061 1817.61828974 -1475.38113556 1822.3588981 -1484.13085938 1827.02246094 C-1493.88514959 1832.2218901 -1503.5873906 1837.49957662 -1513.23486328 1842.89453125 C-1518.79548031 1845.99485637 -1524.36965003 1849.07075537 -1529.94335938 1852.14746094 C-1530.56529175 1852.49084503 -1531.18722412 1852.83422913 -1531.82800293 1853.1880188 C-1541.36097329 1858.44943643 -1550.92318777 1863.65459991 -1560.50366211 1868.82910156 C-1566.90167139 1872.28777526 -1573.27447533 1875.78770682 -1579.62646484 1879.33007812 C-1587.86018269 1883.92150553 -1596.11685113 1888.47123358 -1604.37255859 1893.02294922 C-1605.6357422 1893.71940103 -1606.89892579 1894.41585285 -1608.16210938 1895.11230469 C-1608.7936795 1895.46049255 -1609.42524963 1895.80868042 -1610.07595825 1896.16741943 C-1614.48135421 1898.59653745 -1618.88466755 1901.02940012 -1623.28710938 1903.46386719 C-1625.7348701 1904.81701409 -1628.18279653 1906.16986071 -1630.63085938 1907.52246094 C-1631.23404999 1907.85575409 -1631.8372406 1908.18904724 -1632.45870972 1908.53244019 C-1640.68001331 1913.07318432 -1648.92577775 1917.56642042 -1657.19335938 1922.02246094 C-1664.87190494 1926.16105826 -1672.48986834 1930.39101478 -1680.06835938 1934.70996094 C-1688.68409061 1939.61828974 -1697.38113556 1944.3588981 -1706.13085938 1949.02246094 C-1715.88514959 1954.2218901 -1725.5873906 1959.49957662 -1735.23486328 1964.89453125 C-1740.79548031 1967.99485637 -1746.36965003 1971.07075537 -1751.94335938 1974.14746094 C-1752.56529175 1974.49084503 -1753.18722412 1974.83422913 -1753.82800293 1975.1880188 C-1763.36097329 1980.44943643 -1772.92318777 1985.65459991 -1782.50366211 1990.82910156 C-1789.63891381 1994.68631813 -1796.73776437 1998.60429155 -1803.82226562 2002.55371094 C-1810.18719281 2006.10081114 -1816.56445654 2009.62557706 -1822.94335938 2013.14746094 C-1823.5649292 2013.49066376 -1824.18649902 2013.83386658 -1824.8269043 2014.18746948 C-1834.36024584 2019.44905991 -1843.92282856 2024.6544059 -1853.50366211 2029.82910156 C-1859.90167139 2033.28777526 -1866.27447533 2036.78770682 -1872.62646484 2040.33007812 C-1880.86018269 2044.92150553 -1889.11685113 2049.47123358 -1897.37255859 2054.02294922 C-1898.6357422 2054.71940103 -1899.89892579 2055.41585285 -1901.16210938 2056.11230469 C-1901.7936795 2056.46049255 -1902.42524963 2056.80868042 -1903.07595825 2057.16741943 C-1907.48135421 2059.59653745 -1911.88466755 2062.02940012 -1916.28710938 2064.46386719 C-1918.7348701 2065.81701409 -1921.18279653 2067.16986071 -1923.63085938 2068.52246094 C-1924.23404999 2068.85575409 -1924.8372406 2069.18904724 -1925.45870972 2069.53244019 C-1933.68001331 2074.07318432 -1941.92577775 2078.56642042 -1950.19335938 2083.02246094 C-1957.87190494 2087.16105826 -1965.48986834 2091.39101478 -1973.06835938 2095.70996094 C-1981.68409061 2100.61828974 -1990.38113556 2105.3588981 -1999.13085938 2110.02246094 C-2008.88514959 2115.2218901 -2018.5873906 2120.49957662 -2028.23486328 2125.89453125 C-2033.79548031 2128.99485637 -2039.36965003 2132.07075537 -2044.94335938 2135.14746094 C-2045.56529175 2135.49084503 -2046.18722412 2135.83422913 -2046.82800293 2136.1880188 C-2056.36097329 2141.44943643 -2065.92318777 2146.65459991 -2075.50366211 2151.82910156 C-2081.90167139 2155.28777526 -2088.27447533 2158.78770682 -2094.62646484 2162.33007812 C-2102.86018269 2166.92150553 -2111.11685113 2171.47123358 -2119.37255859 2176.02294922 C-2120.6357422 2176.71940103 -2121.89892579 2177.41585285 -2123.16210938 2178.11230469 C-2123.7936795 2178.46049255 -2124.42524963 2178.80868042 -2125.07595825 2179.16741943 C-2129.48135421 2181.59653745 -2133.88466755 2184.02940012 -2138.28710938 2186.46386719 C-2140.7348701 2187.81701409 -2143.18279653 2189.16986071 -2145.63085938 2190.52246094 C-2146.23404999 2190.85575409 -2146.8372406 2191.18904724 -2147.45870972 2191.53244019 C-2155.68001331 2196.07318432 -2163.92577775 2200.56642042 -2172.19335938 2205.02246094 C-2179.87190494 2209.16105826 -2187.48986834 2213.39101478 -2195.06835938 2217.70996094 C-2203.68409061 2222.61828974 -2212.38113556 2227.3588981 -2221.13085938 2232.02246094 C-2230.88514959 2237.2218901 -2240.5873906 2242.49957662 -2250.23486328 2247.89453125 C-2255.79548031 2250.99485637 -2261.36965003 2254.07075537 -2266.94335938 2257.14746094 C-2267.56529175 2257.49084503 -2268.18722412 2257.83422913 -2268.82800293 2258.1880188 C-2278.36097329 2263.44943643 -2287.92318777 2268.65459991 -2297.50366211 2273.82910156 C-2303.90167139 2277.28777526 -2310.27447533 2280.78770682 -2316.62646484 2284.33007812 C-2324.86018269 2288.92150553 -2333.11685113 2293.47123358 -2341.37255859 2298.02294922 C-2342.6357422 2298.71940103 -2343.89892579 2299.41585285 -2345.16210938 2300.11230469 C-2345.7936795 2300.46049255 -2346.42524963 2300.80868042 -2347.07595825 2301.16741943 C-2351.48135421 2303.59653745 -2355.8846679 2306.02939948 -2360.28710938 2308.46386719 C-2362.7348682 2309.81701753 -2365.18279226 2311.16986843 -2367.63085938 2312.52246094 C-2368.23105896 2312.85409241 -2368.83125854 2313.18572388 -2369.449646 2313.52740479 C-2378.84658687 2318.71729 -2388.27428887 2323.84848823 -2397.72827148 2328.93383789 C-2404.37910388 2332.5210282 -2410.92753859 2336.24729005 -2417.40429688 2340.13964844 C-2418.59925781 2340.73132812 -2418.59925781 2340.73132812 -2419.81835938 2341.33496094 C-2420.47835937 2341.00496094 -2421.13835938 2340.67496094 -2421.81835938 2340.33496094 C-2415.27415597 2331.90762961 -2408.60438491 2323.59893126 -2401.80444336 2315.37646484 C-2398.13447795 2310.93778024 -2394.50482203 2306.47168845 -2390.91992188 2301.96386719 C-2388.17545908 2298.53073807 -2385.40377611 2295.12012426 -2382.63085938 2291.70996094 C-2382.07664307 2291.02812744 -2381.52242676 2290.34629395 -2380.95141602 2289.64379883 C-2378.13001733 2286.17389592 -2375.3059028 2282.70623586 -2372.47851562 2279.24121094 C-2367.3254327 2272.9202689 -2362.20552959 2266.5809125 -2357.19335938 2260.14746094 C-2353.22961186 2255.06143894 -2349.12846193 2250.11862609 -2344.9362793 2245.2199707 C-2341.22027073 2240.8582144 -2337.67804317 2236.37816297 -2334.16088867 2231.85546875 C-2329.80837688 2226.27773143 -2325.3104628 2220.82502066 -2320.80175781 2215.37329102 C-2317.13507906 2210.93842792 -2313.50758963 2206.47709581 -2309.92773438 2201.97167969 C-2307.14310319 2198.49089071 -2304.3226731 2195.03972048 -2301.50585938 2191.58496094 C-2297.34580579 2186.48121091 -2293.23863311 2181.34258238 -2289.19335938 2176.14746094 C-2285.22975797 2171.06132865 -2281.12845653 2166.11861977 -2276.9362793 2161.2199707 C-2273.21789762 2156.85542891 -2269.67330682 2152.37257398 -2266.15429688 2147.84667969 C-2261.87787277 2142.36562908 -2257.45242428 2137.01383244 -2253.01708984 2131.66113281 C-2249.31903262 2127.18736576 -2245.693573 2122.66706373 -2242.13085938 2118.08496094 C-2238.1895983 2113.01762527 -2234.10972509 2108.0966486 -2229.93603516 2103.21972656 C-2226.22015809 2098.85801033 -2222.67797284 2094.37807254 -2219.16088867 2089.85546875 C-2214.80837688 2084.27773143 -2210.3104628 2078.82502066 -2205.80175781 2073.37329102 C-2202.13507906 2068.93842792 -2198.50758963 2064.47709581 -2194.92773438 2059.97167969 C-2192.14310319 2056.49089071 -2189.3226731 2053.03972048 -2186.50585938 2049.58496094 C-2182.34580579 2044.48121091 -2178.23863311 2039.34258238 -2174.19335938 2034.14746094 C-2170.22975797 2029.06132865 -2166.12845653 2024.11861977 -2161.9362793 2019.2199707 C-2158.21789762 2014.85542891 -2154.67330682 2010.37257398 -2151.15429688 2005.84667969 C-2146.87787277 2000.36562908 -2142.45242428 1995.01383244 -2138.01708984 1989.66113281 C-2134.31903262 1985.18736576 -2130.693573 1980.66706373 -2127.13085938 1976.08496094 C-2123.1895983 1971.01762527 -2119.10972509 1966.0966486 -2114.93603516 1961.21972656 C-2111.22015809 1956.85801033 -2107.67797284 1952.37807254 -2104.16088867 1947.85546875 C-2099.80837688 1942.27773143 -2095.3104628 1936.82502066 -2090.80175781 1931.37329102 C-2087.13507906 1926.93842792 -2083.50758963 1922.47709581 -2079.92773438 1917.97167969 C-2077.14310319 1914.49089071 -2074.3226731 1911.03972048 -2071.50585938 1907.58496094 C-2067.34580579 1902.48121091 -2063.23863311 1897.34258238 -2059.19335938 1892.14746094 C-2055.22975797 1887.06132865 -2051.12845653 1882.11861977 -2046.9362793 1877.2199707 C-2043.21789762 1872.85542891 -2039.67330682 1868.37257398 -2036.15429688 1863.84667969 C-2031.87787277 1858.36562908 -2027.45242428 1853.01383244 -2023.01708984 1847.66113281 C-2019.31903262 1843.18736576 -2015.693573 1838.66706373 -2012.13085938 1834.08496094 C-2008.1895983 1829.01762527 -2004.10972509 1824.0966486 -1999.93603516 1819.21972656 C-1996.22015809 1814.85801033 -1992.67797284 1810.37807254 -1989.16088867 1805.85546875 C-1984.80837688 1800.27773143 -1980.3104628 1794.82502066 -1975.80175781 1789.37329102 C-1972.13507906 1784.93842792 -1968.50758963 1780.47709581 -1964.92773438 1775.97167969 C-1962.14310319 1772.49089071 -1959.3226731 1769.03972048 -1956.50585938 1765.58496094 C-1952.34580579 1760.48121091 -1948.23863311 1755.34258238 -1944.19335938 1750.14746094 C-1940.22975797 1745.06132865 -1936.12845653 1740.11861977 -1931.9362793 1735.2199707 C-1928.21789762 1730.85542891 -1924.67330682 1726.37257398 -1921.15429688 1721.84667969 C-1916.87787277 1716.36562908 -1912.45242428 1711.01383244 -1908.01708984 1705.66113281 C-1904.31903262 1701.18736576 -1900.693573 1696.66706373 -1897.13085938 1692.08496094 C-1893.1895983 1687.01762527 -1889.10972509 1682.0966486 -1884.93603516 1677.21972656 C-1881.22015809 1672.85801033 -1877.67797284 1668.37807254 -1874.16088867 1663.85546875 C-1869.80837688 1658.27773143 -1865.3104628 1652.82502066 -1860.80175781 1647.37329102 C-1857.13507906 1642.93842792 -1853.50758963 1638.47709581 -1849.92773438 1633.97167969 C-1847.14310319 1630.49089071 -1844.3226731 1627.03972048 -1841.50585938 1623.58496094 C-1837.34580579 1618.48121091 -1833.23863311 1613.34258238 -1829.19335938 1608.14746094 C-1825.22975797 1603.06132865 -1821.12845653 1598.11861977 -1816.9362793 1593.2199707 C-1813.21789762 1588.85542891 -1809.67330682 1584.37257398 -1806.15429688 1579.84667969 C-1801.87787277 1574.36562908 -1797.45242428 1569.01383244 -1793.01708984 1563.66113281 C-1789.31903262 1559.18736576 -1785.693573 1554.66706373 -1782.13085938 1550.08496094 C-1778.1895983 1545.01762527 -1774.10972509 1540.0966486 -1769.93603516 1535.21972656 C-1766.22015809 1530.85801033 -1762.67797284 1526.37807254 -1759.16088867 1521.85546875 C-1754.80837688 1516.27773143 -1750.3104628 1510.82502066 -1745.80175781 1505.37329102 C-1742.13507906 1500.93842792 -1738.50758963 1496.47709581 -1734.92773438 1491.97167969 C-1732.14310319 1488.49089071 -1729.3226731 1485.03972048 -1726.50585938 1481.58496094 C-1722.34580579 1476.48121091 -1718.23863311 1471.34258238 -1714.19335938 1466.14746094 C-1710.22975797 1461.06132865 -1706.12845653 1456.11861977 -1701.9362793 1451.2199707 C-1698.21789762 1446.85542891 -1694.67330682 1442.37257398 -1691.15429688 1437.84667969 C-1686.87787277 1432.36562908 -1682.45242428 1427.01383244 -1678.01708984 1421.66113281 C-1674.31903262 1417.18736576 -1670.693573 1412.66706373 -1667.13085938 1408.08496094 C-1663.1895983 1403.01762527 -1659.10972509 1398.0966486 -1654.93603516 1393.21972656 C-1651.22015809 1388.85801033 -1647.67797284 1384.37807254 -1644.16088867 1379.85546875 C-1639.80837688 1374.27773143 -1635.3104628 1368.82502066 -1630.80175781 1363.37329102 C-1627.13507906 1358.93842792 -1623.50758963 1354.47709581 -1619.92773438 1349.97167969 C-1617.14310319 1346.49089071 -1614.3226731 1343.03972048 -1611.50585938 1339.58496094 C-1607.34580579 1334.48121091 -1603.23863311 1329.34258238 -1599.19335938 1324.14746094 C-1595.22975797 1319.06132865 -1591.12845653 1314.11861977 -1586.9362793 1309.2199707 C-1583.22027073 1304.8582144 -1579.67804317 1300.37816297 -1576.16088867 1295.85546875 C-1571.80837688 1290.27773143 -1567.3104628 1284.82502066 -1562.80175781 1279.37329102 C-1559.13275201 1274.93561333 -1555.50395871 1270.47060287 -1551.91992188 1265.96386719 C-1549.17545908 1262.53073807 -1546.40377611 1259.12012426 -1543.63085938 1255.70996094 C-1543.07664307 1255.02812744 -1542.52242676 1254.34629395 -1541.95141602 1253.64379883 C-1539.13001733 1250.17389592 -1536.3059028 1246.70623586 -1533.47851562 1243.24121094 C-1528.3254327 1236.9202689 -1523.20552959 1230.5809125 -1518.19335938 1224.14746094 C-1514.22961186 1219.06143894 -1510.12846193 1214.11862609 -1505.9362793 1209.2199707 C-1502.22027073 1204.8582144 -1498.67804317 1200.37816297 -1495.16088867 1195.85546875 C-1490.80837688 1190.27773143 -1486.3104628 1184.82502066 -1481.80175781 1179.37329102 C-1478.13507906 1174.93842792 -1474.50758963 1170.47709581 -1470.92773438 1165.97167969 C-1468.14310319 1162.49089071 -1465.3226731 1159.03972048 -1462.50585938 1155.58496094 C-1458.34580579 1150.48121091 -1454.23863311 1145.34258238 -1450.19335938 1140.14746094 C-1446.22975797 1135.06132865 -1442.12845653 1130.11861977 -1437.9362793 1125.2199707 C-1434.21789762 1120.85542891 -1430.67330682 1116.37257398 -1427.15429688 1111.84667969 C-1422.87787277 1106.36562908 -1418.45242428 1101.01383244 -1414.01708984 1095.66113281 C-1410.31903262 1091.18736576 -1406.693573 1086.66706373 -1403.13085938 1082.08496094 C-1399.1895983 1077.01762527 -1395.10972509 1072.0966486 -1390.93603516 1067.21972656 C-1387.22015809 1062.85801033 -1383.67797284 1058.37807254 -1380.16088867 1053.85546875 C-1375.80837688 1048.27773143 -1371.3104628 1042.82502066 -1366.80175781 1037.37329102 C-1363.13507906 1032.93842792 -1359.50758963 1028.47709581 -1355.92773438 1023.97167969 C-1353.14310319 1020.49089071 -1350.3226731 1017.03972048 -1347.50585938 1013.58496094 C-1343.34580579 1008.48121091 -1339.23863311 1003.34258238 -1335.19335938 998.14746094 C-1331.22975797 993.06132865 -1327.12845653 988.11861977 -1322.9362793 983.2199707 C-1319.21789762 978.85542891 -1315.67330682 974.37257398 -1312.15429688 969.84667969 C-1307.87787277 964.36562908 -1303.45242428 959.01383244 -1299.01708984 953.66113281 C-1295.31903262 949.18736576 -1291.693573 944.66706373 -1288.13085938 940.08496094 C-1284.1895983 935.01762527 -1280.10972509 930.0966486 -1275.93603516 925.21972656 C-1272.22015809 920.85801033 -1268.67797284 916.37807254 -1265.16088867 911.85546875 C-1260.80837688 906.27773143 -1256.3104628 900.82502066 -1251.80175781 895.37329102 C-1248.13507906 890.93842792 -1244.50758963 886.47709581 -1240.92773438 881.97167969 C-1238.14310319 878.49089071 -1235.3226731 875.03972048 -1232.50585938 871.58496094 C-1228.34580579 866.48121091 -1224.23863311 861.34258238 -1220.19335938 856.14746094 C-1216.22975797 851.06132865 -1212.12845653 846.11861977 -1207.9362793 841.2199707 C-1204.21789762 836.85542891 -1200.67330682 832.37257398 -1197.15429688 827.84667969 C-1192.87787277 822.36562908 -1188.45242428 817.01383244 -1184.01708984 811.66113281 C-1180.31903262 807.18736576 -1176.693573 802.66706373 -1173.13085938 798.08496094 C-1169.1895983 793.01762527 -1165.10972509 788.0966486 -1160.93603516 783.21972656 C-1157.22015809 778.85801033 -1153.67797284 774.37807254 -1150.16088867 769.85546875 C-1145.80837688 764.27773143 -1141.3104628 758.82502066 -1136.80175781 753.37329102 C-1133.13507906 748.93842792 -1129.50758963 744.47709581 -1125.92773438 739.97167969 C-1123.14310319 736.49089071 -1120.3226731 733.03972048 -1117.50585938 729.58496094 C-1113.34580579 724.48121091 -1109.23863311 719.34258238 -1105.19335938 714.14746094 C-1101.22975797 709.06132865 -1097.12845653 704.11861977 -1092.9362793 699.2199707 C-1089.21789762 694.85542891 -1085.67330682 690.37257398 -1082.15429688 685.84667969 C-1077.87787277 680.36562908 -1073.45242428 675.01383244 -1069.01708984 669.66113281 C-1065.31903262 665.18736576 -1061.693573 660.66706373 -1058.13085938 656.08496094 C-1054.1895983 651.01762527 -1050.10972509 646.0966486 -1045.93603516 641.21972656 C-1042.22015809 636.85801033 -1038.67797284 632.37807254 -1035.16088867 627.85546875 C-1030.80837688 622.27773143 -1026.3104628 616.82502066 -1021.80175781 611.37329102 C-1018.13507906 606.93842792 -1014.50758963 602.47709581 -1010.92773438 597.97167969 C-1008.14310319 594.49089071 -1005.3226731 591.03972048 -1002.50585938 587.58496094 C-997.88758733 581.91904689 -993.34740977 576.19986792 -988.85791016 570.43164062 C-985.20670329 565.76762189 -981.40842076 561.24052208 -977.52099609 556.77172852 C-974.64776122 553.43879778 -972.18821599 550.0299578 -969.81835938 546.33496094 C-971.22021484 547.40810547 -971.22021484 547.40810547 -972.65039062 548.50292969 C-980.07697282 554.14958722 -987.58724026 559.61170102 -995.31835938 564.83496094 C-1001.27113243 568.85752534 -1007.10535561 572.9783645 -1012.81835938 577.33496094 C-1019.31126737 582.28629319 -1025.98743097 586.90828219 -1032.75195312 591.47949219 C-1037.88368799 594.96441425 -1042.8861272 598.57376175 -1047.81835938 602.33496094 C-1054.31126737 607.28629319 -1060.98743097 611.90828219 -1067.75195312 616.47949219 C-1072.88369426 619.9644185 -1077.88605313 623.57385255 -1082.81835938 627.33496094 C-1089.33592658 632.30334435 -1096.03270139 636.95324136 -1102.81787109 641.54760742 C-1108.39090412 645.33072403 -1113.85165009 649.2354896 -1119.26269531 653.24584961 C-1123.84001803 656.63353374 -1128.47084971 659.93707477 -1133.13085938 663.20996094 C-1139.05905119 667.37456639 -1144.95226597 671.58332478 -1150.81835938 675.83496094 C-1157.31888599 680.54544692 -1163.85699933 685.19793782 -1170.42382812 689.81542969 C-1175.58402658 693.4495066 -1180.70764878 697.13167494 -1185.81835938 700.83496094 C-1192.31894421 705.5453675 -1198.85699818 710.19793702 -1205.42382812 714.81542969 C-1210.58402658 718.4495066 -1215.70764878 722.13167494 -1220.81835938 725.83496094 C-1227.31894421 730.5453675 -1233.85699818 735.19793702 -1240.42382812 739.81542969 C-1245.58402658 743.4495066 -1250.70764878 747.13167494 -1255.81835938 750.83496094 C-1262.31894421 755.5453675 -1268.85699818 760.19793702 -1275.42382812 764.81542969 C-1280.58402658 768.4495066 -1285.70764878 772.13167494 -1290.81835938 775.83496094 C-1297.31894421 780.5453675 -1303.85699818 785.19793702 -1310.42382812 789.81542969 C-1315.58402808 793.44950766 -1320.70757604 797.13177366 -1325.81835938 800.83496094 C-1335.12811427 807.57844335 -1344.51888274 814.20331031 -1353.92285156 820.81445312 C-1362.68714654 826.97830824 -1371.41111481 833.19237975 -1380.08764648 839.47924805 C-1385.83409454 843.63790258 -1391.62138622 847.73541952 -1397.42382812 851.81542969 C-1402.58402658 855.4495066 -1407.70764878 859.13167494 -1412.81835938 862.83496094 C-1419.31894421 867.5453675 -1425.85699818 872.19793702 -1432.42382812 876.81542969 C-1437.58402658 880.4495066 -1442.70764878 884.13167494 -1447.81835938 887.83496094 C-1454.31894421 892.5453675 -1460.85699818 897.19793702 -1467.42382812 901.81542969 C-1472.58402658 905.4495066 -1477.70764878 909.13167494 -1482.81835938 912.83496094 C-1489.31894421 917.5453675 -1495.85699818 922.19793702 -1502.42382812 926.81542969 C-1507.58402658 930.4495066 -1512.70764878 934.13167494 -1517.81835938 937.83496094 C-1524.31894421 942.5453675 -1530.85699818 947.19793702 -1537.42382812 951.81542969 C-1542.58402658 955.4495066 -1547.70764878 959.13167494 -1552.81835938 962.83496094 C-1559.32108024 967.5469153 -1565.86107729 972.20131284 -1572.43041992 976.81982422 C-1577.52740266 980.40891775 -1582.58517371 984.04919249 -1587.63085938 987.70996094 C-1594.81550198 992.9203887 -1602.06923424 998.02477035 -1609.35009766 1003.09960938 C-1615.6943309 1007.52913606 -1621.9774935 1012.0372829 -1628.24023438 1016.58105469 C-1633.23934203 1020.20474648 -1638.26740837 1023.78393978 -1643.31835938 1027.33496094 C-1649.1832708 1031.45882239 -1655.01269669 1035.62810381 -1660.81835938 1039.83496094 C-1667.31894421 1044.5453675 -1673.85699818 1049.19793702 -1680.42382812 1053.81542969 C-1685.58402658 1057.4495066 -1690.70764878 1061.13167494 -1695.81835938 1064.83496094 C-1702.31894421 1069.5453675 -1708.85699818 1074.19793702 -1715.42382812 1078.81542969 C-1720.58402658 1082.4495066 -1725.70764878 1086.13167494 -1730.81835938 1089.83496094 C-1737.31894421 1094.5453675 -1743.85699818 1099.19793702 -1750.42382812 1103.81542969 C-1755.58402658 1107.4495066 -1760.70764878 1111.13167494 -1765.81835938 1114.83496094 C-1772.31894421 1119.5453675 -1778.85699818 1124.19793702 -1785.42382812 1128.81542969 C-1790.58402658 1132.4495066 -1795.70764878 1136.13167494 -1800.81835938 1139.83496094 C-1807.32108024 1144.5469153 -1813.86107729 1149.20131284 -1820.43041992 1153.81982422 C-1825.52740266 1157.40891775 -1830.58517371 1161.04919249 -1835.63085938 1164.70996094 C-1842.81550198 1169.9203887 -1850.06923424 1175.02477035 -1857.35009766 1180.09960938 C-1863.6943309 1184.52913606 -1869.9774935 1189.0372829 -1876.24023438 1193.58105469 C-1881.23934203 1197.20474648 -1886.26740837 1200.78393978 -1891.31835938 1204.33496094 C-1897.1832708 1208.45882239 -1903.01269669 1212.62810381 -1908.81835938 1216.83496094 C-1915.31894421 1221.5453675 -1921.85699818 1226.19793702 -1928.42382812 1230.81542969 C-1933.58402658 1234.4495066 -1938.70764878 1238.13167494 -1943.81835938 1241.83496094 C-1950.31894421 1246.5453675 -1956.85699818 1251.19793702 -1963.42382812 1255.81542969 C-1968.58402658 1259.4495066 -1973.70764878 1263.13167494 -1978.81835938 1266.83496094 C-1984.62402448 1271.04181982 -1990.45355183 1275.21094913 -1996.31835938 1279.33496094 C-2002.30522376 1283.54602494 -2008.25961507 1287.79937563 -2014.19335938 1292.08496094 C-2015.32801636 1292.89924561 -2015.32801636 1292.89924561 -2016.4855957 1293.72998047 C-2019.75744796 1296.08444725 -2023.00107473 1298.45103314 -2026.15039062 1300.96777344 C-2027.09269531 1301.70769531 -2028.035 1302.44761719 -2029.00585938 1303.20996094 C-2029.78316406 1303.84675781 -2030.56046875 1304.48355469 -2031.36132812 1305.13964844 C-2035.26569675 1307.03907101 -2038.9368849 1305.91399688 -2042.94041443 1304.68188477 C-2045.38679546 1303.82430897 -2047.81003477 1302.91831085 -2050.23242188 1301.99511719 C-2051.63134674 1301.47176285 -2051.63134674 1301.47176285 -2053.05853271 1300.93783569 C-2056.18940968 1299.76451434 -2059.31632639 1298.58098518 -2062.44335938 1297.39746094 C-2064.70176046 1296.54863556 -2066.96039332 1295.70042666 -2069.21923828 1294.8527832 C-2074.78220658 1292.76330647 -2080.34260111 1290.66707325 -2085.90190315 1288.56786823 C-2092.61032876 1286.03511171 -2099.32172688 1283.51027346 -2106.03315163 1280.98547745 C-2122.05593171 1274.9573268 -2138.07365525 1268.91579339 -2154.09086514 1262.87286186 C-2167.37588456 1257.86086012 -2180.66222487 1252.85236103 -2193.9489212 1247.84480667 C-2195.4050173 1247.29602191 -2196.86110758 1246.74722173 -2198.31719208 1246.19840622 C-2218.1440163 1238.72546469 -2237.97688426 1231.26893703 -2257.81835938 1223.83496094 C-2278.3891539 1216.12773182 -2298.95033544 1208.39530096 -2319.50585938 1200.64746094 C-2320.58702341 1200.23995794 -2320.58702341 1200.23995794 -2321.69002914 1199.82422256 C-2333.47443482 1195.38250924 -2345.25836892 1190.93954535 -2357.04225159 1186.4964447 C-2368.07156789 1182.3378674 -2379.10104701 1178.17972239 -2390.13085938 1174.02246094 C-2390.85268276 1173.75038944 -2391.57450615 1173.47831795 -2392.31820297 1173.19800186 C-2412.14466241 1165.7251219 -2431.97722438 1158.2688096 -2451.81835938 1150.83496094 C-2472.3891539 1143.12773182 -2492.95033544 1135.39530096 -2513.50585938 1127.64746094 C-2514.58702341 1127.23995794 -2514.58702341 1127.23995794 -2515.69002914 1126.82422256 C-2527.47443482 1122.38250924 -2539.25836892 1117.93954535 -2551.04225159 1113.4964447 C-2562.07156789 1109.3378674 -2573.10104701 1105.17972239 -2584.13085938 1101.02246094 C-2584.85268276 1100.75038944 -2585.57450615 1100.47831795 -2586.31820297 1100.19800186 C-2607.24845807 1092.30908532 -2628.18617615 1084.44039255 -2649.13223267 1076.59350586 C-2680.37843209 1064.8871565 -2711.59755321 1053.10882622 -2742.81835938 1041.33496094 C-2741.95122396 1036.36930292 -2740.67164234 1032.7107757 -2736.81835938 1029.33496094 C-2731.93083778 1026.81702215 -2726.81112327 1025.02887868 -2721.63867188 1023.20214844 C-2720.11082775 1022.64346562 -2718.58383208 1022.08245762 -2717.05764771 1021.51925659 C-2713.8880401 1020.35241967 -2710.7146105 1019.19702483 -2707.53771973 1018.0501709 C-2700.96702347 1015.67178412 -2694.43861715 1013.18309303 -2687.90673065 1010.70061493 C-2684.3849914 1009.36438412 -2680.85945473 1008.03826283 -2677.33398438 1006.71191406 C-2675.9088526 1006.17554128 -2674.4837224 1005.6391643 -2673.05859375 1005.1027832 C-2672.34435242 1004.8340036 -2671.63011108 1004.565224 -2670.89422607 1004.28829956 C-2667.86714702 1003.14899998 -2664.84032327 1002.00902286 -2661.81348801 1000.86907578 C-2645.07671858 994.56593372 -2628.33646523 988.27217326 -2611.58816528 981.99972534 C-2594.76043218 975.69689033 -2577.94559536 969.35986482 -2561.13085938 963.02246094 C-2560.39447235 962.74491974 -2559.65808533 962.46737854 -2558.89938354 962.181427 C-2552.09956883 959.61856621 -2545.29982745 957.05551088 -2538.50015259 954.49227905 C-2528.15207693 950.59143355 -2517.80371457 946.69134972 -2507.45507812 942.79199219 C-2506.74689249 942.52514807 -2506.03870686 942.25830395 -2505.30906105 941.98337364 C-2501.73992997 940.63853128 -2498.17079328 939.2937038 -2494.60165405 937.94888306 C-2488.14321567 935.51539123 -2481.68482731 933.08176665 -2475.22643471 930.64815331 C-2471.63207827 929.29375053 -2468.03771866 927.93935615 -2464.44335938 926.58496094 C-2463.00585936 926.04329431 -2461.56835936 925.50162764 -2460.13085938 924.95996094 C-2411.25585938 906.54329427 -2362.38085937 888.1266276 -2313.50585938 869.70996094 C-2312.79428775 869.44183248 -2312.08271612 869.17370401 -2311.34958172 868.89745045 C-2309.91217397 868.35581859 -2308.47476616 867.81418689 -2307.03735828 867.27255535 C-2303.44219637 865.91785747 -2299.84703552 864.56315677 -2296.25187683 863.20845032 C-2289.79998785 860.77729073 -2283.34809176 858.34615005 -2276.89615536 855.91511631 C-2273.32464514 854.56940151 -2269.75314124 853.22366997 -2266.18164062 851.87792969 C-2265.47360102 851.61114096 -2264.76556141 851.34435223 -2264.03606606 851.06947899 C-2253.637195 847.15115411 -2243.23869265 843.23185187 -2232.84037399 839.31206131 C-2179.82541382 819.32758838 -2179.82541382 819.32758838 -2157.57855225 810.99615479 C-2140.75402845 804.69449704 -2123.94239666 798.35865924 -2107.13085938 792.02246094 C-2106.39447235 791.74491974 -2105.65808533 791.46737854 -2104.89938354 791.181427 C-2098.09956883 788.61856621 -2091.29982745 786.05551088 -2084.50015259 783.49227905 C-2074.15207693 779.59143355 -2063.80371457 775.69134972 -2053.45507812 771.79199219 C-2052.74689249 771.52514807 -2052.03870686 771.25830395 -2051.30906105 770.98337364 C-2047.73992997 769.63853128 -2044.17079328 768.2937038 -2040.60165405 766.94888306 C-2034.14321567 764.51539123 -2027.68482731 762.08176665 -2021.22643471 759.64815331 C-2017.63207827 758.29375053 -2014.03771866 756.93935615 -2010.44335938 755.58496094 C-2009.00585936 755.04329431 -2007.56835936 754.50162764 -2006.13085938 753.95996094 C-1934.97460937 727.14746094 -1863.81835937 700.33496094 -1790.50585938 672.70996094 C-1789.79428775 672.44183248 -1789.08271612 672.17370401 -1788.34958172 671.89745045 C-1786.91217397 671.35581859 -1785.47476616 670.81418689 -1784.03735828 670.27255535 C-1780.44219637 668.91785747 -1776.84703552 667.56315677 -1773.25187683 666.20845032 C-1766.79998785 663.77729073 -1760.34809176 661.34615005 -1753.89615536 658.91511631 C-1750.32464514 657.56940151 -1746.75314124 656.22366997 -1743.18164062 654.87792969 C-1742.47360102 654.61114096 -1741.76556141 654.34435223 -1741.03606606 654.06947899 C-1730.637195 650.15115411 -1720.23869265 646.23185187 -1709.84037399 642.31206131 C-1656.82541382 622.32758838 -1656.82541382 622.32758838 -1634.57855225 613.99615479 C-1617.75402845 607.69449704 -1600.94239666 601.35865924 -1584.13085938 595.02246094 C-1583.39447235 594.74491974 -1582.65808533 594.46737854 -1581.89938354 594.181427 C-1575.09956883 591.61856621 -1568.29982745 589.05551088 -1561.50015259 586.49227905 C-1551.15207693 582.59143355 -1540.80371457 578.69134972 -1530.45507812 574.79199219 C-1529.74689249 574.52514807 -1529.03870686 574.25830395 -1528.30906105 573.98337364 C-1524.73992997 572.63853128 -1521.17079328 571.2937038 -1517.60165405 569.94888306 C-1511.14321567 567.51539123 -1504.68482731 565.08176665 -1498.22643471 562.64815331 C-1494.63207827 561.29375053 -1491.03771866 559.93935615 -1487.44335938 558.58496094 C-1486.00585936 558.04329431 -1484.56835936 557.50162764 -1483.13085938 556.95996094 C-1411.97460937 530.14746094 -1340.81835937 503.33496094 -1267.50585938 475.70996094 C-1266.79428775 475.44183248 -1266.08271612 475.17370401 -1265.34958172 474.89745045 C-1263.91217397 474.35581859 -1262.47476616 473.81418689 -1261.03735828 473.27255535 C-1257.44219637 471.91785747 -1253.84703552 470.56315677 -1250.25187683 469.20845032 C-1243.79998785 466.77729073 -1237.34809176 464.34615005 -1230.89615536 461.91511631 C-1227.32464514 460.56940151 -1223.75314124 459.22366997 -1220.18164062 457.87792969 C-1219.47360102 457.61114096 -1218.76556141 457.34435223 -1218.03606606 457.06947899 C-1207.637195 453.15115411 -1197.23869265 449.23185187 -1186.84037399 445.31206131 C-1133.82541382 425.32758838 -1133.82541382 425.32758838 -1111.57855225 416.99615479 C-1094.75402845 410.69449704 -1077.94239666 404.35865924 -1061.13085938 398.02246094 C-1060.39447235 397.74491974 -1059.65808533 397.46737854 -1058.89938354 397.181427 C-1052.09956883 394.61856621 -1045.29982745 392.05551088 -1038.50015259 389.49227905 C-1028.15207693 385.59143355 -1017.80371457 381.69134972 -1007.45507812 377.79199219 C-1006.74689249 377.52514807 -1006.03870686 377.25830395 -1005.30906105 376.98337364 C-1001.73992997 375.63853128 -998.17079328 374.2937038 -994.60165405 372.94888306 C-988.14321567 370.51539123 -981.68482731 368.08176665 -975.22643471 365.64815331 C-971.63207827 364.29375053 -968.03771866 362.93935615 -964.44335938 361.58496094 C-963.00585936 361.04329431 -961.56835936 360.50162764 -960.13085938 359.95996094 C-911.25585938 341.54329427 -862.38085937 323.1266276 -813.50585938 304.70996094 C-812.79428775 304.44183248 -812.08271612 304.17370401 -811.34958172 303.89745045 C-809.91217397 303.35581859 -808.47476616 302.81418689 -807.03735828 302.27255535 C-803.44219637 300.91785747 -799.84703552 299.56315677 -796.25187683 298.20845032 C-789.79998785 295.77729073 -783.34809176 293.34615005 -776.89615536 290.91511631 C-773.32464514 289.56940151 -769.75314124 288.22366997 -766.18164062 286.87792969 C-765.47360102 286.61114096 -764.76556141 286.34435223 -764.03606606 286.06947899 C-753.637195 282.15115411 -743.23869265 278.23185187 -732.84037399 274.31206131 C-679.82541382 254.32758838 -679.82541382 254.32758838 -657.57855225 245.99615479 C-640.75402845 239.69449704 -623.94239666 233.35865924 -607.13085938 227.02246094 C-606.39447235 226.74491974 -605.65808533 226.46737854 -604.89938354 226.181427 C-598.09956883 223.61856621 -591.29982745 221.05551088 -584.50015259 218.49227905 C-574.15207693 214.59143355 -563.80371457 210.69134972 -553.45507812 206.79199219 C-552.39279967 206.39172601 -552.39279967 206.39172601 -551.30906105 205.98337364 C-547.73992997 204.63853128 -544.17079328 203.2937038 -540.60165405 201.94888306 C-534.14321567 199.51539123 -527.68482731 197.08176665 -521.22643471 194.64815331 C-517.63207827 193.29375053 -514.03771866 191.93935615 -510.44335938 190.58496094 C-509.00585936 190.04329431 -507.56835936 189.50162764 -506.13085938 188.95996094 C-434.97460938 162.14746094 -363.81835937 135.33496094 -290.50585938 107.70996094 C-289.79428775 107.44183248 -289.08271612 107.17370401 -288.34958172 106.89745045 C-286.91217397 106.35581859 -285.47476616 105.81418689 -284.03735828 105.27255535 C-280.44219637 103.91785747 -276.84703552 102.56315677 -273.25187683 101.20845032 C-266.79998785 98.77729073 -260.34809176 96.34615005 -253.89615536 93.91511631 C-250.32464514 92.56940151 -246.75314124 91.22366997 -243.18164062 89.87792969 C-242.47360102 89.61114096 -241.76556141 89.34435223 -241.03606606 89.06947899 C-230.637195 85.15115411 -220.23869265 81.23185187 -209.84037399 77.31206131 C-156.78108509 57.31087826 -156.78108509 57.31087826 -134.60272217 49.00521851 C-119.55368228 43.36865782 -104.51462975 37.7056408 -89.47701454 32.03868866 C-84.93892293 30.32875562 -80.40006137 28.62088624 -75.8605442 26.91474152 C-72.15474408 25.5218432 -68.44932511 24.12793351 -64.74414062 22.73339844 C-64.01839466 22.46024811 -63.2926487 22.18709778 -62.54491043 21.90567017 C-52.85945096 18.25820033 -43.19597485 14.55932573 -33.54882812 10.81152344 C-30.4370634 9.60943066 -27.32485676 8.40848992 -24.2124939 7.20794678 C-21.38710591 6.11163606 -18.56926572 4.99734423 -15.7512207 3.88232422 C-14.07604546 3.23539032 -12.40053144 2.58933267 -10.72460938 1.94433594 C-9.61565559 1.49497177 -9.61565559 1.49497177 -8.48429871 1.03652954 C-5.33820503 -0.1543322 -3.31719745 -0.78274826 0 0 Z " fill="#FFFFFF" transform="translate(2742.818359375,0.6650390625)"/>
</svg>
