<?xml version="1.0" encoding="UTF-8"?>
<svg version="1.1" xmlns="http://www.w3.org/2000/svg" width="2810" height="2395">
<path d="M0 0 C2.96064364 2.89485156 4.7116044 5.01121508 5.875 9 C4.43399911 13.94057448 0.24559364 15.49060111 -4 18 C-5.07507812 18.82951172 -5.07507812 18.82951172 -6.171875 19.67578125 C-8 21 -8 21 -10 21 C-10.2678833 21.59458008 -10.5357666 22.18916016 -10.81176758 22.80175781 C-12.01210673 25.02239757 -13.20702998 26.4243607 -15.01171875 28.171875 C-15.60114258 28.74969727 -16.19056641 29.32751953 -16.79785156 29.92285156 C-17.42143555 30.52581055 -18.04501953 31.12876953 -18.6875 31.75 C-23.07641162 36.05907291 -27.32162538 40.38010272 -31.296875 45.078125 C-34.23621638 48.39499647 -37.44220719 51.44892758 -40.59375 54.5625 C-42.65449345 56.65000635 -44.59515626 58.77169223 -46.5 61 C-49.19611141 64.15394165 -52.04816975 67.08373397 -55 70 C-57.93118191 72.89591958 -60.76403174 75.80242571 -63.4375 78.9375 C-66.30172355 82.28925096 -69.36334093 85.40556417 -72.5 88.5 C-75.61579123 91.57390527 -78.65877238 94.66702145 -81.5 98 C-84.34122801 101.33297901 -87.38421623 104.42608801 -90.5 107.5 C-93.59491502 110.55337951 -96.61934277 113.62323685 -99.4375 116.9375 C-102.45352827 120.476791 -105.69447901 123.73494445 -109 127 C-112.28467991 130.24451876 -115.50734004 133.47922358 -118.5 137 C-121.97610577 141.0895362 -125.78249656 144.8096054 -129.59765625 148.578125 C-132.34325486 151.30308001 -134.99269952 154.05023473 -137.5 157 C-140.4926604 160.52077694 -143.7153265 163.7554753 -147 167 C-150.26382615 170.22398087 -153.46830141 173.43517847 -156.4375 176.9375 C-159.60010003 180.65957718 -163.02970978 184.06865804 -166.5 187.5 C-169.92845105 190.89005854 -173.32260742 194.25194008 -176.4375 197.9375 C-179.74572658 201.84269979 -183.36513741 205.40280926 -187 209 C-192.41494868 214.34465194 -192.41494868 214.34465194 -197.5 220 C-200.78396954 223.88714761 -204.38613844 227.42354417 -208 231 C-213.38538279 236.3120156 -213.38538279 236.3120156 -218.4375 241.9375 C-221.89038615 246.02621173 -225.70077418 249.73734476 -229.5 253.5 C-235.17500033 259.08544607 -235.17500033 259.08544607 -240.5 265 C-244.49714419 269.74660873 -248.98123309 274.03021627 -253.40820312 278.37109375 C-256.55502478 281.47525776 -259.58335991 284.61881865 -262.46875 287.96875 C-266.73139913 292.91227222 -271.38200168 297.4321549 -276.0390625 302 C-279.30665302 305.22974198 -282.47152333 308.48511625 -285.46875 311.96875 C-289.92560605 317.14314977 -294.8144639 321.86250569 -299.68359375 326.64453125 C-303.07918561 330.00328124 -306.38417769 333.37852424 -309.5 337 C-313.94435252 342.16560744 -318.82507088 346.87292293 -323.68359375 351.64453125 C-327.05844822 354.98276885 -330.34474627 358.33467539 -333.4375 361.9375 C-338.29455688 367.58278782 -343.66865329 372.71338231 -348.97265625 377.93359375 C-352.60339172 381.52936227 -356.17057357 385.12146956 -359.5 389 C-364.33132386 394.62812757 -369.68997378 399.73436598 -374.97265625 404.93359375 C-378.60339172 408.52936227 -382.17057357 412.12146956 -385.5 416 C-390.33132386 421.62812757 -395.68997378 426.73436598 -400.97265625 431.93359375 C-404.58258675 435.50875767 -408.13159006 439.0773525 -411.4375 442.9375 C-416.68084689 449.04560329 -422.53343034 454.57539031 -428.26171875 460.22265625 C-432.11695904 464.04451783 -435.93867012 467.84191852 -439.46875 471.96875 C-444.45080489 477.78604904 -450.00710875 483.06330896 -455.45703125 488.43652344 C-462.17048126 495.03623612 -462.17048126 495.03623612 -468.5 502 C-473.46888748 507.80886608 -479.01778217 513.07383215 -484.45703125 518.43652344 C-491.14116247 525.00334284 -491.14116247 525.00334284 -497.4375 531.9375 C-502.7727616 538.17467487 -508.76555179 543.81974034 -514.60253906 549.58203125 C-521.74256639 556.57954703 -521.74256639 556.57954703 -528.46875 563.96875 C-533.95978152 570.40376031 -540.16094652 576.2140623 -546.17529297 582.15478516 C-553.55066181 589.3759325 -553.55066181 589.3759325 -560.5 597 C-565.97717042 603.42681413 -572.17180142 609.22478432 -578.17529297 615.15478516 C-585.52176202 622.34271118 -585.52176202 622.34271118 -592.4375 629.9375 C-598.28265714 636.79610319 -604.91789381 642.96950241 -611.32080078 649.30029297 C-619.13816335 656.93511285 -619.13816335 656.93511285 -626.5 665 C-632.31670797 671.84276081 -638.9397153 677.99107813 -645.32080078 684.30029297 C-653.10952841 691.90161603 -653.10952841 691.90161603 -660.4375 699.9375 C-666.61955962 707.21005958 -673.68728778 713.73748245 -680.46630859 720.44580078 C-688.71187855 728.47691666 -688.71187855 728.47691666 -696.46875 736.96875 C-702.80374243 744.44099771 -710.08311582 751.13256724 -717.0390625 758.01855469 C-719.02816103 759.98941341 -721.01412897 761.96339005 -723 763.9375 C-723.598125 764.52732666 -724.19625 765.11715332 -724.8125 765.72485352 C-727.82449849 768.71962378 -730.70898465 771.77179405 -733.48632812 774.98632812 C-736.89674798 778.93168788 -740.50772782 782.6198978 -744.21875 786.28125 C-744.88032104 786.93903442 -745.54189209 787.59681885 -746.22351074 788.27453613 C-749.01578144 791.05066558 -751.81405416 793.82071537 -754.61181641 796.59130859 C-756.67040898 798.6316708 -758.72587903 800.67514331 -760.78125 802.71875 C-761.40124878 803.33045044 -762.02124756 803.94215088 -762.66003418 804.5723877 C-765.72729358 807.62269062 -768.67139187 810.72619372 -771.5 814 C-774.90533331 817.94130295 -778.51228061 821.62438965 -782.21875 825.28125 C-782.88032104 825.93903442 -783.54189209 826.59681885 -784.22351074 827.27453613 C-787.01578144 830.05066558 -789.81405416 832.82071537 -792.61181641 835.59130859 C-794.67040898 837.6316708 -796.72587903 839.67514331 -798.78125 841.71875 C-799.40124878 842.33045044 -800.02124756 842.94215088 -800.66003418 843.5723877 C-803.72279226 846.61821419 -806.66263017 849.71667899 -809.48632812 852.98632812 C-812.96311619 857.01025578 -816.65417678 860.76558883 -820.4375 864.5 C-821.12126709 865.17998047 -821.80503418 865.85996094 -822.50952148 866.56054688 C-825.39737773 869.43225143 -828.29123075 872.29788438 -831.18457031 875.1640625 C-833.31265725 877.27392787 -835.43762917 879.38689645 -837.5625 881.5 C-838.20437256 882.13357422 -838.84624512 882.76714844 -839.50756836 883.41992188 C-842.62106677 886.51676622 -845.61632893 889.66156772 -848.48632812 892.98632812 C-852.02942124 897.08883086 -855.80063283 900.91133682 -859.65625 904.71875 C-860.36221313 905.42092651 -861.06817627 906.12310303 -861.79553223 906.84655762 C-864.77897375 909.81383766 -867.7684071 912.77505363 -870.75732422 915.73681641 C-872.95490579 917.91618465 -875.14937938 920.09864947 -877.34375 922.28125 C-878.00749634 922.936698 -878.67124268 923.592146 -879.35510254 924.26745605 C-882.52382848 927.41976476 -885.57880382 930.61599534 -888.5 934 C-892.0379547 938.09847694 -895.80519275 941.91583973 -899.65625 945.71875 C-900.36221313 946.42092651 -901.06817627 947.12310303 -901.79553223 947.84655762 C-904.77897375 950.81383766 -907.7684071 953.77505363 -910.75732422 956.73681641 C-912.95490579 958.91618465 -915.14937938 961.09864947 -917.34375 963.28125 C-918.00749634 963.936698 -918.67124268 964.592146 -919.35510254 965.26745605 C-922.52382848 968.41976476 -925.57880382 971.61599534 -928.5 975 C-932.0379547 979.09847694 -935.80519275 982.91583973 -939.65625 986.71875 C-940.36221313 987.42092651 -941.06817627 988.12310303 -941.79553223 988.84655762 C-944.77897375 991.81383766 -947.7684071 994.77505363 -950.75732422 997.73681641 C-952.95490579 999.91618465 -955.14937938 1002.09864947 -957.34375 1004.28125 C-958.00749634 1004.936698 -958.67124268 1005.592146 -959.35510254 1006.26745605 C-962.51932231 1009.41528194 -965.57007959 1012.6064582 -968.48632812 1015.98632812 C-972.09566462 1020.16741558 -975.94709634 1024.05713736 -979.875 1027.9375 C-980.60315918 1028.66187256 -981.33131836 1029.38624512 -982.08154297 1030.13256836 C-985.16056951 1033.19542424 -988.24558323 1036.25222311 -991.33007812 1039.30957031 C-993.59715458 1041.55844117 -995.86112966 1043.81040238 -998.125 1046.0625 C-998.81062012 1046.73982178 -999.49624023 1047.41714355 -1000.20263672 1048.11499023 C-1004.05806029 1051.95104694 -1007.69214334 1055.90255911 -1011.24438477 1060.01953125 C-1014.2376772 1063.39619489 -1017.44664783 1066.54927516 -1020.65625 1069.71875 C-1021.36221313 1070.42092651 -1022.06817627 1071.12310303 -1022.79553223 1071.84655762 C-1025.77897375 1074.81383766 -1028.7684071 1077.77505363 -1031.75732422 1080.73681641 C-1033.95490579 1082.91618465 -1036.14937938 1085.09864947 -1038.34375 1087.28125 C-1039.33936951 1088.264422 -1039.33936951 1088.264422 -1040.35510254 1089.26745605 C-1044.16137144 1093.0540046 -1047.74251194 1096.96186558 -1051.25012207 1101.02526855 C-1054.17287336 1104.3235837 -1057.30221335 1107.40524737 -1060.4375 1110.5 C-1061.12126709 1111.17998047 -1061.80503418 1111.85996094 -1062.50952148 1112.56054688 C-1065.39737773 1115.43225143 -1068.29123075 1118.29788438 -1071.18457031 1121.1640625 C-1073.31265725 1123.27392787 -1075.43762917 1125.38689645 -1077.5625 1127.5 C-1078.20437256 1128.13357422 -1078.84624512 1128.76714844 -1079.50756836 1129.41992188 C-1082.62557045 1132.52124581 -1085.62507199 1135.67109359 -1088.5 1139 C-1091.97167571 1143.01988623 -1095.65873309 1146.77008623 -1099.4375 1150.5 C-1100.12126709 1151.17998047 -1100.80503418 1151.85996094 -1101.50952148 1152.56054688 C-1104.39737773 1155.43225143 -1107.29123075 1158.29788438 -1110.18457031 1161.1640625 C-1112.31265725 1163.27392787 -1114.43762917 1165.38689645 -1116.5625 1167.5 C-1117.20437256 1168.13357422 -1117.84624512 1168.76714844 -1118.50756836 1169.41992188 C-1122.26466386 1173.15692071 -1125.79294022 1177.02118229 -1129.25585938 1181.03100586 C-1132.10809473 1184.25094961 -1135.15776624 1187.26123581 -1138.21875 1190.28125 C-1138.88032104 1190.93903442 -1139.54189209 1191.59681885 -1140.22351074 1192.27453613 C-1143.01578144 1195.05066558 -1145.81405416 1197.82071537 -1148.61181641 1200.59130859 C-1150.67040898 1202.6316708 -1152.72587903 1204.67514331 -1154.78125 1206.71875 C-1155.40124878 1207.33045044 -1156.02124756 1207.94215088 -1156.66003418 1208.5723877 C-1159.72729358 1211.62269062 -1162.67139187 1214.72619372 -1165.5 1218 C-1168.90533331 1221.94130295 -1172.51228061 1225.62438965 -1176.21875 1229.28125 C-1176.88032104 1229.93903442 -1177.54189209 1230.59681885 -1178.22351074 1231.27453613 C-1181.01578144 1234.05066558 -1183.81405416 1236.82071537 -1186.61181641 1239.59130859 C-1188.67040898 1241.6316708 -1190.72587903 1243.67514331 -1192.78125 1245.71875 C-1193.40124878 1246.33045044 -1194.02124756 1246.94215088 -1194.66003418 1247.5723877 C-1198.37230089 1251.2641322 -1201.85284175 1255.08921617 -1205.27502441 1259.0501709 C-1207.98310679 1262.11125645 -1210.87143859 1264.9758415 -1213.78125 1267.84375 C-1214.39842896 1268.45714233 -1215.01560791 1269.07053467 -1215.65148926 1269.70251465 C-1218.25258789 1272.28749518 -1220.85970014 1274.86637822 -1223.46630859 1277.44580078 C-1231.72605785 1285.49378856 -1231.72605785 1285.49378856 -1239.5 1294 C-1245.6526628 1301.25718634 -1252.70928881 1307.75925401 -1259.46630859 1314.44580078 C-1268.55724594 1323.41144835 -1268.55724594 1323.41144835 -1277.10742188 1332.88476562 C-1282.54473144 1338.96175867 -1288.52426125 1344.56904029 -1294.32080078 1350.30029297 C-1302.96695965 1358.85110941 -1302.96695965 1358.85110941 -1311.10351562 1367.88085938 C-1316.3635692 1373.75846816 -1322.13984381 1379.18513056 -1327.74804688 1384.72753906 C-1335.34441315 1392.15558868 -1335.34441315 1392.15558868 -1342.5 1400 C-1348.14811941 1406.63584473 -1354.55501391 1412.60716179 -1360.74804688 1418.72753906 C-1366.39953772 1424.31863715 -1371.99257923 1429.86828274 -1377.1484375 1435.92578125 C-1382.02685168 1441.39084017 -1387.39059547 1446.43678529 -1392.60253906 1451.58203125 C-1397.96613935 1456.88314938 -1403.24585996 1462.18105925 -1408.14453125 1467.921875 C-1412.84608581 1473.1876161 -1418.00597145 1478.05281128 -1423.02978516 1483.00927734 C-1428.25675956 1488.17248769 -1433.38221491 1493.3454046 -1438.15820312 1498.93554688 C-1442.67501287 1503.99839725 -1447.62659758 1508.67407845 -1452.45703125 1513.43652344 C-1459.17048126 1520.03623612 -1459.17048126 1520.03623612 -1465.5 1527 C-1470.46888748 1532.80886608 -1476.01778217 1538.07383215 -1481.45703125 1543.43652344 C-1486.55682917 1548.47102745 -1491.54273688 1553.53225312 -1496.203125 1558.98046875 C-1500.74712768 1564.08753263 -1505.74940097 1568.782992 -1510.6171875 1573.578125 C-1514.36541938 1577.29217847 -1518.06413637 1580.99283352 -1521.5 1585 C-1526.52425481 1590.85966955 -1532.12241912 1596.16536808 -1537.6171875 1601.578125 C-1541.99285484 1605.91389264 -1546.19046406 1610.30124673 -1550.19921875 1614.9765625 C-1554.54417549 1619.85874816 -1559.31670377 1624.35119502 -1563.97265625 1628.93359375 C-1568.24488513 1633.16467757 -1572.32841345 1637.45995783 -1576.24414062 1642.02148438 C-1580.16660578 1646.44134778 -1584.46948602 1650.50581006 -1588.68359375 1654.64453125 C-1592.0688171 1657.99302523 -1595.36445258 1661.35660669 -1598.46875 1664.96875 C-1603.11946199 1670.37420611 -1608.24689496 1675.293088 -1613.328125 1680.2890625 C-1617.48667556 1684.40517887 -1621.44482818 1688.59838878 -1625.2578125 1693.03515625 C-1628.97349533 1697.22571334 -1633.04265713 1701.08015412 -1637.0390625 1705 C-1640.31700634 1708.23997537 -1643.49135561 1711.50697069 -1646.5 1715 C-1650.75032812 1719.93462131 -1655.39258338 1724.44253389 -1660.0390625 1729 C-1663.95986771 1732.87539047 -1667.65675095 1736.85496085 -1671.25390625 1741.03125 C-1674.18628401 1744.33755513 -1677.34583759 1747.40718534 -1680.5 1750.5 C-1684.86747515 1754.82091697 -1689.1063392 1759.14700523 -1693.06640625 1763.84765625 C-1696.50888068 1767.67958233 -1700.22666402 1771.24501916 -1703.88696289 1774.86743164 C-1707.4270813 1778.38490235 -1710.78373222 1781.96722569 -1714.00390625 1785.78125 C-1719.07933644 1791.42282407 -1724.60205246 1796.66943322 -1730 1802 C-1725.7742125 1799.93936658 -1721.8179031 1797.51765746 -1717.8125 1795.0625 C-1717.01295898 1794.57305908 -1716.21341797 1794.08361816 -1715.38964844 1793.5793457 C-1709.42947997 1789.91439374 -1703.53749677 1786.15398419 -1697.67456055 1782.3359375 C-1684.26186649 1773.60166228 -1670.71468439 1765.07445822 -1657.17749023 1756.53491211 C-1648.36859137 1750.97559559 -1639.58384021 1745.37841761 -1630.79833984 1739.78222656 C-1626.19976238 1736.85345187 -1621.59981973 1733.92682309 -1617 1731 C-1615.16665996 1729.83334387 -1613.33332663 1728.6666772 -1611.5 1727.5 C-1534.5 1678.5 -1457.5 1629.5 -1380.5 1580.5 C-1379.5922583 1579.92233887 -1378.6845166 1579.34467773 -1377.74926758 1578.74951172 C-1375.91840247 1577.58443052 -1374.0875106 1576.41939136 -1372.2565918 1575.25439453 C-1367.63527287 1572.31381679 -1363.0144408 1569.37247908 -1358.39453125 1566.4296875 C-1348.99976771 1560.44643027 -1339.5968409 1554.47672124 -1330.17626953 1548.53417969 C-1321.3678361 1542.97501424 -1312.58344039 1537.37816293 -1303.79833984 1531.78222656 C-1299.19976238 1528.85345187 -1294.59981973 1525.92682309 -1290 1523 C-1288.16665996 1521.83334387 -1286.33332663 1520.6666772 -1284.5 1519.5 C-1214.83333333 1475.16666667 -1145.16666667 1430.83333333 -1075.5 1386.5 C-1074.5922583 1385.92233887 -1073.6845166 1385.34467773 -1072.74926758 1384.74951172 C-1070.91840247 1383.58443052 -1069.0875106 1382.41939136 -1067.2565918 1381.25439453 C-1062.63527287 1378.31381679 -1058.0144408 1375.37247908 -1053.39453125 1372.4296875 C-1043.99976771 1366.44643027 -1034.5968409 1360.47672124 -1025.17626953 1354.53417969 C-1016.3678361 1348.97501424 -1007.58344039 1343.37816293 -998.79833984 1337.78222656 C-994.19976238 1334.85345187 -989.59981973 1331.92682309 -985 1329 C-983.16665996 1327.83334387 -981.33332663 1326.6666772 -979.5 1325.5 C-902.5 1276.5 -825.5 1227.5 -748.5 1178.5 C-747.5922583 1177.92233887 -746.6845166 1177.34467773 -745.74926758 1176.74951172 C-743.91840247 1175.58443052 -742.0875106 1174.41939136 -740.2565918 1173.25439453 C-735.63527287 1170.31381679 -731.0144408 1167.37247908 -726.39453125 1164.4296875 C-717.77225673 1158.93840652 -709.14590379 1153.45401752 -700.5 1148 C-693.61755523 1143.65751373 -686.74296751 1139.30284918 -679.875 1134.9375 C-678.95678467 1134.35540771 -678.03856934 1133.77331543 -677.0925293 1133.17358398 C-672.67720839 1130.36840412 -668.28408416 1127.53769344 -663.93359375 1124.6328125 C-663.15064941 1124.11340088 -662.36770508 1123.59398926 -661.56103516 1123.05883789 C-660.09776927 1122.08507495 -658.64005946 1121.10289331 -657.18896484 1120.11108398 C-655.5086642 1118.99586067 -653.7589068 1117.98660031 -652 1117 C-648.58377009 1118.1387433 -648.30681364 1118.64511505 -646.50390625 1121.5859375 C-646.03404297 1122.34197266 -645.56417969 1123.09800781 -645.08007812 1123.87695312 C-644.57927734 1124.70130859 -644.07847656 1125.52566406 -643.5625 1126.375 C-642.48069287 1128.12253459 -641.39865531 1129.86992656 -640.31640625 1131.6171875 C-639.48906982 1132.96248535 -639.48906982 1132.96248535 -638.64501953 1134.33496094 C-636.12926255 1138.41065152 -633.56405185 1142.45458992 -631 1146.5 C-629.9971075 1148.08705742 -628.99450412 1149.67429757 -627.9921875 1151.26171875 C-627.49686523 1152.04595215 -627.00154297 1152.83018555 -626.49121094 1153.63818359 C-625.01691251 1155.97321356 -623.5434936 1158.30879622 -622.0703125 1160.64453125 C-616.73116745 1169.10764415 -611.37559801 1177.55998748 -606 1186 C-600.13367474 1195.21048386 -594.29326982 1204.43699003 -588.46777344 1213.67333984 C-585.98016644 1217.61660243 -583.48996615 1221.55822684 -581 1225.5 C-578.02219129 1230.21405863 -575.04484165 1234.92840236 -572.0703125 1239.64453125 C-566.73116745 1248.10764415 -561.37559801 1256.55998748 -556 1265 C-549.15128137 1275.7529006 -542.34153666 1286.53005331 -535.54101562 1297.31347656 C-529.71255388 1306.55419528 -523.86915989 1315.7850656 -518 1325 C-511.15128137 1335.7529006 -504.34153666 1346.53005331 -497.54101562 1357.31347656 C-491.71255388 1366.55419528 -485.86915989 1375.7850656 -480 1385 C-473.15128137 1395.7529006 -466.34153666 1406.53005331 -459.54101562 1417.31347656 C-453.71255388 1426.55419528 -447.86915989 1435.7850656 -442 1445 C-435.15128137 1455.7529006 -428.34153666 1466.53005331 -421.54101562 1477.31347656 C-415.71255388 1486.55419528 -409.86915989 1495.7850656 -404 1505 C-397.15128137 1515.7529006 -390.34153666 1526.53005331 -383.54101562 1537.31347656 C-377.71255388 1546.55419528 -371.86915989 1555.7850656 -366 1565 C-360.13367474 1574.21048386 -354.29326982 1583.43699003 -348.46777344 1592.67333984 C-345.98016644 1596.61660243 -343.48996615 1600.55822684 -341 1604.5 C-338.02219129 1609.21405863 -335.04484165 1613.92840236 -332.0703125 1618.64453125 C-326.73116745 1627.10764415 -321.37559801 1635.55998748 -316 1644 C-309.15128137 1654.7529006 -302.34153666 1665.53005331 -295.54101562 1676.31347656 C-289.71255388 1685.55419528 -283.86915989 1694.7850656 -278 1704 C-271.15128137 1714.7529006 -264.34153666 1725.53005331 -257.54101562 1736.31347656 C-251.71255388 1745.55419528 -245.86915989 1754.7850656 -240 1764 C-233.15128137 1774.7529006 -226.34153666 1785.53005331 -219.54101562 1796.31347656 C-213.71255388 1805.55419528 -207.86915989 1814.7850656 -202 1824 C-195.15128137 1834.7529006 -188.34153666 1845.53005331 -181.54101562 1856.31347656 C-175.71255388 1865.55419528 -169.86915989 1874.7850656 -164 1884 C-157.15128137 1894.7529006 -150.34153666 1905.53005331 -143.54101562 1916.31347656 C-142.06936171 1918.64670624 -140.59728234 1920.97966681 -139.125 1923.3125 C-138.39108032 1924.47579834 -138.39108032 1924.47579834 -137.64233398 1925.66259766 C-134.35433035 1930.86944758 -131.04701021 1936.06363854 -127.73022461 1941.25219727 C-125.95668165 1944.03243055 -124.19243376 1946.81838064 -122.4296875 1949.60546875 C-120.19843865 1953.13185327 -117.93130381 1956.63041156 -115.6328125 1960.11328125 C-114.6088259 1961.70016664 -113.58536041 1963.28738846 -112.5625 1964.875 C-111.84404907 1965.93473022 -111.84404907 1965.93473022 -111.11108398 1967.01586914 C-110.68384033 1967.6886792 -110.25659668 1968.36148926 -109.81640625 1969.0546875 C-109.43943604 1969.62687012 -109.06246582 1970.19905273 -108.67407227 1970.78857422 C-106.80630001 1976.91616607 -109.71772942 1983.84253892 -111.72265625 1989.65625 C-111.98759384 1990.44398804 -112.25253143 1991.23172607 -112.52549744 1992.04333496 C-113.36408274 1994.53135179 -114.21308939 1997.01566081 -115.0625 1999.5 C-115.63676344 2001.19768148 -116.21033787 2002.8955962 -116.78320312 2004.59375 C-118.18085408 2008.73190464 -119.58785542 2012.86677 -121 2017 C-126.18326371 2016.40374673 -130.91047478 2015.21683874 -135.85498047 2013.53833008 C-136.98667664 2013.16219322 -136.98667664 2013.16219322 -138.14123535 2012.77845764 C-140.6351848 2011.94791048 -143.12616425 2011.10881009 -145.6171875 2010.26953125 C-147.39210034 2009.67624621 -149.1671792 2009.08345764 -150.94241333 2008.49113464 C-155.64010683 2006.9220363 -160.33528038 2005.34552199 -165.0300293 2003.76763916 C-168.73167055 2002.52489086 -172.43505285 2001.28738665 -176.13857841 2000.05026722 C-180.7154558 1998.52120252 -185.29140017 1996.98935442 -189.8671875 1995.45703125 C-190.67746273 1995.18580759 -191.48773796 1994.91458393 -192.32256699 1994.63514137 C-201.62104438 1991.52005992 -210.90986894 1988.37772062 -220.18475342 1985.19308472 C-250.81521139 1974.68130272 -281.53758857 1964.44839115 -312.2639542 1954.22142316 C-320.14142319 1951.5993764 -328.01819407 1948.97523526 -335.89491767 1946.3509503 C-349.9860663 1941.65623557 -364.07758873 1936.962644 -378.16943359 1932.27001953 C-379.42392651 1931.85226913 -379.42392651 1931.85226913 -380.70376271 1931.42607933 C-386.63583153 1929.4506887 -392.56791416 1927.47533951 -398.5 1925.5 C-405.276865 1923.24335545 -412.05372374 1920.98669208 -418.83056641 1918.72998047 C-419.66582893 1918.45183567 -420.50109145 1918.17369087 -421.36166495 1917.88711745 C-435.41523224 1913.20719708 -449.46838817 1908.5260426 -463.52126551 1903.84405088 C-471.35593158 1901.23383632 -479.19080734 1898.6242547 -487.02622986 1896.01631165 C-542.65518474 1877.50044949 -542.65518474 1877.50044949 -564.45898438 1870.01367188 C-591.19210435 1860.83441909 -618.02628829 1851.95422802 -644.84462628 1843.02786586 C-652.80604078 1840.37783616 -660.76675776 1837.72571385 -668.72742724 1835.07344711 C-682.96831885 1830.3288183 -697.20958425 1825.58531263 -711.45117188 1820.84277344 C-712.29647233 1820.56128256 -713.14177278 1820.27979168 -714.0126884 1819.98977077 C-720.00844866 1817.99314968 -726.00422272 1815.99657 -732 1814 C-738.8496189 1811.71910413 -745.69923154 1809.43818946 -752.54882812 1807.15722656 C-753.39305163 1806.87609477 -754.23727514 1806.59496298 -755.10708117 1806.30531204 C-769.30980995 1801.57567067 -783.5121276 1796.8447959 -797.71416664 1792.11308384 C-805.63266981 1789.47492381 -813.55138289 1786.83739737 -821.47064209 1784.20150757 C-878.18693512 1765.3234117 -878.18693512 1765.3234117 -902.41125047 1757.01224315 C-927.6702638 1748.34694685 -953.00592681 1739.90811091 -978.33203125 1731.44140625 C-979.00271439 1731.2171869 -979.67339754 1730.99296755 -980.36440441 1730.76195368 C-993.76113749 1726.28332734 -1007.15844612 1721.80642411 -1020.55684376 1717.33277988 C-1023.45709358 1716.36437481 -1026.35733541 1715.39594582 -1029.25756836 1714.42749023 C-1029.97799663 1714.18692392 -1030.69842491 1713.9463576 -1031.44068434 1713.6985014 C-1043.22282262 1709.76393511 -1055.00216529 1705.82106316 -1066.78049127 1701.87510122 C-1078.9517015 1697.79768713 -1091.12552763 1693.72816324 -1103.30192393 1689.66626209 C-1110.10858106 1687.3954094 -1116.91401835 1685.12103874 -1123.71647072 1682.83761787 C-1130.07572753 1680.70297424 -1136.43841171 1678.57889422 -1142.80363846 1676.4621048 C-1145.13982028 1675.68326745 -1147.4747985 1674.90080945 -1149.80848885 1674.11453819 C-1152.98315362 1673.04551977 -1156.16182212 1671.98940562 -1159.34187317 1670.9365387 C-1160.27110102 1670.62022682 -1161.20032887 1670.30391495 -1162.15771514 1669.97801787 C-1163.00776018 1669.69952087 -1163.85780522 1669.42102387 -1164.7336092 1669.13408756 C-1165.46626824 1668.88916256 -1166.19892727 1668.64423756 -1166.9537881 1668.39189059 C-1171.41226886 1667.53800217 -1174.8676129 1669.8586836 -1178.70703125 1671.921875 C-1179.83882812 1672.52837891 -1180.970625 1673.13488281 -1182.13671875 1673.75976562 C-1183.36211299 1674.42292986 -1184.58736999 1675.08634775 -1185.8125 1675.75 C-1187.08327562 1676.43435197 -1188.35410966 1677.11859547 -1189.625 1677.80273438 C-1198.23856782 1682.45115778 -1206.77259684 1687.23007994 -1215.27270508 1692.08300781 C-1223.37093116 1696.6889396 -1231.57667176 1701.08374356 -1239.80126953 1705.45800781 C-1247.76480434 1709.69627939 -1255.66582661 1714.02657745 -1263.5 1718.5 C-1272.03074601 1723.37030235 -1280.64432331 1728.06803154 -1289.3125 1732.6875 C-1299.06686957 1737.88677763 -1308.76903398 1743.16461722 -1318.41650391 1748.55957031 C-1323.97712093 1751.65989544 -1329.55129066 1754.73579443 -1335.125 1757.8125 C-1335.74693237 1758.15588409 -1336.36886475 1758.49926819 -1337.00964355 1758.85305786 C-1346.54261392 1764.11447549 -1356.10482839 1769.31963897 -1365.68530273 1774.49414062 C-1372.08331202 1777.95281433 -1378.45611596 1781.45274588 -1384.80810547 1784.99511719 C-1393.04182331 1789.58654459 -1401.29849175 1794.13627264 -1409.55419922 1798.68798828 C-1410.81738282 1799.38444009 -1412.08056641 1800.08089191 -1413.34375 1800.77734375 C-1413.97532013 1801.12553162 -1414.60689026 1801.47371948 -1415.25759888 1801.8324585 C-1419.66299483 1804.26157652 -1424.06630817 1806.69443918 -1428.46875 1809.12890625 C-1430.91651072 1810.48205315 -1433.36443715 1811.83489977 -1435.8125 1813.1875 C-1436.41569061 1813.52079315 -1437.01888123 1813.8540863 -1437.64035034 1814.19747925 C-1445.86165394 1818.73822338 -1454.10741838 1823.23145948 -1462.375 1827.6875 C-1470.05354556 1831.82609732 -1477.67150897 1836.05605384 -1485.25 1840.375 C-1493.86573123 1845.2833288 -1502.56277619 1850.02393716 -1511.3125 1854.6875 C-1521.06679021 1859.88692916 -1530.76903123 1865.16461568 -1540.41650391 1870.55957031 C-1545.97712093 1873.65989544 -1551.55129066 1876.73579443 -1557.125 1879.8125 C-1557.74693237 1880.15588409 -1558.36886475 1880.49926819 -1559.00964355 1880.85305786 C-1568.54261392 1886.11447549 -1578.10482839 1891.31963897 -1587.68530273 1896.49414062 C-1594.08331202 1899.95281433 -1600.45611596 1903.45274588 -1606.80810547 1906.99511719 C-1615.04182331 1911.58654459 -1623.29849175 1916.13627264 -1631.55419922 1920.68798828 C-1632.81738282 1921.38444009 -1634.08056641 1922.08089191 -1635.34375 1922.77734375 C-1635.97532013 1923.12553162 -1636.60689026 1923.47371948 -1637.25759888 1923.8324585 C-1641.66299483 1926.26157652 -1646.06630817 1928.69443918 -1650.46875 1931.12890625 C-1652.91651072 1932.48205315 -1655.36443715 1933.83489977 -1657.8125 1935.1875 C-1658.41569061 1935.52079315 -1659.01888123 1935.8540863 -1659.64035034 1936.19747925 C-1667.86165394 1940.73822338 -1676.10741838 1945.23145948 -1684.375 1949.6875 C-1692.05354556 1953.82609732 -1699.67150897 1958.05605384 -1707.25 1962.375 C-1715.86573123 1967.2833288 -1724.56277619 1972.02393716 -1733.3125 1976.6875 C-1743.06679021 1981.88692916 -1752.76903123 1987.16461568 -1762.41650391 1992.55957031 C-1767.97712093 1995.65989544 -1773.55129066 1998.73579443 -1779.125 2001.8125 C-1779.74693237 2002.15588409 -1780.36886475 2002.49926819 -1781.00964355 2002.85305786 C-1790.54261392 2008.11447549 -1800.10482839 2013.31963897 -1809.68530273 2018.49414062 C-1816.82055443 2022.35135719 -1823.919405 2026.26933062 -1831.00390625 2030.21875 C-1837.36883343 2033.7658502 -1843.74609717 2037.29061612 -1850.125 2040.8125 C-1850.74656982 2041.15570282 -1851.36813965 2041.49890564 -1852.00854492 2041.85250854 C-1861.54188646 2047.11409897 -1871.10446919 2052.31944496 -1880.68530273 2057.49414062 C-1887.08331202 2060.95281433 -1893.45611596 2064.45274588 -1899.80810547 2067.99511719 C-1908.04182331 2072.58654459 -1916.29849175 2077.13627264 -1924.55419922 2081.68798828 C-1925.81738282 2082.38444009 -1927.08056641 2083.08089191 -1928.34375 2083.77734375 C-1928.97532013 2084.12553162 -1929.60689026 2084.47371948 -1930.25759888 2084.8324585 C-1934.66299483 2087.26157652 -1939.06630817 2089.69443918 -1943.46875 2092.12890625 C-1945.91651072 2093.48205315 -1948.36443715 2094.83489977 -1950.8125 2096.1875 C-1951.41569061 2096.52079315 -1952.01888123 2096.8540863 -1952.64035034 2097.19747925 C-1960.86165394 2101.73822338 -1969.10741838 2106.23145948 -1977.375 2110.6875 C-1985.05354556 2114.82609732 -1992.67150897 2119.05605384 -2000.25 2123.375 C-2008.86573123 2128.2833288 -2017.56277619 2133.02393716 -2026.3125 2137.6875 C-2036.06679021 2142.88692916 -2045.76903123 2148.16461568 -2055.41650391 2153.55957031 C-2060.97712093 2156.65989544 -2066.55129066 2159.73579443 -2072.125 2162.8125 C-2072.74693237 2163.15588409 -2073.36886475 2163.49926819 -2074.00964355 2163.85305786 C-2083.54261392 2169.11447549 -2093.10482839 2174.31963897 -2102.68530273 2179.49414062 C-2109.08331202 2182.95281433 -2115.45611596 2186.45274588 -2121.80810547 2189.99511719 C-2130.04182331 2194.58654459 -2138.29849175 2199.13627264 -2146.55419922 2203.68798828 C-2147.81738282 2204.38444009 -2149.08056641 2205.08089191 -2150.34375 2205.77734375 C-2150.97532013 2206.12553162 -2151.60689026 2206.47371948 -2152.25759888 2206.8324585 C-2156.66299483 2209.26157652 -2161.06630817 2211.69443918 -2165.46875 2214.12890625 C-2167.91651072 2215.48205315 -2170.36443715 2216.83489977 -2172.8125 2218.1875 C-2173.41569061 2218.52079315 -2174.01888123 2218.8540863 -2174.64035034 2219.19747925 C-2182.86165394 2223.73822338 -2191.10741838 2228.23145948 -2199.375 2232.6875 C-2207.05354556 2236.82609732 -2214.67150897 2241.05605384 -2222.25 2245.375 C-2230.86573123 2250.2833288 -2239.56277619 2255.02393716 -2248.3125 2259.6875 C-2258.06679021 2264.88692916 -2267.76903123 2270.16461568 -2277.41650391 2275.55957031 C-2282.97712093 2278.65989544 -2288.55129066 2281.73579443 -2294.125 2284.8125 C-2294.74693237 2285.15588409 -2295.36886475 2285.49926819 -2296.00964355 2285.85305786 C-2305.54261392 2291.11447549 -2315.10482839 2296.31963897 -2324.68530273 2301.49414062 C-2331.08331202 2304.95281433 -2337.45611596 2308.45274588 -2343.80810547 2311.99511719 C-2352.04182331 2316.58654459 -2360.29849175 2321.13627264 -2368.55419922 2325.68798828 C-2369.81738282 2326.38444009 -2371.08056641 2327.08089191 -2372.34375 2327.77734375 C-2372.97532013 2328.12553162 -2373.60689026 2328.47371948 -2374.25759888 2328.8324585 C-2378.66299483 2331.26157652 -2383.06630817 2333.69443918 -2387.46875 2336.12890625 C-2389.91651072 2337.48205315 -2392.36443715 2338.83489977 -2394.8125 2340.1875 C-2395.41569061 2340.52079315 -2396.01888123 2340.8540863 -2396.64035034 2341.19747925 C-2405.82535658 2346.2704902 -2415.0423409 2351.28198155 -2424.28369141 2356.25170898 C-2429.36643081 2358.99528687 -2434.41321801 2361.79011439 -2439.42578125 2364.66015625 C-2440.99996826 2365.56084839 -2440.99996826 2365.56084839 -2442.60595703 2366.47973633 C-2444.60936958 2367.63064303 -2446.60926175 2368.78770721 -2448.60498047 2369.9519043 C-2449.5023291 2370.46793213 -2450.39967773 2370.98395996 -2451.32421875 2371.515625 C-2452.10885498 2371.97227539 -2452.89349121 2372.42892578 -2453.7019043 2372.89941406 C-2456.13667419 2374.06545493 -2458.34149445 2374.58489331 -2461 2375 C-2456.87624824 2369.39448062 -2452.57459047 2363.97441149 -2448.125 2358.625 C-2446.87839032 2357.11891647 -2445.63229266 2355.61240899 -2444.38671875 2354.10546875 C-2443.79681152 2353.39181152 -2443.2069043 2352.6781543 -2442.59912109 2351.94287109 C-2440.06821018 2348.86791093 -2437.58685009 2345.75473762 -2435.109375 2342.63671875 C-2432.32474382 2339.15592977 -2429.50431373 2335.70475954 -2426.6875 2332.25 C-2422.52744642 2327.14624997 -2418.42027374 2322.00762144 -2414.375 2316.8125 C-2410.4113986 2311.72636771 -2406.31009715 2306.78365884 -2402.11791992 2301.88500977 C-2398.39953824 2297.52046797 -2394.85494744 2293.03761304 -2391.3359375 2288.51171875 C-2387.0595134 2283.03066814 -2382.63406491 2277.6788715 -2378.19873047 2272.32617188 C-2374.50067325 2267.85240482 -2370.87521363 2263.33210279 -2367.3125 2258.75 C-2363.37123892 2253.68266433 -2359.29136571 2248.76168766 -2355.11767578 2243.88476562 C-2351.40179871 2239.52304939 -2347.85961347 2235.0431116 -2344.3425293 2230.52050781 C-2339.99001751 2224.94277049 -2335.49210343 2219.49005972 -2330.98339844 2214.03833008 C-2327.31671969 2209.60346698 -2323.68923025 2205.14213487 -2320.109375 2200.63671875 C-2317.32474382 2197.15592977 -2314.50431373 2193.70475954 -2311.6875 2190.25 C-2307.52744642 2185.14624997 -2303.42027374 2180.00762144 -2299.375 2174.8125 C-2295.4113986 2169.72636771 -2291.31009715 2164.78365884 -2287.11791992 2159.88500977 C-2283.40191135 2155.52325347 -2279.8596838 2151.04320204 -2276.3425293 2146.52050781 C-2271.99001751 2140.94277049 -2267.49210343 2135.49005972 -2262.98339844 2130.03833008 C-2259.31439263 2125.60065239 -2255.68559933 2121.13564193 -2252.1015625 2116.62890625 C-2249.3570997 2113.19577714 -2246.58541674 2109.78516332 -2243.8125 2106.375 C-2243.25828369 2105.6931665 -2242.70406738 2105.01133301 -2242.13305664 2104.30883789 C-2239.31165795 2100.83893498 -2236.48754343 2097.37127492 -2233.66015625 2093.90625 C-2228.50707333 2087.58530797 -2223.38717021 2081.24595156 -2218.375 2074.8125 C-2214.41125249 2069.726478 -2210.31010256 2064.78366515 -2206.11791992 2059.88500977 C-2202.40191135 2055.52325347 -2198.8596838 2051.04320204 -2195.3425293 2046.52050781 C-2190.99001751 2040.94277049 -2186.49210343 2035.49005972 -2181.98339844 2030.03833008 C-2178.31671969 2025.60346698 -2174.68923025 2021.14213487 -2171.109375 2016.63671875 C-2168.32474382 2013.15592977 -2165.50431373 2009.70475954 -2162.6875 2006.25 C-2158.52744642 2001.14624997 -2154.42027374 1996.00762144 -2150.375 1990.8125 C-2146.4113986 1985.72636771 -2142.31009715 1980.78365884 -2138.11791992 1975.88500977 C-2134.39953824 1971.52046797 -2130.85494744 1967.03761304 -2127.3359375 1962.51171875 C-2123.0595134 1957.03066814 -2118.63406491 1951.6788715 -2114.19873047 1946.32617188 C-2110.50067325 1941.85240482 -2106.87521363 1937.33210279 -2103.3125 1932.75 C-2099.37123892 1927.68266433 -2095.29136571 1922.76168766 -2091.11767578 1917.88476562 C-2087.40179871 1913.52304939 -2083.85961347 1909.0431116 -2080.3425293 1904.52050781 C-2075.99001751 1898.94277049 -2071.49210343 1893.49005972 -2066.98339844 1888.03833008 C-2063.31671969 1883.60346698 -2059.68923025 1879.14213487 -2056.109375 1874.63671875 C-2053.32474382 1871.15592977 -2050.50431373 1867.70475954 -2047.6875 1864.25 C-2043.52744642 1859.14624997 -2039.42027374 1854.00762144 -2035.375 1848.8125 C-2031.4113986 1843.72636771 -2027.31009715 1838.78365884 -2023.11791992 1833.88500977 C-2019.39953824 1829.52046797 -2015.85494744 1825.03761304 -2012.3359375 1820.51171875 C-2008.0595134 1815.03066814 -2003.63406491 1809.6788715 -1999.19873047 1804.32617188 C-1995.50067325 1799.85240482 -1991.87521363 1795.33210279 -1988.3125 1790.75 C-1984.37123892 1785.68266433 -1980.29136571 1780.76168766 -1976.11767578 1775.88476562 C-1972.40179871 1771.52304939 -1968.85961347 1767.0431116 -1965.3425293 1762.52050781 C-1960.99001751 1756.94277049 -1956.49210343 1751.49005972 -1951.98339844 1746.03833008 C-1948.31671969 1741.60346698 -1944.68923025 1737.14213487 -1941.109375 1732.63671875 C-1938.32474382 1729.15592977 -1935.50431373 1725.70475954 -1932.6875 1722.25 C-1928.52744642 1717.14624997 -1924.42027374 1712.00762144 -1920.375 1706.8125 C-1916.4113986 1701.72636771 -1912.31009715 1696.78365884 -1908.11791992 1691.88500977 C-1904.40191135 1687.52325347 -1900.8596838 1683.04320204 -1897.3425293 1678.52050781 C-1892.99001751 1672.94277049 -1888.49210343 1667.49005972 -1883.98339844 1662.03833008 C-1880.31439263 1657.60065239 -1876.68559933 1653.13564193 -1873.1015625 1648.62890625 C-1870.3570997 1645.19577714 -1867.58541674 1641.78516332 -1864.8125 1638.375 C-1864.25828369 1637.6931665 -1863.70406738 1637.01133301 -1863.13305664 1636.30883789 C-1860.31165795 1632.83893498 -1857.48754343 1629.37127492 -1854.66015625 1625.90625 C-1849.50707333 1619.58530797 -1844.38717021 1613.24595156 -1839.375 1606.8125 C-1835.41125249 1601.726478 -1831.31010256 1596.78366515 -1827.11791992 1591.88500977 C-1823.40191135 1587.52325347 -1819.8596838 1583.04320204 -1816.3425293 1578.52050781 C-1811.99001751 1572.94277049 -1807.49210343 1567.49005972 -1802.98339844 1562.03833008 C-1799.31671969 1557.60346698 -1795.68923025 1553.14213487 -1792.109375 1548.63671875 C-1789.32474382 1545.15592977 -1786.50431373 1541.70475954 -1783.6875 1538.25 C-1779.52744642 1533.14624997 -1775.42027374 1528.00762144 -1771.375 1522.8125 C-1767.4113986 1517.72636771 -1763.31009715 1512.78365884 -1759.11791992 1507.88500977 C-1755.39953824 1503.52046797 -1751.85494744 1499.03761304 -1748.3359375 1494.51171875 C-1744.0595134 1489.03066814 -1739.63406491 1483.6788715 -1735.19873047 1478.32617188 C-1731.50067325 1473.85240482 -1727.87521363 1469.33210279 -1724.3125 1464.75 C-1720.37123892 1459.68266433 -1716.29136571 1454.76168766 -1712.11767578 1449.88476562 C-1708.40179871 1445.52304939 -1704.85961347 1441.0431116 -1701.3425293 1436.52050781 C-1696.99001751 1430.94277049 -1692.49210343 1425.49005972 -1687.98339844 1420.03833008 C-1684.31671969 1415.60346698 -1680.68923025 1411.14213487 -1677.109375 1406.63671875 C-1674.32474382 1403.15592977 -1671.50431373 1399.70475954 -1668.6875 1396.25 C-1664.52744642 1391.14624997 -1660.42027374 1386.00762144 -1656.375 1380.8125 C-1652.4113986 1375.72636771 -1648.31009715 1370.78365884 -1644.11791992 1365.88500977 C-1640.39953824 1361.52046797 -1636.85494744 1357.03761304 -1633.3359375 1352.51171875 C-1629.0595134 1347.03066814 -1624.63406491 1341.6788715 -1620.19873047 1336.32617188 C-1616.50067325 1331.85240482 -1612.87521363 1327.33210279 -1609.3125 1322.75 C-1605.37123892 1317.68266433 -1601.29136571 1312.76168766 -1597.11767578 1307.88476562 C-1593.40179871 1303.52304939 -1589.85961347 1299.0431116 -1586.3425293 1294.52050781 C-1581.99001751 1288.94277049 -1577.49210343 1283.49005972 -1572.98339844 1278.03833008 C-1569.31671969 1273.60346698 -1565.68923025 1269.14213487 -1562.109375 1264.63671875 C-1559.32474382 1261.15592977 -1556.50431373 1257.70475954 -1553.6875 1254.25 C-1549.52744642 1249.14624997 -1545.42027374 1244.00762144 -1541.375 1238.8125 C-1537.4113986 1233.72636771 -1533.31009715 1228.78365884 -1529.11791992 1223.88500977 C-1525.40191135 1219.52325347 -1521.8596838 1215.04320204 -1518.3425293 1210.52050781 C-1513.99001751 1204.94277049 -1509.49210343 1199.49005972 -1504.98339844 1194.03833008 C-1501.31439263 1189.60065239 -1497.68559933 1185.13564193 -1494.1015625 1180.62890625 C-1491.3570997 1177.19577714 -1488.58541674 1173.78516332 -1485.8125 1170.375 C-1485.25828369 1169.6931665 -1484.70406738 1169.01133301 -1484.13305664 1168.30883789 C-1481.31165795 1164.83893498 -1478.48754343 1161.37127492 -1475.66015625 1157.90625 C-1470.50707333 1151.58530797 -1465.38717021 1145.24595156 -1460.375 1138.8125 C-1456.41125249 1133.726478 -1452.31010256 1128.78366515 -1448.11791992 1123.88500977 C-1444.40191135 1119.52325347 -1440.8596838 1115.04320204 -1437.3425293 1110.52050781 C-1432.99001751 1104.94277049 -1428.49210343 1099.49005972 -1423.98339844 1094.03833008 C-1420.31671969 1089.60346698 -1416.68923025 1085.14213487 -1413.109375 1080.63671875 C-1410.32474382 1077.15592977 -1407.50431373 1073.70475954 -1404.6875 1070.25 C-1400.52744642 1065.14624997 -1396.42027374 1060.00762144 -1392.375 1054.8125 C-1388.4113986 1049.72636771 -1384.31009715 1044.78365884 -1380.11791992 1039.88500977 C-1376.39953824 1035.52046797 -1372.85494744 1031.03761304 -1369.3359375 1026.51171875 C-1365.0595134 1021.03066814 -1360.63406491 1015.6788715 -1356.19873047 1010.32617188 C-1352.50067325 1005.85240482 -1348.87521363 1001.33210279 -1345.3125 996.75 C-1341.37123892 991.68266433 -1337.29136571 986.76168766 -1333.11767578 981.88476562 C-1329.40179871 977.52304939 -1325.85961347 973.0431116 -1322.3425293 968.52050781 C-1317.99001751 962.94277049 -1313.49210343 957.49005972 -1308.98339844 952.03833008 C-1305.31671969 947.60346698 -1301.68923025 943.14213487 -1298.109375 938.63671875 C-1295.32474382 935.15592977 -1292.50431373 931.70475954 -1289.6875 928.25 C-1285.52744642 923.14624997 -1281.42027374 918.00762144 -1277.375 912.8125 C-1273.4113986 907.72636771 -1269.31009715 902.78365884 -1265.11791992 897.88500977 C-1261.39953824 893.52046797 -1257.85494744 889.03761304 -1254.3359375 884.51171875 C-1250.0595134 879.03066814 -1245.63406491 873.6788715 -1241.19873047 868.32617188 C-1237.50067325 863.85240482 -1233.87521363 859.33210279 -1230.3125 854.75 C-1226.37123892 849.68266433 -1222.29136571 844.76168766 -1218.11767578 839.88476562 C-1214.40179871 835.52304939 -1210.85961347 831.0431116 -1207.3425293 826.52050781 C-1202.99001751 820.94277049 -1198.49210343 815.49005972 -1193.98339844 810.03833008 C-1190.31671969 805.60346698 -1186.68923025 801.14213487 -1183.109375 796.63671875 C-1180.32474382 793.15592977 -1177.50431373 789.70475954 -1174.6875 786.25 C-1170.52744642 781.14624997 -1166.42027374 776.00762144 -1162.375 770.8125 C-1158.4113986 765.72636771 -1154.31009715 760.78365884 -1150.11791992 755.88500977 C-1146.40191135 751.52325347 -1142.8596838 747.04320204 -1139.3425293 742.52050781 C-1134.99001751 736.94277049 -1130.49210343 731.49005972 -1125.98339844 726.03833008 C-1122.31439263 721.60065239 -1118.68559933 717.13564193 -1115.1015625 712.62890625 C-1112.3570997 709.19577714 -1109.58541674 705.78516332 -1106.8125 702.375 C-1106.25828369 701.6931665 -1105.70406738 701.01133301 -1105.13305664 700.30883789 C-1102.31165795 696.83893498 -1099.48754343 693.37127492 -1096.66015625 689.90625 C-1091.50707333 683.58530797 -1086.38717021 677.24595156 -1081.375 670.8125 C-1077.41125249 665.726478 -1073.31010256 660.78366515 -1069.11791992 655.88500977 C-1065.40191135 651.52325347 -1061.8596838 647.04320204 -1058.3425293 642.52050781 C-1053.99001751 636.94277049 -1049.49210343 631.49005972 -1044.98339844 626.03833008 C-1041.31671969 621.60346698 -1037.68923025 617.14213487 -1034.109375 612.63671875 C-1031.32474382 609.15592977 -1028.50431373 605.70475954 -1025.6875 602.25 C-1021.52744843 597.14625244 -1017.4201723 592.00769873 -1013.375 586.8125 C-1009.40169408 581.71208141 -1005.28591013 576.76021877 -1001.07836914 571.85205078 C-996.15739961 566.0769993 -991.56864123 560.05518393 -987 554 C-992.94031544 557.90289146 -998.75839141 561.93615348 -1004.5 566.125 C-1010.47035633 570.45984656 -1016.46347723 574.75777574 -1022.5 579 C-1028.36499573 583.12374004 -1034.19433912 587.29314418 -1040 591.5 C-1046.50058483 596.21040657 -1053.0386388 600.86297608 -1059.60546875 605.48046875 C-1064.7656687 609.11454672 -1069.88921666 612.79681272 -1075 616.5 C-1084.30975489 623.24348241 -1093.70052336 629.86834937 -1103.10449219 636.47949219 C-1111.86878716 642.6433473 -1120.59275544 648.85741881 -1129.26928711 655.14428711 C-1135.01573517 659.30294164 -1140.80302685 663.40045858 -1146.60546875 667.48046875 C-1151.7656672 671.11454566 -1156.8892894 674.79671401 -1162 678.5 C-1168.50058483 683.21040657 -1175.0386388 687.86297608 -1181.60546875 692.48046875 C-1186.7656672 696.11454566 -1191.8892894 699.79671401 -1197 703.5 C-1203.50058483 708.21040657 -1210.0386388 712.86297608 -1216.60546875 717.48046875 C-1221.7656672 721.11454566 -1226.8892894 724.79671401 -1232 728.5 C-1238.50058483 733.21040657 -1245.0386388 737.86297608 -1251.60546875 742.48046875 C-1256.7656672 746.11454566 -1261.8892894 749.79671401 -1267 753.5 C-1273.50058483 758.21040657 -1280.0386388 762.86297608 -1286.60546875 767.48046875 C-1291.7656672 771.11454566 -1296.8892894 774.79671401 -1302 778.5 C-1308.50272086 783.21195436 -1315.04271791 787.86635191 -1321.61206055 792.48486328 C-1326.70904329 796.07395681 -1331.76681434 799.71423156 -1336.8125 803.375 C-1343.9971426 808.58542777 -1351.25087487 813.68980941 -1358.53173828 818.76464844 C-1364.87597153 823.19417512 -1371.15913413 827.70232196 -1377.421875 832.24609375 C-1382.42098265 835.86978554 -1387.449049 839.44897885 -1392.5 843 C-1398.36491143 847.12386145 -1404.19433732 851.29314288 -1410 855.5 C-1416.50058483 860.21040657 -1423.0386388 864.86297608 -1429.60546875 869.48046875 C-1434.7656672 873.11454566 -1439.8892894 876.79671401 -1445 880.5 C-1451.50058483 885.21040657 -1458.0386388 889.86297608 -1464.60546875 894.48046875 C-1469.7656672 898.11454566 -1474.8892894 901.79671401 -1480 905.5 C-1486.50058483 910.21040657 -1493.0386388 914.86297608 -1499.60546875 919.48046875 C-1504.7656672 923.11454566 -1509.8892894 926.79671401 -1515 930.5 C-1521.50058483 935.21040657 -1528.0386388 939.86297608 -1534.60546875 944.48046875 C-1539.7656672 948.11454566 -1544.8892894 951.79671401 -1550 955.5 C-1556.50272086 960.21195436 -1563.04271791 964.86635191 -1569.61206055 969.48486328 C-1574.70904329 973.07395681 -1579.76681434 976.71423156 -1584.8125 980.375 C-1591.9971426 985.58542777 -1599.25087487 990.68980941 -1606.53173828 995.76464844 C-1612.87597153 1000.19417512 -1619.15913413 1004.70232196 -1625.421875 1009.24609375 C-1630.42098265 1012.86978554 -1635.449049 1016.44897885 -1640.5 1020 C-1646.36491143 1024.12386145 -1652.19433732 1028.29314288 -1658 1032.5 C-1664.50058483 1037.21040657 -1671.0386388 1041.86297608 -1677.60546875 1046.48046875 C-1682.7656672 1050.11454566 -1687.8892894 1053.79671401 -1693 1057.5 C-1699.50058483 1062.21040657 -1706.0386388 1066.86297608 -1712.60546875 1071.48046875 C-1717.7656672 1075.11454566 -1722.8892894 1078.79671401 -1728 1082.5 C-1734.50058483 1087.21040657 -1741.0386388 1091.86297608 -1747.60546875 1096.48046875 C-1752.7656672 1100.11454566 -1757.8892894 1103.79671401 -1763 1107.5 C-1769.50058483 1112.21040657 -1776.0386388 1116.86297608 -1782.60546875 1121.48046875 C-1787.7656672 1125.11454566 -1792.8892894 1128.79671401 -1798 1132.5 C-1804.50272086 1137.21195436 -1811.04271791 1141.86635191 -1817.61206055 1146.48486328 C-1822.70904329 1150.07395681 -1827.76681434 1153.71423156 -1832.8125 1157.375 C-1839.9971426 1162.58542777 -1847.25087487 1167.68980941 -1854.53173828 1172.76464844 C-1860.87597153 1177.19417512 -1867.15913413 1181.70232196 -1873.421875 1186.24609375 C-1878.42098265 1189.86978554 -1883.449049 1193.44897885 -1888.5 1197 C-1894.36491143 1201.12386145 -1900.19433732 1205.29314288 -1906 1209.5 C-1912.50058483 1214.21040657 -1919.0386388 1218.86297608 -1925.60546875 1223.48046875 C-1930.7656672 1227.11454566 -1935.8892894 1230.79671401 -1941 1234.5 C-1947.50058483 1239.21040657 -1954.0386388 1243.86297608 -1960.60546875 1248.48046875 C-1965.7656672 1252.11454566 -1970.8892894 1255.79671401 -1976 1259.5 C-1982.50058483 1264.21040657 -1989.0386388 1268.86297608 -1995.60546875 1273.48046875 C-2000.7656672 1277.11454566 -2005.8892894 1280.79671401 -2011 1284.5 C-2017.497616 1289.20825531 -2024.03223693 1293.85935192 -2030.59667969 1298.47387695 C-2035.06675732 1301.62127167 -2039.51034153 1304.80273325 -2043.93676758 1308.01123047 C-2046.20343986 1309.65376048 -2048.47436419 1311.29025567 -2050.74609375 1312.92578125 C-2053.46230783 1314.88201833 -2056.16101811 1316.85886062 -2058.84765625 1318.85546875 C-2060.00222703 1319.69583089 -2061.1571508 1320.53570837 -2062.3125 1321.375 C-2063.29863281 1322.10460938 -2064.28476563 1322.83421875 -2065.30078125 1323.5859375 C-2068.68178794 1325.357174 -2069.36263404 1324.99722897 -2073 1324 C-2076.09960226 1322.95645044 -2079.15824563 1321.81270981 -2082.21875 1320.66015625 C-2083.62191971 1320.13680191 -2083.62191971 1320.13680191 -2085.05343628 1319.60287476 C-2088.20373602 1318.42657654 -2091.35187549 1317.24460637 -2094.5 1316.0625 C-2096.76765457 1315.21404336 -2099.03539786 1314.36582381 -2101.30322266 1313.51782227 C-2108.87145525 1310.68556224 -2116.43616006 1307.84396488 -2124 1305 C-2124.65912888 1304.75219284 -2125.31825775 1304.50438568 -2125.99736023 1304.24906921 C-2146.0944481 1296.6929309 -2166.18400725 1289.11684342 -2186.27250385 1281.53790092 C-2199.55752524 1276.5259027 -2212.84386493 1271.5174003 -2226.13056183 1266.50984573 C-2227.58665792 1265.96106098 -2229.0427482 1265.41226079 -2230.4988327 1264.86344528 C-2250.32565692 1257.39050376 -2270.15852489 1249.93397609 -2290 1242.5 C-2310.57079453 1234.79277088 -2331.13197606 1227.06034002 -2351.6875 1219.3125 C-2352.76866404 1218.90499701 -2352.76866404 1218.90499701 -2353.87166977 1218.48926163 C-2365.65607545 1214.04754831 -2377.44000955 1209.60458441 -2389.22389221 1205.16148376 C-2400.25320852 1201.00290646 -2411.28268764 1196.84476145 -2422.3125 1192.6875 C-2423.03432339 1192.4154285 -2423.75614677 1192.14335701 -2424.4998436 1191.86304092 C-2444.32630303 1184.39016097 -2464.158865 1176.93384866 -2484 1169.5 C-2504.57079453 1161.79277088 -2525.13197606 1154.06034002 -2545.6875 1146.3125 C-2546.76866404 1145.90499701 -2546.76866404 1145.90499701 -2547.87166977 1145.48926163 C-2559.65607545 1141.04754831 -2571.44000955 1136.60458441 -2583.22389221 1132.16148376 C-2594.25320852 1128.00290646 -2605.28268764 1123.84476145 -2616.3125 1119.6875 C-2617.03432339 1119.4154285 -2617.75614677 1119.14335701 -2618.4998436 1118.86304092 C-2638.32630414 1111.39016055 -2658.15905364 1103.93435422 -2678 1096.5 C-2697.41786386 1089.22264395 -2716.83332859 1081.93889923 -2736.24173737 1074.63636017 C-2740.09874874 1073.18514161 -2743.95600444 1071.73458264 -2747.81396484 1070.28588867 C-2751.43325061 1068.92677224 -2755.05174363 1067.56556562 -2758.6696701 1066.20283508 C-2759.99839803 1065.70273936 -2761.32739194 1065.20334962 -2762.65668488 1064.70475769 C-2770.84377054 1061.63326846 -2778.95291016 1058.42220587 -2787 1055 C-2782.9526934 1044.61070359 -2782.9526934 1044.61070359 -2777.46484375 1042.12109375 C-2775.96347631 1041.53948758 -2774.45336623 1040.98019652 -2772.9375 1040.4375 C-2772.05634521 1040.10347168 -2771.17519043 1039.76944336 -2770.26733398 1039.42529297 C-2767.18534162 1038.26348122 -2764.09323162 1037.13152289 -2761 1036 C-2758.77292479 1035.17195057 -2756.54638773 1034.34245272 -2754.3203125 1033.51171875 C-2750.28528184 1032.00860171 -2746.24927836 1030.50833124 -2742.21020508 1029.01611328 C-2726.73082126 1023.29454449 -2711.28888724 1017.47399073 -2695.84757614 1011.65068817 C-2693.61286011 1010.80792175 -2691.37810522 1009.96525845 -2689.14334106 1009.12261963 C-2683.03189708 1006.81819174 -2676.92054119 1004.51353041 -2670.80937195 1002.20837402 C-2660.41270766 998.28671568 -2650.01530788 994.36701466 -2639.6171875 990.44921875 C-2638.90958408 990.18260752 -2638.20198067 989.91599628 -2637.47293472 989.64130592 C-2633.90805484 988.2981416 -2630.34316037 986.95501599 -2626.77825928 985.61190796 C-2620.32155306 983.17926538 -2613.86497712 980.74627704 -2607.40839005 978.31331825 C-2603.81393191 976.958865 -2600.21946554 975.6044336 -2596.625 974.25 C-2595.18749996 973.70833344 -2593.74999996 973.16666677 -2592.3125 972.625 C-2521.15625 945.8125 -2450 919 -2376.6875 891.375 C-2375.97592837 891.10687154 -2375.26435675 890.83874308 -2374.53122234 890.56248951 C-2373.09381459 890.02085765 -2371.65640678 889.47922595 -2370.21899891 888.93759441 C-2366.623837 887.58289653 -2363.02867614 886.22819583 -2359.43351746 884.87348938 C-2352.98162848 882.44232979 -2346.52973238 880.01118911 -2340.07779598 877.58015537 C-2336.50628577 876.23444057 -2332.93478186 874.88870904 -2329.36328125 873.54296875 C-2328.65524164 873.27618002 -2327.94720203 873.00939129 -2327.21770668 872.73451805 C-2316.81883562 868.81619317 -2306.42033328 864.89689093 -2296.02201462 860.97710037 C-2243.00705444 840.99262744 -2243.00705444 840.99262744 -2220.76019287 832.66119385 C-2203.93566907 826.3595361 -2187.12403728 820.0236983 -2170.3125 813.6875 C-2169.57611298 813.4099588 -2168.83972595 813.1324176 -2168.08102417 812.84646606 C-2161.28120945 810.28360528 -2154.48146807 807.72054994 -2147.68179321 805.15731812 C-2137.33371755 801.25647262 -2126.98535519 797.35638879 -2116.63671875 793.45703125 C-2115.92853312 793.19018713 -2115.22034748 792.92334301 -2114.49070168 792.6484127 C-2110.92157059 791.30357034 -2107.35243391 789.95874286 -2103.78329468 788.61392212 C-2097.32485629 786.18043029 -2090.86646793 783.74680571 -2084.40807533 781.31319237 C-2080.81371889 779.95878959 -2077.21935929 778.60439522 -2073.625 777.25 C-2072.18749998 776.70833337 -2070.74999998 776.16666671 -2069.3125 775.625 C-2020.4375 757.20833333 -1971.5625 738.79166667 -1922.6875 720.375 C-1921.97592837 720.10687154 -1921.26435675 719.83874308 -1920.53122234 719.56248951 C-1919.09381459 719.02085765 -1917.65640678 718.47922595 -1916.21899891 717.93759441 C-1912.623837 716.58289653 -1909.02867614 715.22819583 -1905.43351746 713.87348938 C-1898.98162848 711.44232979 -1892.52973238 709.01118911 -1886.07779598 706.58015537 C-1882.50628577 705.23444057 -1878.93478186 703.88870904 -1875.36328125 702.54296875 C-1874.65524164 702.27618002 -1873.94720203 702.00939129 -1873.21770668 701.73451805 C-1862.81883562 697.81619317 -1852.42033328 693.89689093 -1842.02201462 689.97710037 C-1789.00705444 669.99262744 -1789.00705444 669.99262744 -1766.76019287 661.66119385 C-1749.93566907 655.3595361 -1733.12403728 649.0236983 -1716.3125 642.6875 C-1715.57611298 642.4099588 -1714.83972595 642.1324176 -1714.08102417 641.84646606 C-1707.28120945 639.28360528 -1700.48146807 636.72054994 -1693.68179321 634.15731812 C-1683.33371755 630.25647262 -1672.98535519 626.35638879 -1662.63671875 622.45703125 C-1661.92853312 622.19018713 -1661.22034748 621.92334301 -1660.49070168 621.6484127 C-1656.92157059 620.30357034 -1653.35243391 618.95874286 -1649.78329468 617.61392212 C-1643.32485629 615.18043029 -1636.86646793 612.74680571 -1630.40807533 610.31319237 C-1626.81371889 608.95878959 -1623.21935929 607.60439522 -1619.625 606.25 C-1618.18749998 605.70833337 -1616.74999998 605.16666671 -1615.3125 604.625 C-1544.15625 577.8125 -1473 551 -1399.6875 523.375 C-1398.97592837 523.10687154 -1398.26435675 522.83874308 -1397.53122234 522.56248951 C-1396.09381459 522.02085765 -1394.65640678 521.47922595 -1393.21899891 520.93759441 C-1389.623837 519.58289653 -1386.02867614 518.22819583 -1382.43351746 516.87348938 C-1375.98162848 514.44232979 -1369.52973238 512.01118911 -1363.07779598 509.58015537 C-1359.50628577 508.23444057 -1355.93478186 506.88870904 -1352.36328125 505.54296875 C-1351.65524164 505.27618002 -1350.94720203 505.00939129 -1350.21770668 504.73451805 C-1339.81883562 500.81619317 -1329.42033328 496.89689093 -1319.02201462 492.97710037 C-1266.00705444 472.99262744 -1266.00705444 472.99262744 -1243.76019287 464.66119385 C-1226.93566907 458.3595361 -1210.12403728 452.0236983 -1193.3125 445.6875 C-1192.57611298 445.4099588 -1191.83972595 445.1324176 -1191.08102417 444.84646606 C-1184.28120945 442.28360528 -1177.48146807 439.72054994 -1170.68179321 437.15731812 C-1160.33371755 433.25647262 -1149.98535519 429.35638879 -1139.63671875 425.45703125 C-1138.92853312 425.19018713 -1138.22034748 424.92334301 -1137.49070168 424.6484127 C-1133.92157059 423.30357034 -1130.35243391 421.95874286 -1126.78329468 420.61392212 C-1120.32485629 418.18043029 -1113.86646793 415.74680571 -1107.40807533 413.31319237 C-1103.81371889 411.95878959 -1100.21935929 410.60439522 -1096.625 409.25 C-1095.18749998 408.70833337 -1093.74999998 408.16666671 -1092.3125 407.625 C-1043.4375 389.20833333 -994.5625 370.79166667 -945.6875 352.375 C-944.97592837 352.10687154 -944.26435675 351.83874308 -943.53122234 351.56248951 C-942.09381459 351.02085765 -940.65640678 350.47922595 -939.21899891 349.93759441 C-935.623837 348.58289653 -932.02867614 347.22819583 -928.43351746 345.87348938 C-921.98162848 343.44232979 -915.52973238 341.01118911 -909.07779598 338.58015537 C-905.50628577 337.23444057 -901.93478186 335.88870904 -898.36328125 334.54296875 C-897.65524164 334.27618002 -896.94720203 334.00939129 -896.21770668 333.73451805 C-885.81883562 329.81619317 -875.42033328 325.89689093 -865.02201462 321.97710037 C-812.00705444 301.99262744 -812.00705444 301.99262744 -789.76019287 293.66119385 C-772.93566907 287.3595361 -756.12403728 281.0236983 -739.3125 274.6875 C-738.57611298 274.4099588 -737.83972595 274.1324176 -737.08102417 273.84646606 C-730.28120945 271.28360528 -723.48146807 268.72054994 -716.68179321 266.15731812 C-706.33371755 262.25647262 -695.98535519 258.35638879 -685.63671875 254.45703125 C-684.92853312 254.19018713 -684.22034748 253.92334301 -683.49070168 253.6484127 C-679.92157059 252.30357034 -676.35243391 250.95874286 -672.78329468 249.61392212 C-666.32485629 247.18043029 -659.86646793 244.74680571 -653.40807533 242.31319237 C-649.81371889 240.95878959 -646.21935929 239.60439522 -642.625 238.25 C-641.18749998 237.70833337 -639.74999998 237.16666671 -638.3125 236.625 C-567.15625 209.8125 -496 183 -422.6875 155.375 C-421.97592837 155.10687154 -421.26435675 154.83874308 -420.53122234 154.56248951 C-419.09381459 154.02085765 -417.65640678 153.47922595 -416.21899891 152.93759441 C-412.623837 151.58289653 -409.02867614 150.22819583 -405.43351746 148.87348938 C-398.98162848 146.44232979 -392.52973238 144.01118911 -386.07779598 141.58015537 C-382.50628577 140.23444057 -378.93478186 138.88870904 -375.36328125 137.54296875 C-374.65524164 137.27618002 -373.94720203 137.00939129 -373.21770668 136.73451805 C-362.81883562 132.81619317 -352.42033328 128.89689093 -342.02201462 124.97710037 C-289.00705444 104.99262744 -289.00705444 104.99262744 -266.76019287 96.66119385 C-249.93566907 90.3595361 -233.12403728 84.0236983 -216.3125 77.6875 C-215.57611298 77.4099588 -214.83972595 77.1324176 -214.08102417 76.84646606 C-207.28120945 74.28360528 -200.48146807 71.72054994 -193.68179321 69.15731812 C-179.75939055 63.90908225 -165.83633729 58.66257387 -151.9131403 53.41644573 C-146.92619035 51.53740505 -141.93928097 49.65825677 -136.95239258 47.77905273 C-124.48576678 43.08129232 -112.01911841 38.38359219 -99.55187988 33.68745804 C-95.71418859 32.2418777 -91.87655529 30.79614386 -88.0390625 29.35003662 C-81.33380319 26.82337834 -74.62827022 24.29747289 -67.92053223 21.77740097 C-64.4050468 20.45658597 -60.88991086 19.13484323 -57.375 17.8125 C-56.70146484 17.55912117 -56.02792969 17.30574234 -55.33398438 17.04468536 C-46.74374305 13.81107477 -38.1739455 10.52902818 -29.625 7.1875 C-27.85362271 6.49939874 -26.08214372 5.81155922 -24.31054688 5.12402344 C-21.22602968 3.92690276 -18.1508225 2.70949039 -15.08007812 1.47753906 C-13.77247151 0.96853678 -12.46455353 0.4603333 -11.15625 -0.046875 C-10.07150391 -0.47838867 -8.98675781 -0.90990234 -7.86914062 -1.35449219 C-4.42150731 -2.13015101 -3.04503222 -1.7198072 0 0 Z " fill="#5489C8" transform="translate(2796,10)"/>
</svg>
